<svg width="27" height="27" viewBox="0 0 27 27" fill="none" xmlns="http://www.w3.org/2000/svg">
<path d="M13.25 26.5001C20.5678 26.5001 26.5 20.5678 26.5 13.25C26.5 5.93224 20.5678 0 13.25 0C5.93223 0 0 5.93224 0 13.25C0 20.5678 5.93223 26.5001 13.25 26.5001Z" fill="#FFCABC"/>
<path fill-rule="evenodd" clip-rule="evenodd" d="M13.0944 18.1772C13.0944 17.067 13.5757 16.0883 14.1415 15.5272C16.4095 13.2781 20.4884 14.6901 20.4884 18.1772C20.4884 20.9557 17.8476 22.6214 15.291 21.6001C13.9172 21.0513 13.0944 19.6674 13.0944 18.1772ZM12.2564 17.98C12.2564 18.4791 12.2475 18.7514 12.3739 19.2428C12.5166 19.7981 12.5428 19.5512 12.3546 20.0498C11.9839 21.0319 12.0593 22.4089 12.0593 23.5008H8.51015C8.51015 23.1248 8.55946 22.9512 8.55946 22.5643C8.55946 21.0743 8.25991 19.6616 7.51028 18.7827C6.46481 17.557 5.99621 17.6024 5.99621 16.0576C5.99621 14.2802 8.76324 13.469 9.91186 15.1488C10.172 15.5293 9.88073 15.3786 10.42 15.9223C10.5715 16.0752 10.583 16.1005 10.7733 16.2098C11.1623 16.4333 11.7635 16.5659 11.7635 16.0083C11.7635 15.4225 11.1643 15.8026 10.7776 15.0717C10.9244 14.7943 11.1576 14.611 11.4498 14.4623C12.0299 14.167 12.6128 14.0976 13.2434 14.3312C13.5654 14.4505 13.5903 14.5143 13.8338 14.6774C13.5826 15.0524 13.2916 15.1328 12.7827 16.0417C12.5474 16.4621 12.2564 17.3481 12.2564 17.98H12.2564ZM5.1582 16.2055C5.1582 18.0379 6.37791 18.4631 7.20114 19.8313C7.37978 20.1281 7.50742 20.3815 7.60466 20.7587C7.72451 21.2234 7.6718 21.4929 7.67135 21.922L7.68922 23.9275C7.72334 24.0817 7.86023 24.2896 8.01722 24.2896H12.5522C13.1282 24.2896 12.7968 22.7403 12.8838 22.1072C12.9164 21.8695 12.8811 21.6216 12.8997 21.3837C12.9151 21.1872 12.9797 20.9342 12.9958 20.7405C13.1371 20.8351 13.1957 20.9651 13.3117 21.1147C13.5842 21.4664 14.0748 21.8647 14.4531 22.093C15.9492 22.9957 17.7651 22.852 19.2228 21.9888C19.8841 21.5973 20.4903 20.9713 20.8507 20.2647C21.9634 18.0833 21.1517 15.2877 18.7961 14.1022C17.3989 13.3991 15.8799 13.5163 14.5239 14.2338C14.3901 14.034 14.0143 13.7751 13.7644 13.6624C12.9252 13.2839 11.9499 13.3074 11.1225 13.6914C10.9959 13.7501 10.7832 13.8899 10.671 13.9793C10.6007 14.0354 10.5574 14.081 10.4898 14.1432L10.2847 14.3324C10.1436 14.229 10.2401 14.2751 10.113 14.1591C9.87733 13.944 9.74442 13.8363 9.44793 13.6904C7.60628 12.7841 5.15824 14.0335 5.15824 16.2055L5.1582 16.2055Z" fill="#00004D"/>
<path fill-rule="evenodd" clip-rule="evenodd" d="M12.0099 3.93231C12.0099 5.3734 12.2516 6.51879 12.8379 7.39287C12.9121 7.50357 12.9739 7.61377 13.0589 7.71403C13.6986 8.46844 14.5732 9.0541 14.5732 9.99536V10.439C14.5732 12.1605 11.9176 13.0284 10.6988 11.405C10.5894 11.2592 10.5647 11.1682 10.4807 11.0316C10.1566 10.5046 8.90443 9.82139 8.90443 10.7347C8.90443 11.0499 9.07262 11.0301 9.31228 11.1156C9.54339 11.1981 9.67275 11.2965 9.79174 11.4741C9.51981 11.8802 8.85086 12.3121 8.16504 12.3121C6.45876 12.3121 5.00884 10.1347 6.69794 8.57756C7.21743 8.09862 7.30934 8.12975 7.78069 7.34353C8.19847 6.64657 8.51585 5.44394 8.51121 4.57426C8.51015 4.37682 8.50139 4.18623 8.52551 3.99309L8.51008 2.99573H12.0592C12.0592 3.37176 12.0099 3.54542 12.0099 3.93228L12.0099 3.93231ZM7.72145 3.19292C7.72145 4.93541 7.66053 6.43845 6.60067 7.59298C6.18299 8.04794 5.1582 8.4673 5.1582 10.1432C5.1582 11.7252 6.38138 13.1008 7.96795 13.1008C8.73462 13.1008 9.30115 12.9636 9.89159 12.5105C10.0442 12.3934 10.1332 12.2657 10.2847 12.1643C10.4864 12.2993 10.6257 12.5388 11.1552 12.8219C13.1552 13.8915 15.4605 12.0958 15.4605 10.1432C15.4605 9.39 15.0498 8.61749 14.66 8.23269C14.0806 7.66081 13.8218 7.51186 13.3797 6.75257C13.2475 6.52555 13.0947 6.0784 13.0249 5.77644C12.6721 4.25086 13.2535 2.20703 12.4536 2.20703H8.01726C7.54251 2.20703 7.72152 3.10778 7.72152 3.19292H7.72145Z" fill="#00004D"/>
<path fill-rule="evenodd" clip-rule="evenodd" d="M16.397 16.4036H17.1857C17.1814 16.5948 17.1506 16.5691 17.1505 16.6994C17.1505 16.7601 17.1738 16.9234 17.1875 17.042C17.2396 17.4947 17.4748 17.7299 17.9275 17.782C18.5296 17.8513 18.2139 17.7917 18.5659 17.7838V18.5725C18.1138 18.5624 17.2909 18.4155 17.1875 19.3143C17.1766 19.4088 17.1533 19.5933 17.1521 19.6183C17.1449 19.7621 17.182 19.7861 17.1857 19.9527H16.397C16.4071 19.5005 16.554 18.6777 15.6551 18.5743C15.053 18.505 15.3687 18.5647 15.0168 18.5725V17.7838C15.4689 17.7939 16.2918 17.9408 16.3952 17.042C16.464 16.444 16.4069 16.764 16.397 16.4036ZM15.6083 16.9951C14.7973 16.977 14.167 16.9203 14.1994 18.1719C14.2311 19.3901 14.6138 19.3833 15.6083 19.3612C15.5896 20.1983 15.5515 20.8021 16.7851 20.77C17.9866 20.7389 17.997 20.3781 17.9744 19.3612C19.3851 19.3926 19.3546 19.1503 19.3546 17.8824C19.3546 16.8645 18.6003 16.9951 17.9744 16.9951C17.9837 16.5778 18.1039 15.8226 17.4041 15.643C16.9163 15.5177 16.0442 15.5278 15.7822 15.8874C15.5335 16.2289 15.6004 16.6421 15.6083 16.9951V16.9951Z" fill="#00004D"/>
<path fill-rule="evenodd" clip-rule="evenodd" d="M6.63679 17.0438C6.63679 17.7717 7.21998 17.5557 7.81832 18.4748C7.99033 18.739 8.04888 18.9671 8.29874 19.1781C8.60434 19.4361 8.95354 19.2178 8.95354 18.8676C8.95354 18.682 8.64509 18.2468 8.53847 18.0996L8.00995 17.4451C7.86161 17.2587 7.59086 17.0018 7.37882 16.8929C6.96018 16.6778 6.63672 16.8061 6.63672 17.0438H6.63679Z" fill="#00004D"/>
<path fill-rule="evenodd" clip-rule="evenodd" d="M8.6582 19.9036C8.6582 20.0772 8.69524 20.1221 8.73462 20.2709C8.87917 20.8172 8.72483 21.2345 9.34832 21.2345C9.93326 21.2345 9.60131 19.5586 9.05259 19.5586C8.84165 19.5586 8.65824 19.7105 8.65824 19.9036H8.6582Z" fill="#00004D"/>
<path fill-rule="evenodd" clip-rule="evenodd" d="M8.9044 22.0725C8.9044 22.3953 8.88735 22.7133 9.29875 22.7133C9.817 22.7133 9.999 21.6289 9.24944 21.6289C9.09245 21.6289 8.90436 21.8801 8.90436 22.0726L8.9044 22.0725Z" fill="#00004D"/>
</svg>
