<svg width="27" height="27" viewBox="0 0 27 27" fill="none" xmlns="http://www.w3.org/2000/svg">
<path d="M13.25 26.5C20.5678 26.5 26.5 20.5678 26.5 13.25C26.5 5.93223 20.5678 0 13.25 0C5.93223 0 0 5.93223 0 13.25C0 20.5678 5.93223 26.5 13.25 26.5Z" fill="#C8FAEE"/>
<path fill-rule="evenodd" clip-rule="evenodd" d="M9.42502 5.25499C9.53121 5.20402 9.75014 5.15745 9.89613 5.11577C10.0693 5.06634 10.1942 5.0185 10.3557 4.96501C11.3172 4.64654 11.2649 4.55526 11.6241 4.39854C11.7761 4.33218 11.8652 4.45031 12.0158 4.53588C12.1585 4.617 12.2959 4.65797 12.436 4.726C13.5872 5.28544 15.4873 5.58048 17.0745 5.58048C17.0745 6.63785 17.0687 7.06369 16.7811 8.09464C16.6175 8.68113 16.3953 9.16247 16.0816 9.63304C14.9916 11.2684 12.9745 11.8403 11.3891 10.6556C10.9065 10.2949 10.5197 9.86776 10.2255 9.33716C9.79638 8.56333 9.45138 7.371 9.42371 6.43629L9.42502 5.25499ZM9.46569 4.60399C9.52357 4.48334 9.55961 4.09921 9.73625 3.73526C9.84825 3.50453 10.0145 3.14009 10.1981 3.01713C10.2522 3.21982 10.9312 3.89883 11.1339 3.95295C10.9869 4.1536 9.74665 4.58058 9.46566 4.60399H9.46569ZM10.605 2.56956C10.7529 2.34872 11.4271 1.98953 11.7088 1.88301C12.7126 1.50344 13.7588 1.51061 14.7609 1.87214C16.0852 2.34986 16.9571 3.55946 17.0745 4.97018C15.9192 4.97018 14.2797 4.79769 13.2148 4.39482C12.258 4.03288 11.1036 3.51842 10.605 2.56956ZM8.81469 5.41775C8.81469 6.33653 8.81921 6.75973 9.00102 7.67275C9.11556 8.24797 9.27011 8.66316 9.45986 9.12625C9.76492 9.87084 10.5014 10.8584 11.2153 11.2362V13.5554C9.68358 13.9123 6.7982 14.1594 5.44968 14.9509C4.47969 15.5203 3.93213 16.4964 3.93213 17.7871V20.1877C3.93213 20.6882 3.97284 21.0341 3.97284 21.5304C4.15119 21.6499 4.01076 21.6525 4.33903 21.6525C4.43392 21.6525 4.54246 21.5439 4.54246 21.4491V19.9029C4.54246 18.1502 4.18998 16.2461 5.82999 15.4127C6.68111 14.9801 7.94221 14.7688 8.89925 14.5758L11.3846 14.1316C11.7449 14.0754 11.8302 14.0092 11.8274 13.5979C11.8229 12.9328 11.8257 12.2676 11.8257 11.6025C11.9793 11.6152 12.0143 11.6493 12.14 11.6951C12.3975 11.789 13.0073 11.8877 13.2498 11.8877C13.8701 11.8877 14.4841 11.6182 14.6739 11.6025C14.6739 12.277 14.6596 12.9664 14.6719 13.6389C14.6818 14.1781 15.0091 14.127 16.0458 14.2995C17.1832 14.4886 18.4071 14.6967 19.4754 14.9793C20.5151 15.2543 21.4524 15.6438 21.8167 16.7476C21.8976 16.9926 21.9604 17.3158 21.958 17.6235C21.955 17.995 21.9983 18.2155 21.9978 18.6009L21.9571 21.4491C21.9571 21.6736 22.2279 21.6525 22.3233 21.6525C22.4211 21.6525 22.4429 21.5866 22.5267 21.5304C22.5267 21.1142 22.5674 20.8536 22.5674 20.4319V17.7871C22.5674 16.6386 22.1995 15.921 21.5201 15.2945C20.5044 14.3578 17.9362 14.0312 16.5283 13.7761C16.0949 13.6975 15.6845 13.6488 15.2842 13.5555V11.2362C16.479 10.604 17.2467 8.93174 17.5052 7.63885C17.8093 6.11801 17.8399 4.20151 16.9607 2.88683C16.8838 2.77185 16.833 2.6797 16.7388 2.57968L16.2098 2.05086C15.6004 1.481 14.3159 1.02344 13.5346 1.02344C12.3972 1.02344 11.5388 1.17138 10.6125 1.80407L10.0042 2.29437C9.20861 3.02367 8.81469 4.32363 8.81469 5.41782V5.41775Z" fill="#00004D"/>
<path fill-rule="evenodd" clip-rule="evenodd" d="M13.3718 18.6014C13.3718 17.6302 13.8617 16.8577 14.4986 16.3917C14.6107 16.3096 14.7736 16.2054 14.9055 16.1476C16.0045 15.6654 16.9837 15.8708 17.895 16.6009C17.9793 16.6685 17.9915 16.6916 18.0513 16.7701C18.579 17.4633 18.7427 17.7261 18.7427 18.7641C18.7427 19.0909 18.5916 19.5715 18.4715 19.7949C18.4051 19.9184 18.2998 20.0935 18.22 20.1945C17.9155 20.5796 17.5758 20.8762 17.0987 21.0669C15.2049 21.8236 13.3718 20.3851 13.3718 18.6014V18.6014ZM15.8945 21.8565C16.7983 21.8565 17.425 21.6924 18.1156 21.148C18.2148 21.0699 18.2399 21.0255 18.3358 20.9613V21.5716C18.6026 21.7503 18.6386 21.7503 18.9055 21.5716C18.9055 20.9528 18.829 20.3765 19.0278 19.9851C20.3885 17.3065 17.4407 14.2821 14.6598 15.617C12.5427 16.6333 12.2104 19.3738 13.6865 20.8501C14.1645 21.328 14.9625 21.8565 15.8945 21.8565L15.8945 21.8565Z" fill="#00004D"/>
<path fill-rule="evenodd" clip-rule="evenodd" d="M16.1794 20.3906H15.9353C15.1224 20.3906 14.267 19.5714 14.267 18.7631C14.267 18.1524 14.3116 17.7512 14.8049 17.2665C15.907 16.1839 17.8883 16.9813 17.8883 18.5596C17.8883 19.5522 17.0441 20.3906 16.1794 20.3906ZM13.6567 18.4782C13.6567 18.9347 13.6937 19.1952 13.8768 19.6009C14.0319 19.9444 14.2516 20.1898 14.52 20.4225C15.4451 21.2243 16.8706 21.1583 17.696 20.3611C18.0677 20.002 18.458 19.3685 18.458 18.8038C18.458 18.1829 18.4168 17.6533 17.9795 17.1258C17.269 16.2688 16.1524 15.8826 15.0938 16.3754C14.7943 16.5148 14.6166 16.6421 14.3992 16.8608C13.9877 17.2748 13.6567 17.8232 13.6567 18.4783V18.4782Z" fill="#00004D"/>
<path fill-rule="evenodd" clip-rule="evenodd" d="M7.59427 17.583V21.4891C7.59427 21.674 7.88244 21.7839 8.04922 21.6622C8.21205 21.5434 8.16393 21.2665 8.16393 21.0008C8.27237 21.0298 8.53214 21.1864 8.65151 21.2456C9.21969 21.5278 9.92941 21.6071 10.5893 21.5138C11.3883 21.4009 12.5583 20.7087 12.5583 20.3905C12.5583 20.0969 12.3578 20.065 12.1921 20.065C12.1086 20.065 11.7475 20.451 11.3251 20.6628C10.3421 21.1555 9.30959 21.0196 8.41518 20.424C8.20008 20.2808 8.15857 20.2849 8.16182 19.945L8.16561 17.744C8.17087 17.0549 7.59424 17.2478 7.59424 17.583H7.59427Z" fill="#00004D"/>
<path fill-rule="evenodd" clip-rule="evenodd" d="M15.1216 18.6425C15.1216 17.2432 16.9932 17.44 16.9932 18.4797V18.6831C16.9932 19.141 16.5235 19.5376 16.0574 19.5376C15.5756 19.5376 15.1216 19.1123 15.1216 18.6425ZM14.5112 18.5611C14.5112 19.3607 15.1966 20.1072 15.9353 20.1072H16.1795C17.3488 20.1072 18.1257 18.479 17.1869 17.5536C16.5145 16.8909 15.6094 16.8741 14.9682 17.5126C14.8381 17.6422 14.7465 17.7622 14.662 17.9387C14.6064 18.0548 14.5112 18.4132 14.5112 18.5611Z" fill="#00004D"/>
<path fill-rule="evenodd" clip-rule="evenodd" d="M9.79102 19.0086C9.79102 19.5987 10.3607 19.3844 10.3607 19.09C10.3607 18.6395 9.79102 18.7498 9.79102 19.0086Z" fill="#00004D"/>
</svg>
