<svg width="27" height="27" viewBox="0 0 27 27" fill="none" xmlns="http://www.w3.org/2000/svg">
<path d="M13.25 26.5001C20.5678 26.5001 26.5 20.5678 26.5 13.25C26.5 5.93224 20.5678 0 13.25 0C5.93223 0 0 5.93224 0 13.25C0 20.5678 5.93223 26.5001 13.25 26.5001Z" fill="#FFE0F6"/>
<path fill-rule="evenodd" clip-rule="evenodd" d="M3.2005 13.7232V12.7743C3.2005 10.8459 4.00883 8.92164 5.02936 7.44325C5.24665 7.12847 5.57214 6.71387 5.84292 6.44531C5.97072 6.3186 6.0031 6.23733 6.12093 6.11946C6.56327 5.67712 7.61965 4.85833 8.14702 4.56564C9.42125 3.85849 11.0688 3.19907 12.7757 3.19907H13.7246C15.653 3.19907 17.5773 4.0074 19.0557 5.02789L20.3794 6.11946L21.4537 7.4174C21.6189 7.6598 21.7857 7.87969 21.9333 8.14555C22.6404 9.41979 23.2998 11.0673 23.2998 12.7743V13.7232C23.2998 15.046 22.7909 16.6705 22.3516 17.5625C21.9419 18.3942 21.3143 19.4007 20.6574 20.0521C20.5296 20.1788 20.4973 20.2601 20.3794 20.378C19.9371 20.8203 18.8807 21.6391 18.3534 21.9318C17.0791 22.6389 15.4316 23.2984 13.7246 23.2984H12.7757C10.8474 23.2984 8.92311 22.4901 7.44472 21.4696C7.18132 21.2877 7.00954 21.1375 6.76159 20.945C6.61627 20.8322 6.57124 20.7815 6.44678 20.656C6.32006 20.5282 6.23876 20.4958 6.12093 20.378C5.67859 19.9356 4.8598 18.8793 4.5671 18.3519C3.85996 17.0777 3.2005 15.4301 3.2005 13.7232ZM12.9436 2.20703H13.6157C15.1093 2.25076 16.5909 2.58752 17.9233 3.22724C19.042 3.76437 20.1871 4.55043 21.0678 5.43111L22.0308 6.53838C23.443 8.34258 24.2167 10.6242 24.2918 12.9273V13.6673C24.2439 15.1361 23.9093 16.5937 23.2716 17.9218C22.7416 19.0258 22.3896 19.5024 21.6979 20.3594C21.2112 20.9624 20.9236 21.223 20.3371 21.7158C20.2001 21.831 20.104 21.9171 19.9605 22.0294C19.4022 22.4664 18.5353 22.987 17.8942 23.2842C16.314 24.017 14.938 24.2904 12.9483 24.2904C10.7611 24.2904 8.48818 23.4366 6.89157 22.2815C6.74003 22.1719 6.63495 22.1075 6.4919 21.991C5.07048 20.8333 3.99257 19.5704 3.21469 17.8928C2.48191 16.3125 2.2085 14.9366 2.2085 12.9468C2.2085 11.3609 2.70654 9.6631 3.2287 8.57557C3.95197 7.06919 4.89516 5.84714 6.16325 4.78156C6.30032 4.6664 6.39634 4.58035 6.53984 4.46804C6.67843 4.35959 6.78182 4.29707 6.91637 4.19761C7.17671 4.00512 7.45237 3.83535 7.73148 3.67566C8.01662 3.51249 8.29133 3.35919 8.60611 3.21323C9.95062 2.58977 11.4428 2.25118 12.9436 2.20703Z" fill="#00004D"/>
<path fill-rule="evenodd" clip-rule="evenodd" d="M7.98807 11.8249H11.2661C11.6158 11.8249 11.8268 11.6138 11.8268 11.2642V7.98615H14.7166V11.4367C14.7166 11.612 14.9611 11.8249 15.2773 11.8249H18.5122V14.6716H15.2342C14.8845 14.6716 14.6735 14.8826 14.6735 15.2323V18.5103H11.8268V15.2323C11.8268 14.8826 11.6158 14.6716 11.2661 14.6716H7.98807V11.8249V11.8249ZM10.8348 7.59796V10.8328H7.59992C7.17047 10.8328 6.99609 11.0907 6.99609 11.5229V14.9734C6.99609 15.4056 7.17047 15.6635 7.59992 15.6635H10.8348V18.8984C10.8348 19.3279 11.0927 19.5022 11.5249 19.5022H14.9754C15.4076 19.5022 15.6655 19.3279 15.6655 18.8984V15.6635H18.9004C19.3298 15.6635 19.5042 15.4056 19.5042 14.9734V11.4798C19.5042 11.1016 19.2827 10.8328 18.9004 10.8328H15.6655V7.59796C15.6655 7.16851 15.4076 6.99414 14.9754 6.99414H11.5249C11.0927 6.99414 10.8348 7.16855 10.8348 7.59796Z" fill="#00004D"/>
</svg>
