<svg width="27" height="27" viewBox="0 0 27 27" fill="none" xmlns="http://www.w3.org/2000/svg">
<path d="M13.25 26.5C20.5678 26.5 26.5 20.5678 26.5 13.25C26.5 5.93223 20.5678 0 13.25 0C5.93223 0 0 5.93223 0 13.25C0 20.5678 5.93223 26.5 13.25 26.5Z" fill="#FFECD3"/>
<path fill-rule="evenodd" clip-rule="evenodd" d="M12.4826 14.8864C12.4826 15.3868 12.7343 15.9045 12.8752 16.4177C13.0805 17.1658 13.1777 16.8023 11.6286 18.3514C11.0925 18.8875 9.26704 20.7878 8.80022 21.0984C7.45747 21.9917 6.11261 22.0083 4.69538 21.2994C3.92882 20.916 4.09511 20.977 5.32687 19.7452C6.00361 19.0685 13.1339 11.9847 13.2678 11.7846L14.2794 12.7755C14.146 12.9812 13.9309 13.149 13.7608 13.3377L13.0312 14.0609C13.0274 14.065 12.9761 14.1195 12.9741 14.1215L12.8286 14.2509C12.6554 14.408 12.4826 14.6276 12.4826 14.8864V14.8864ZM3.92318 9.50738C3.92318 8.54541 3.98005 7.93393 4.40736 7.08608C4.71577 6.47422 4.93762 6.14457 5.39925 5.68291C6.2526 4.82953 7.52218 4.20684 8.75253 4.20684C9.65405 4.20684 10.3552 4.29696 11.1085 4.67785C12.005 5.13119 11.8992 5.13123 12.5284 5.65293C12.7847 5.86539 13.3629 6.68659 13.5263 7.05011C13.9521 7.99764 14.1299 9.00947 13.965 10.0868C13.9282 10.3276 13.9051 10.308 13.749 10.4598L10.7844 13.4239C9.8472 14.361 10.1697 14.2975 8.67396 14.2975C7.47449 14.2975 6.17392 13.6222 5.38526 12.8353C4.56031 12.0123 3.92311 10.7043 3.92311 9.50734L3.92318 9.50738ZM15.5844 13.1196C15.1615 12.8958 14.1599 11.6346 13.739 11.3527C13.8517 11.1844 15.2154 9.85673 15.4764 9.59571C16.0684 9.00373 16.6316 8.44049 17.2236 7.84851C17.8156 7.25653 18.3788 6.69329 18.9708 6.10131C19.5928 5.47931 20.2654 4.59949 21.0027 4.59949C21.6865 4.59949 22.2984 5.20688 22.2984 5.7774C22.2984 6.51549 22.1473 6.61558 21.6603 7.10255C21.3628 7.40006 21.0941 7.66881 20.7965 7.96632C20.2111 8.55177 19.6544 9.10843 19.069 9.69392C18.7585 10.0044 15.8782 12.9641 15.5844 13.1196V13.1196ZM3.29496 9.154C3.29496 10.8869 3.89983 12.2082 5.05141 13.3655L5.43133 13.6923C5.57245 13.8033 5.69332 13.8936 5.83866 13.9917C6.85283 14.6766 7.88736 14.9257 9.26295 14.9257C9.13775 15.1126 8.73328 15.475 8.54639 15.6619L4.18819 20.0201C3.88374 20.3245 3.60907 20.4674 3.60907 20.9722C3.60907 21.2877 3.81401 21.5315 4.0272 21.6534C5.61609 22.5617 7.41689 22.7718 9.01221 21.703C9.73397 21.2195 12.1342 18.7095 12.9832 17.8606C13.6088 17.235 13.7719 17.1604 13.4882 16.3151C13.422 16.1176 13.3679 15.9219 13.3117 15.7456C12.9864 14.7242 12.8971 15.0805 13.9844 13.9932C14.1751 13.8024 14.5931 13.4278 14.7205 13.2374C15.1246 13.5079 14.9771 13.7085 15.7021 13.7085C16.0365 13.7085 16.5234 13.1032 16.7328 12.8938L22.3476 7.27936C22.9454 6.68858 23.1022 5.82365 22.7312 5.06968C22.1674 3.92419 20.6354 3.56665 19.5793 4.62889C19.1059 5.10513 14.844 9.41141 14.642 9.54661C14.642 7.79663 14.1758 6.52346 13.0621 5.31553L12.2754 4.64952C10.1916 3.09041 7.21832 3.23748 5.18898 5.04083C4.03191 6.06903 3.29492 7.51631 3.29492 9.15403L3.29496 9.154Z" fill="#00004D"/>
<path fill-rule="evenodd" clip-rule="evenodd" d="M6.00393 8.64348H7.69226C8.11125 8.64348 8.35972 8.32843 8.35972 7.89748V6.28769H9.57686V7.89748C9.57686 8.32843 9.82533 8.64348 10.2443 8.64348H11.9327V9.86062H10.4406C9.88448 9.86062 9.57686 10.0927 9.57686 10.6459V12.2164H8.35972V10.6066C8.35972 10.0716 8.0302 9.86062 7.49595 9.86062H6.00393V8.64348ZM7.73153 6.28769V8.01525H6.00393C5.18723 8.01525 5.37574 9.02956 5.37574 9.86062C5.37574 10.0981 5.4747 10.2587 5.6174 10.365C5.87433 10.5565 6.52315 10.4909 6.98577 10.4886C7.29397 10.487 7.43082 10.5281 7.73153 10.5281V12.2949C7.73153 12.5546 8.02157 12.8446 8.28118 12.8446H9.6554C9.91508 12.8446 10.2051 12.5546 10.2051 12.2949V10.4888H12.0112C12.2709 10.4888 12.5609 10.1988 12.5609 9.93912V8.64344C12.5609 8.28858 12.2875 8.01522 11.9327 8.01522H10.2051V6.28765C10.2051 5.47092 9.19078 5.65943 8.35972 5.65943C8.00486 5.65943 7.73153 5.93279 7.73153 6.28765V6.28769Z" fill="#00004D"/>
</svg>
