<svg xmlns="http://www.w3.org/2000/svg" xmlns:xlink="http://www.w3.org/1999/xlink" xmlns:xodm="http://www.corel.com/coreldraw/odm/2003" xml:space="preserve" version="1.1" style="shape-rendering:geometricPrecision; text-rendering:geometricPrecision; image-rendering:optimizeQuality; fill-rule:evenodd; clip-rule:evenodd" viewBox="2027.2 2364.32 4920.04 5001.86"> <defs>  <style type="text/css">   <![CDATA[    .fil12 {fill:#2276BB}    .fil3 {fill:#2BB3CD}    .fil9 {fill:#7FCCCB}    .fil7 {fill:#B21D48}    .fil8 {fill:#C9DA53}    .fil0 {fill:#D1E2ED}    .fil11 {fill:#D5547E}    .fil1 {fill:#DC1C4B}    .fil10 {fill:#DC95C0}    .fil6 {fill:#F5F5E7}    .fil4 {fill:#FFBF41}    .fil13 {fill:#FFDA42}    .fil5 {fill:#FFDB43}    .fil2 {fill:#FFFEFE}   ]]>  </style> </defs> <g id="Layer_x0020_1">  <metadata id="CorelCorpID_0Corel-Layer"></metadata>  <path class="fil0" fill="#D1E2ED" d="M2876.95 3810.17c-60.7,488.7 537.23,1150.43 728.51,1362.4 124.52,138 175.51,164.26 268.6,258.96l281.83 235.71c324.02,246.89 626.31,358.34 657.22,381.89 44.62,0.69 98.67,24.95 148.93,34.22 65.7,12.12 113.03,12.92 181.55,7.41 38.56,1.22 70.37,-17.74 103.64,-37.49 234.24,-139.11 28.74,-605.37 -64.57,-766.54 -74.31,-26.94 -328.41,11.36 -420.48,26.21 -119.59,19.28 -341.76,81.98 -382.4,12.55 -85.66,-146.33 194.18,-150.32 286.56,-165.69 46.79,-7.78 402.55,-49.92 403.44,-50.33 -4.71,-15.19 1.47,-0.65 -7.37,-17.59 -0.44,-0.85 -9.48,-16.32 -10.27,-17.57l-71.78 -104.46c-34.76,-46.12 -69.15,-88.67 -100.54,-133.15 -85.13,12.77 -267.04,171.67 -332.33,77.11 -87.58,-126.84 152.5,-160.41 210.56,-214.65l-20.11 -33.63c-13.76,-19.32 -11.29,-16.23 -26.49,-32.44l-173.55 -184.15c-42.92,15.19 -213.53,183.01 -267.48,227.11l-132.93 120.94c-27.61,29.1 -89.64,99.23 -156.34,49.17 -87.91,-65.98 3.87,-132.21 34.54,-161.44l195.45 -175.79c28.87,-27.86 36.19,-37.42 65.78,-61l126.99 -120c-62.09,-72.64 -129.99,-120.06 -200.69,-183.1 -70.11,-62.51 -147.62,-111.78 -219.96,-168.59 -23.43,70.46 -41.67,162.65 -64.97,240.18 -23.39,77.84 -50.22,148.24 -80.52,222.34 -29.83,72.96 -59.5,143.61 -88.91,213.96 -26.55,63.51 -59.92,173.98 -157.06,113.63 -72.26,-44.9 -5.54,-158.56 20.93,-220.6 65.72,-154.07 220.55,-530.33 211.31,-676.98l-161.26 -92.05c-162.48,-97.01 -572.06,-264.96 -729.68,-86.43 -26.44,29.96 -54.65,68.74 -56.17,119.86z"></path>  <path class="fil1" fill="#DC1C4B" d="M2662.21 4682.02c11.58,16.64 70.3,237.77 86.2,282.69 180.9,511.04 522.59,953.13 974.67,1242.89 73.45,47.08 150.8,85.1 227.13,130.95l18.24 2.6 626.26 -237.04c140.02,-52.73 120.87,-62.31 218.41,-54.97 -30.91,-23.55 -333.21,-135 -657.22,-381.89l-281.83 -235.71c-93.09,-94.7 -144.09,-120.96 -268.6,-258.96 -191.28,-211.98 -789.21,-873.7 -728.51,-1362.4 -18.39,29.53 -212.85,846.77 -214.74,871.85z"></path>  <path class="fil2" fill="#FFFEFE" d="M2451.89 5578.4c17.37,253.63 40.65,440 120.44,666.2 33.65,95.41 77.84,194.76 125,275.71 42.94,73.7 111,187.8 159.12,238.3 81.35,-16.12 844.09,-319.2 1030.54,-385 35.35,-12.48 44.01,-9.09 63.22,-35.06 -76.33,-45.85 -153.67,-83.87 -227.13,-130.95 -452.08,-289.76 -793.77,-731.84 -974.67,-1242.89 -15.9,-44.92 -74.63,-266.05 -86.2,-282.69l-111.41 443.04c-19.43,76.96 -35.32,151.35 -52.7,220.84 -12.8,51.18 -54.73,185.93 -46.21,232.49z"></path>  <path class="fil3" fill="#2BB3CD" d="M6364.75 7024.25c-163.58,0 -237.15,-199.47 -79.89,-324.12 323.56,-256.47 326.77,324.12 79.89,324.12zm443.44 341.93l-39.4 0c-44.96,-13.3 -72.65,-72.2 -42.68,-136.6 60.39,-129.74 69.53,-308.12 -19.44,-410.48 0,203.18 -135.31,367.01 -336.16,374.2 -408.84,14.64 -515.74,-600.25 23.54,-725.89 -58.8,-87.8 -213.78,-197.23 -317.6,-249.01 -258.25,-128.81 -376.02,-64.26 -376.02,-190.6 0,-219.72 531.2,77.43 576.52,107.32 132.7,87.53 254.25,204.96 345.77,338.07 40.74,59.25 25.93,51.53 83.97,91.87 32.86,22.85 55.8,51.2 85.53,80.55 127.02,125.38 176.08,332.29 142.06,508.57 -26.75,138.55 -79.11,198.93 -126.11,212z"></path>  <path class="fil1" fill="#DC1C4B" d="M2085.82 7050.78l770.63 -292.17c-48.12,-50.51 -116.19,-164.61 -159.12,-238.3 -47.16,-80.95 -91.35,-180.3 -125,-275.71 -79.79,-226.2 -103.07,-412.57 -120.44,-666.2l-18.71 34.91c-4.89,14.19 -7.83,32.41 -11.35,47.14l-336 1390.33z"></path>  <path class="fil4" fill="#FFBF41" d="M4758.05 4699.17c-58.06,54.23 -298.15,87.8 -210.56,214.65 65.3,94.57 247.2,-64.34 332.33,-77.11l203.79 -99.83c69.76,-28.24 131.35,-67.81 205.15,-97.69l417.32 -198.14c74.67,-30.81 127.46,-65.63 205.15,-97.69 113,-46.63 298.29,-147.65 417.26,-198.2 62.04,-26.37 169.89,-81.71 102.67,-166.81 -56.48,-71.5 -160.74,1.09 -212.96,27.21 -396.16,198.2 -847.56,394.15 -1243.95,592.67 -41,20.54 -63.37,30.64 -107.03,49.28 -41,17.5 -68.83,34.94 -109.18,51.67z"></path>  <path class="fil4" fill="#FFBF41" d="M3824.06 3868.79c9.24,146.64 -145.59,522.91 -211.31,676.98 -26.46,62.04 -93.19,175.7 -20.93,220.6 97.14,60.35 130.51,-50.12 157.06,-113.63 29.41,-70.36 59.07,-141 88.91,-213.96 30.3,-74.1 57.13,-144.5 80.52,-222.34 23.3,-77.53 41.54,-169.72 64.97,-240.18 64.47,-184.64 67.87,-1026.64 -44.38,-1100.98 -36.57,-24.22 -94.21,-14.12 -116.85,13.9 -50.48,62.49 77.39,424.93 36.14,700.43 -11,73.5 -9.93,232.68 -34.13,279.18z"></path>  <path class="fil4" fill="#FFBF41" d="M5182.67 5286.74c293.41,-16.52 589.28,52.14 846.23,139.06 42.22,14.28 83.64,39.04 127.24,12.86 48.94,-29.39 99.11,-121.16 -70.96,-176.61 -369.86,-120.58 -592.48,-152.57 -1015.39,-152.57 -0.89,0.41 -356.65,42.56 -403.44,50.33 -92.39,15.36 -372.22,19.35 -286.56,165.69 40.64,69.43 262.81,6.73 382.4,-12.55 92.06,-14.85 346.17,-53.15 420.48,-26.21z"></path>  <path class="fil5" fill="#FFDB43" d="M2027.21 2745.32c91.78,137.06 214.67,155.55 202.18,249.4 -11.17,83.95 -36.11,158.35 -36.11,248.83 24.7,-16.54 242.14,-132.48 254,-132.48 11.86,0 229.3,115.94 254,132.48 0,-74.47 -21.47,-161.87 -34.52,-240.41 -7.92,-47.69 -9.68,-42.21 16.48,-70.45 51.17,-55.26 146.16,-130.69 184.12,-187.37 -48.02,0 -107.64,-13.42 -155.76,-20.08 -31.04,-4.29 -42.11,-5.69 -77.61,-10.31 -12.13,-1.58 -25.91,-3.29 -33.41,-5.67 -56.22,-17.87 -142.94,-254.5 -143.53,-257.01l-19.54 0c-0.64,2.76 -91.59,235.61 -136.24,254.54l-274.07 38.54z"></path>  <path class="fil6" fill="#F5F5E7" d="M2856.45 6758.61c19.45,29.43 40.8,51.2 61.52,78.33 26.5,34.69 50.63,44.35 68.52,79.84 43,-3.9 111.55,-34.92 152.94,-50.32l1074.61 -408.83c-69.27,-52.17 -181.61,-63.24 -245.59,-116.48l-18.24 -2.6c-19.21,25.97 -27.87,22.59 -63.22,35.06 -186.45,65.8 -949.19,368.88 -1030.54,385z"></path>  <path class="fil4" fill="#FFBF41" d="M4403.92 4327.94l-126.99 120c-29.59,23.58 -36.91,33.14 -65.78,61l-195.45 175.79c-30.68,29.23 -122.46,95.46 -34.54,161.44 66.7,50.06 128.73,-20.07 156.34,-49.17l132.93 -120.94c53.95,-44.1 224.56,-211.92 267.48,-227.11 18.04,-33.69 23.54,-33.32 54.47,-56.8l304.21 -272.14c46.7,-38.14 81.76,-99 20.54,-151.8 -67.81,-58.47 -109.43,1.87 -147.69,34.42l-365.51 325.31z"></path>  <path class="fil7" fill="#B21D48" d="M2085.82 7050.78c-19.56,36.4 -49.09,186.57 -58.61,227.48 41.53,-3.46 87.32,-24.98 118.64,-37.67l361.46 -136.77c81.05,-32.79 158.48,-59.96 241.35,-90.81 43.77,-16.29 211.19,-75.92 237.83,-96.22 -17.88,-35.49 -42.02,-45.16 -68.52,-79.84 -20.72,-27.13 -42.07,-48.91 -61.52,-78.33l-770.63 292.17z"></path>  <path class="fil8" fill="#C9DA53" d="M5104.52 3390.09l0 390.77 429.85 0 0 -420.08 -400.54 0c-22.51,0 -29.31,6.8 -29.31,29.31z"></path>  <path class="fil7" fill="#B21D48" d="M3968.45 6341.15c63.97,53.24 176.32,64.32 245.59,116.48l929.56 -366.87c-68.52,5.51 -115.85,4.71 -181.55,-7.41 -50.27,-9.27 -104.31,-33.54 -148.93,-34.22 -97.54,-7.34 -78.39,2.24 -218.41,54.97l-626.26 237.04z"></path>  <path class="fil9" fill="#7FCCCB" d="M3609.82 2540.17c0,72.55 75.34,156.31 146.54,156.31l48.85 0c75.33,0 146.54,-87.76 146.54,-166.07 0,-77.85 -71.65,-166.08 -146.54,-166.08l-48.85 0c-80.3,0 -146.54,90.76 -146.54,175.85z"></path>  <path class="fil10" fill="#DC95C0" d="M4362.06 3263.09c0,227.85 258.84,233.85 322.77,88.25 62.37,-142.03 -78.47,-276.17 -210.75,-230.69 -51.52,17.72 -112.02,81.11 -112.02,142.44z"></path>  <path class="fil11" fill="#D5547E" d="M6364.75 5588.17c0,289.43 332.15,211.89 332.15,48.85l0 -48.85c0,-74.61 -93.26,-144.49 -166.07,-144.49 -72.82,0 -166.08,69.88 -166.08,144.49z"></path>  <path class="fil12" fill="#2276BB" d="M6198.67 2676.94c0,119.15 57.39,107.46 166.07,107.46 117.12,0 115.39,-175.85 -9.77,-175.85 -46.82,0 -156.31,0.37 -156.31,68.38z"></path>  <path class="fil12" fill="#2276BB" d="M6022.83 2491.32c0,179.53 175.85,144.85 175.85,39.08 0,-87.87 16.23,-166.08 -87.93,-166.08 -66.31,0 -87.92,61.83 -87.92,127z"></path>  <path class="fil12" fill="#2276BB" d="M6022.83 2901.63c0,187.96 175.85,147.59 175.85,48.85 0,-46.56 14.81,-200.25 -101.78,-170.87 -56.13,14.15 -74.07,71.25 -74.07,122.02z"></path>  <path class="fil5" fill="#FFDB43" d="M6071.67 3732.02c0,124.43 224.69,226.5 224.69,58.61 0,-109.8 -224.69,-212.13 -224.69,-58.61z"></path>  <path class="fil5" fill="#FFDB43" d="M6599.21 3790.63c0,167.89 224.69,65.82 224.69,-58.61 0,-153.51 -224.69,-51.19 -224.69,58.61z"></path>  <path class="fil5" fill="#FFDB43" d="M6364.75 4357.25c0,64.53 -17.71,175.85 78.15,175.85 109.63,0 87.93,-110.08 87.93,-185.61 0,-80.08 -166.08,-106.33 -166.08,9.77z"></path>  <path class="fil5" fill="#FFDB43" d="M6599.21 4269.32c0,49.27 97.5,162.14 167.78,139.1 131.08,-42.98 9.46,-227.02 -79.86,-227.02 -48.29,0 -87.92,39.64 -87.92,87.92z"></path>  <path class="fil5" fill="#FFDB43" d="M6696.9 4025.09c0,106.87 82.85,87.92 185.62,87.92 91.56,0 80.85,-166.07 0,-166.07 -84.82,0 -185.62,-18.57 -185.62,78.15z"></path>  <path class="fil12" fill="#2276BB" d="M5778.59 2696.48c0,122.41 254,122.41 254,0 0,-121.01 -254,-121.01 -254,0z"></path>  <path class="fil13" fill="#FFDA42" d="M6364.75 3595.25c0,102.76 -18.95,185.61 87.93,185.61 96.72,0 78.15,-100.8 78.15,-185.61 0,-87.24 -166.08,-83.81 -166.08,0z"></path> </g></svg>