<svg width="297" height="265" viewBox="0 0 297 265" fill="none" xmlns="http://www.w3.org/2000/svg">
<g clip-path="url(#clip0_2696_28450)">
<path d="M251.214 34.4656C225.847 23.7888 212.122 43.3169 174.569 33.1042C150.696 26.6118 150.473 17.3202 130.867 11.3848C78.1033 -4.58943 6.83189 41.2702 9.22574 69.8552C10.5669 85.8678 34.4857 90.0169 35.8848 112.119C36.803 126.617 26.8326 129.937 25.5897 145.901C23.9383 167.093 39.2424 191.459 59.0518 201.599C87.4956 216.158 106.947 190.011 131.061 204.057C157.034 219.187 148.861 254.925 173.144 263.347C187.9 268.465 207.892 261.156 216.077 248.612C226.752 232.25 210.089 218.093 218.993 197.932C227.213 179.314 244.839 183.643 268.667 159.205C273.868 153.871 289.517 136.484 292.151 111.728C295.393 81.2545 277.989 45.7356 251.214 34.4656Z" fill="#99E6FF"/>
<path d="M190.849 24.4313C196.44 18.8428 196.44 9.78218 190.849 4.19375C185.259 -1.39468 176.195 -1.39468 170.604 4.19375C165.013 9.78218 165.013 18.8428 170.604 24.4313C176.195 30.0197 185.259 30.0197 190.849 24.4313Z" fill="#99E6FF"/>
<path d="M142.42 237.901C144.869 236.014 145.324 232.499 143.436 230.051C141.548 227.603 138.032 227.148 135.583 229.036C133.133 230.923 132.679 234.438 134.567 236.886C136.455 239.334 139.971 239.789 142.42 237.901Z" fill="#99E6FF"/>
<path d="M115.994 205.453C107.818 205.453 101.166 212.103 101.166 220.276C101.166 228.449 107.818 235.099 115.994 235.099C124.171 235.099 130.823 228.449 130.823 220.276C130.823 212.103 124.171 205.453 115.994 205.453ZM115.994 229.038C111.161 229.038 107.229 225.107 107.229 220.277C107.229 215.447 111.161 211.515 115.994 211.515C120.828 211.515 124.76 215.446 124.76 220.277C124.76 225.108 120.828 229.038 115.994 229.038Z" fill="#99E6FF"/>
<path d="M20.4226 98.9291L15.8283 96.7656L11.4532 106.051L2.16532 101.678L0 106.27L9.28894 110.644L4.91384 119.929L9.50919 122.093L13.8843 112.807L23.1722 117.181L25.3365 112.588L16.0475 108.215L20.4226 98.9291Z" fill="#99E6FF"/>
<path d="M238.883 206.378L238.879 206.359L233.588 207.428L233.593 207.447C233.94 209.165 234.65 210.741 235.703 212.129L240.004 208.869C239.444 208.132 239.068 207.294 238.883 206.378Z" fill="#99E6FF"/>
<path d="M240.208 201.2L236.078 197.727C234.968 199.046 234.154 200.622 233.725 202.286L238.952 203.632C239.181 202.745 239.615 201.904 240.208 201.2Z" fill="#99E6FF"/>
<path d="M250.932 203.949C251.117 204.865 251.094 205.784 250.864 206.68L256.092 208.021C256.526 206.333 256.57 204.606 256.225 202.887L250.932 203.949Z" fill="#99E6FF"/>
<path d="M247.434 210.765L249.645 215.686C251.216 214.981 252.634 213.908 253.744 212.586L249.61 209.117C249.019 209.821 248.266 210.391 247.434 210.765Z" fill="#99E6FF"/>
<path d="M249.814 201.46L254.119 198.205C253.081 196.834 251.723 195.692 250.19 194.902L247.718 199.699C248.537 200.12 249.262 200.729 249.814 201.46Z" fill="#99E6FF"/>
<path d="M242.622 193.851C242.622 193.851 242.622 193.851 242.621 193.851C241.779 194.021 240.958 194.284 240.18 194.633L242.386 199.557C243.221 199.184 244.159 198.996 245.073 199.018L245.211 193.625C244.347 193.603 243.476 193.678 242.622 193.851Z" fill="#99E6FF"/>
<path d="M239.636 215.427C241.172 216.217 242.895 216.656 244.616 216.699L244.748 211.305C243.835 211.282 242.921 211.049 242.103 210.629L239.636 215.428V215.427Z" fill="#99E6FF"/>
<path d="M294.197 59.5624C292.255 58.5329 289.845 59.2709 288.816 61.2121C287.786 63.1534 288.524 65.5618 290.466 66.5913C292.408 67.6209 294.817 66.8828 295.847 64.9416C296.877 63.0004 296.139 60.5919 294.197 59.5624Z" fill="#99E6FF"/>
<path opacity="0.3" d="M229.438 27.3984H86.7603V207.134H229.438V27.3984Z" fill="black"/>
<path d="M224.236 23.9453H81.5581V203.681H224.236V23.9453Z" fill="white"/>
<path d="M211.125 187.262H163.887C163.184 187.262 162.614 187.831 162.614 188.534V188.893C162.614 189.596 163.184 190.165 163.887 190.165H211.125C211.828 190.165 212.397 189.596 212.397 188.893V188.534C212.397 187.831 211.828 187.262 211.125 187.262Z" fill="#E4E4E4"/>
<path d="M215.542 182.91H121.881C121.202 182.91 120.651 183.461 120.651 184.14V184.486C120.651 185.166 121.202 185.717 121.881 185.717H215.542C216.222 185.717 216.773 185.166 216.773 184.486V184.14C216.773 183.461 216.222 182.91 215.542 182.91Z" fill="#E4E4E4"/>
<path d="M102.572 158.793H213.626C214.211 158.793 214.687 159.268 214.687 159.854V160.151C214.687 160.736 214.211 161.212 213.626 161.212H102.573C101.988 161.212 101.512 160.736 101.512 160.151V159.854C101.512 159.268 101.988 158.793 102.573 158.793H102.572Z" fill="#E4E4E4"/>
<path d="M102.572 162.809H213.626C214.211 162.809 214.687 163.284 214.687 163.869V164.167C214.687 164.752 214.211 165.227 213.626 165.227H102.573C101.988 165.227 101.512 164.752 101.512 164.167V163.869C101.512 163.284 101.988 162.809 102.573 162.809H102.572Z" fill="#E4E4E4"/>
<path d="M210.729 147.641H105.469C103.712 147.641 102.287 149.065 102.287 150.822V151.716C102.287 153.474 103.712 154.898 105.469 154.898H210.729C212.487 154.898 213.912 153.474 213.912 151.716V150.822C213.912 149.065 212.487 147.641 210.729 147.641Z" fill="#E4E4E4"/>
<path d="M188.926 142.922H127.274C126.508 142.922 125.887 143.542 125.887 144.308V144.826C125.887 145.591 126.508 146.212 127.274 146.212H188.926C189.692 146.212 190.313 145.591 190.313 144.826V144.308C190.313 143.542 189.692 142.922 188.926 142.922Z" fill="#E4E4E4"/>
<path d="M217.993 137.406H91.3506C90.788 137.406 90.332 137.862 90.332 138.424V138.711C90.332 139.273 90.788 139.729 91.3506 139.729H217.993C218.555 139.729 219.011 139.273 219.011 138.711V138.424C219.011 137.862 218.555 137.406 217.993 137.406Z" fill="#E4E4E4"/>
<path d="M119.457 133.34H91.5243C90.8658 133.34 90.332 133.873 90.332 134.532V135.341C90.332 135.999 90.8658 136.533 91.5243 136.533H119.457C120.116 136.533 120.65 135.999 120.65 135.341V134.532C120.65 133.873 120.116 133.34 119.457 133.34Z" fill="#E4E4E4"/>
<path d="M141.55 35.7773H91.5243C90.8658 35.7773 90.332 36.3109 90.332 36.9692V37.7785C90.332 38.4367 90.8658 38.9703 91.5243 38.9703H141.55C142.208 38.9703 142.742 38.4367 142.742 37.7785V36.9692C142.742 36.3109 142.208 35.7773 141.55 35.7773Z" fill="#E4E4E4"/>
<path d="M137.074 39.7031H117.889C117.23 39.7031 116.696 40.2367 116.696 40.8949V41.7043C116.696 42.3625 117.23 42.8961 117.889 42.8961H137.074C137.733 42.8961 138.267 42.3625 138.267 41.7043V40.8949C138.267 40.2367 137.733 39.7031 137.074 39.7031Z" fill="#E4E4E4"/>
<path d="M212.164 39.7031H192.978C192.319 39.7031 191.786 40.2367 191.786 40.8949V41.7043C191.786 42.3625 192.319 42.8961 192.978 42.8961H212.164C212.822 42.8961 213.356 42.3625 213.356 41.7043V40.8949C213.356 40.2367 212.822 39.7031 212.164 39.7031Z" fill="#E4E4E4"/>
<path d="M137.074 43.6328H117.889C117.23 43.6328 116.696 44.1664 116.696 44.8246V45.634C116.696 46.2922 117.23 46.8258 117.889 46.8258H137.074C137.733 46.8258 138.267 46.2922 138.267 45.634V44.8246C138.267 44.1664 137.733 43.6328 137.074 43.6328Z" fill="#E4E4E4"/>
<path d="M209.933 43.6328H199.417C198.758 43.6328 198.225 44.1664 198.225 44.8246V45.634C198.225 46.2922 198.758 46.8258 199.417 46.8258H209.933C210.592 46.8258 211.126 46.2922 211.126 45.634V44.8246C211.126 44.1664 210.592 43.6328 209.933 43.6328Z" fill="#E4E4E4"/>
<path d="M183.631 47.5586H91.5243C90.8658 47.5586 90.332 48.0922 90.332 48.7504V49.5598C90.332 50.218 90.8658 50.7516 91.5243 50.7516H183.631C184.289 50.7516 184.823 50.218 184.823 49.5598V48.7504C184.823 48.0922 184.289 47.5586 183.631 47.5586Z" fill="#E4E4E4"/>
<path d="M205.334 47.5586H195.811C195.152 47.5586 194.619 48.0922 194.619 48.7504V49.5598C194.619 50.218 195.152 50.7516 195.811 50.7516H205.334C205.992 50.7516 206.526 50.218 206.526 49.5598V48.7504C206.526 48.0922 205.992 47.5586 205.334 47.5586Z" fill="#E4E4E4"/>
<path d="M163.439 52.0039H91.5243C90.8658 52.0039 90.332 52.5375 90.332 53.1957V54.0051C90.332 54.6633 90.8658 55.1969 91.5243 55.1969H163.439C164.097 55.1969 164.631 54.6633 164.631 54.0051V53.1957C164.631 52.5375 164.097 52.0039 163.439 52.0039Z" fill="#E4E4E4"/>
<path d="M194.873 58.9297H91.5243C90.8658 58.9297 90.332 59.4633 90.332 60.1215V60.9309C90.332 61.5891 90.8658 62.1227 91.5243 62.1227H194.873C195.532 62.1227 196.065 61.5891 196.065 60.9309V60.1215C196.065 59.4633 195.532 58.9297 194.873 58.9297Z" fill="#E4E4E4"/>
<path d="M201.378 64.8203H91.5243C90.8658 64.8203 90.332 65.3539 90.332 66.0121V66.8215C90.332 67.4797 90.8658 68.0133 91.5243 68.0133H201.378C202.037 68.0133 202.571 67.4797 202.571 66.8215V66.0121C202.571 65.3539 202.037 64.8203 201.378 64.8203Z" fill="#E4E4E4"/>
<path d="M201.378 69.1602H91.5243C90.8658 69.1602 90.332 69.6938 90.332 70.352V71.1613C90.332 71.8196 90.8658 72.3532 91.5243 72.3532H201.378C202.037 72.3532 202.571 71.8196 202.571 71.1613V70.352C202.571 69.6938 202.037 69.1602 201.378 69.1602Z" fill="#E4E4E4"/>
<path d="M164.351 73.4023H91.5243C90.8658 73.4023 90.332 73.9359 90.332 74.5942V75.4035C90.332 76.0617 90.8658 76.5953 91.5243 76.5953H164.351C165.009 76.5953 165.543 76.0617 165.543 75.4035V74.5942C165.543 73.9359 165.009 73.4023 164.351 73.4023Z" fill="#E4E4E4"/>
<path d="M125.116 77.7422H91.5243C90.8658 77.7422 90.332 78.2758 90.332 78.934V79.7434C90.332 80.4016 90.8658 80.9352 91.5243 80.9352H125.116C125.774 80.9352 126.308 80.4016 126.308 79.7434V78.934C126.308 78.2758 125.774 77.7422 125.116 77.7422Z" fill="#E4E4E4"/>
<path d="M194.873 82.082H91.5243C90.8658 82.082 90.332 82.6156 90.332 83.2739V84.0832C90.332 84.7414 90.8658 85.275 91.5243 85.275H194.873C195.532 85.275 196.065 84.7414 196.065 84.0832V83.2739C196.065 82.6156 195.532 82.082 194.873 82.082Z" fill="#E4E4E4"/>
<path d="M214.516 51.4883H199.914C199.256 51.4883 198.722 52.0219 198.722 52.6801V53.4895C198.722 54.1477 199.256 54.6813 199.914 54.6813H214.516C215.175 54.6813 215.709 54.1477 215.709 53.4895V52.6801C215.709 52.0219 215.175 51.4883 214.516 51.4883Z" fill="#E4E4E4"/>
<path d="M188.478 78.6221C187.407 77.699 186.04 77.2463 184.631 77.3507C183.22 77.4551 181.935 78.1011 181.01 79.172L151.997 112.789L139.881 99.9539C138.91 98.9254 137.598 98.3372 136.183 98.2959C134.769 98.2545 133.424 98.7662 132.396 99.7368C131.367 100.707 130.779 102.019 130.738 103.433C130.696 104.846 131.208 106.191 132.179 107.218L152.348 128.584L189.028 86.0862C190.934 83.8762 190.687 80.5282 188.477 78.6221H188.478Z" fill="#04BD7B"/>
<path d="M178.96 101.643C179.499 103.767 179.786 105.99 179.786 108.282C179.786 123.149 167.729 135.202 152.857 135.202C137.984 135.202 125.927 123.149 125.927 108.282C125.927 93.4146 137.984 81.3621 152.857 81.3621C159.492 81.3621 165.565 83.7623 170.259 87.7398L173.55 83.9266C167.973 79.1872 160.749 76.3281 152.857 76.3281C135.202 76.3281 120.89 90.6351 120.89 108.283C120.89 125.931 135.202 140.238 152.857 140.238C170.511 140.238 184.823 125.931 184.823 108.283C184.823 104.37 184.119 100.622 182.832 97.1575L178.96 101.644V101.643Z" fill="#04BD7B"/>
</g>
<defs>
<clipPath id="clip0_2696_28450">
<rect width="296.311" height="265" fill="white"/>
</clipPath>
</defs>
</svg>
