<svg width="458" height="579" viewBox="0 0 458 579" fill="none" xmlns="http://www.w3.org/2000/svg">
<path d="M328.217 578.001H75.0916C68.569 578.001 63.3008 572.733 63.3008 566.211C63.3008 559.688 68.569 554.42 75.0916 554.42H328.217C334.74 554.42 340.008 559.688 340.008 566.211C340.091 572.733 334.823 578.001 328.217 578.001Z" fill="#D7DDF2"/>
<path d="M130.786 222.269H4.43199C2.00694 222.269 0 220.263 0 217.838V120.25H135.218V217.838C135.218 220.263 133.294 222.269 130.786 222.269Z" fill="#DADEF2"/>
<path d="M125.101 128.279H7.94531V212.905H125.101V128.279Z" fill="white"/>
<path d="M130.786 106.619H4.43199C2.00694 106.619 0 108.626 0 111.051V120.333H135.218V111.051C135.218 108.542 133.294 106.619 130.786 106.619Z" fill="#332A75"/>
<path d="M11.7919 113.476C11.7919 114.563 10.9557 115.399 9.86863 115.399C8.78154 115.399 7.94531 114.563 7.94531 113.476C7.94531 112.389 8.78154 111.553 9.86863 111.553C10.9557 111.553 11.7919 112.389 11.7919 113.476Z" fill="#FF1800"/>
<path d="M20.9892 113.476C20.9892 114.563 20.153 115.399 19.0659 115.399C17.9788 115.399 17.1426 114.563 17.1426 113.476C17.1426 112.389 17.9788 111.553 19.0659 111.553C20.153 111.553 20.9892 112.389 20.9892 113.476Z" fill="#FFC900"/>
<path d="M28.2651 115.399C29.3273 115.399 30.1884 114.538 30.1884 113.476C30.1884 112.414 29.3273 111.553 28.2651 111.553C27.2029 111.553 26.3418 112.414 26.3418 113.476C26.3418 114.538 27.2029 115.399 28.2651 115.399Z" fill="#00D694"/>
<path d="M17.1427 138.98H15.2194C14.8013 138.98 14.4668 138.645 14.4668 138.227V135.969C14.4668 135.551 14.8013 135.217 15.2194 135.217H17.1427C17.5608 135.217 17.8953 135.551 17.8953 135.969V138.227C17.9789 138.645 17.5608 138.98 17.1427 138.98Z" fill="#DADEF2"/>
<path d="M17.1427 146.505H15.2194C14.8013 146.505 14.4668 146.171 14.4668 145.753V143.495C14.4668 143.077 14.8013 142.742 15.2194 142.742H17.1427C17.5608 142.742 17.8953 143.077 17.8953 143.495V145.753C17.9789 146.171 17.5608 146.505 17.1427 146.505Z" fill="#DADEF2"/>
<path d="M33.6169 138.981H21.4917C20.4046 138.981 19.5684 138.145 19.5684 137.058C19.5684 135.971 20.4046 135.135 21.4917 135.135H33.6169C34.704 135.135 35.5403 135.971 35.5403 137.058C35.5403 138.145 34.6204 138.981 33.6169 138.981Z" fill="#DADEF2"/>
<path d="M35.7075 146.507H21.4917C20.4046 146.507 19.5684 145.671 19.5684 144.583C19.5684 143.496 20.4046 142.66 21.4917 142.66H35.7075C36.7946 142.66 37.6308 143.496 37.6308 144.583C37.6308 145.671 36.711 146.507 35.7075 146.507Z" fill="#DADEF2"/>
<path d="M78.811 203.517C95.1532 196.748 102.914 178.012 96.1442 161.67C89.3749 145.328 70.6394 137.568 54.2972 144.337C37.955 151.106 30.1946 169.842 36.9639 186.184C43.7332 202.526 62.4688 210.286 78.811 203.517Z" fill="#7499F7"/>
<path d="M66.5645 141.91V173.938H98.5919C98.5083 156.293 84.2088 141.91 66.5645 141.91Z" fill="#6956F2"/>
<path d="M80.4458 202.787C91.1495 197.603 98.5919 186.648 98.5919 173.938H66.5645L80.4458 202.787Z" fill="#56CBF2"/>
<path d="M66.5617 189.907C75.3828 189.907 82.5337 182.756 82.5337 173.935C82.5337 165.114 75.3828 157.963 66.5617 157.963C57.7407 157.963 50.5898 165.114 50.5898 173.935C50.5898 182.756 57.7407 189.907 66.5617 189.907Z" fill="white"/>
<path d="M111.134 137.811H90.0615C87.9709 137.811 86.2148 139.483 86.2148 141.657V152.779C86.2148 154.786 87.72 156.375 89.6434 156.542V160.807C89.6434 161.977 91.2322 162.479 91.9012 161.476L95.4133 156.542H111.134C113.225 156.542 114.981 154.87 114.981 152.695V141.574C114.981 139.567 113.225 137.811 111.134 137.811Z" fill="#FFC900"/>
<path d="M451.813 205.459H278.714C275.369 205.459 272.693 202.783 272.693 199.438V65.8926H457.834V199.438C457.834 202.783 455.158 205.459 451.813 205.459Z" fill="#DADEF2"/>
<path d="M451.813 47.1621H278.714C275.369 47.1621 272.693 49.838 272.693 53.1829V65.8099H457.834V53.1829C457.834 49.9217 455.158 47.1621 451.813 47.1621Z" fill="#332A75"/>
<path d="M288.916 56.6095C288.916 58.0311 287.746 59.2854 286.24 59.2854C284.819 59.2854 283.564 58.1147 283.564 56.6095C283.564 55.1043 284.735 53.9336 286.24 53.9336C287.746 53.9336 288.916 55.1879 288.916 56.6095Z" fill="#FF1800"/>
<path d="M301.461 56.6095C301.461 58.0311 300.29 59.2854 298.785 59.2854C297.28 59.2854 296.109 58.1147 296.109 56.6095C296.109 55.1043 297.28 53.9336 298.785 53.9336C300.29 53.9336 301.461 55.1879 301.461 56.6095Z" fill="#FFC900"/>
<path d="M311.412 59.2854C312.89 59.2854 314.088 58.0874 314.088 56.6095C314.088 55.1316 312.89 53.9336 311.412 53.9336C309.934 53.9336 308.736 55.1316 308.736 56.6095C308.736 58.0874 309.934 59.2854 311.412 59.2854Z" fill="#00D694"/>
<path d="M394.281 75.6777H283.648V189.823H394.281V75.6777Z" fill="white"/>
<path d="M442.699 116.82H404.567C402.392 116.82 400.553 115.063 400.553 112.806V80.0256C400.553 77.8514 402.309 76.0117 404.567 76.0117H442.699C444.873 76.0117 446.712 77.7678 446.712 80.0256V112.806C446.712 115.063 444.873 116.82 442.699 116.82Z" fill="#6956F2"/>
<path d="M446.712 122.006H400.553V189.824H446.712V122.006Z" fill="white"/>
<path d="M290.674 81.4492V178.786H386.672" stroke="#D6E2FF" stroke-width="1.80909" stroke-miterlimit="10"/>
<path d="M310.576 130.199H298.283C297.029 130.199 296.025 131.203 296.025 132.457V178.784H312.834V132.457C312.834 131.203 311.83 130.199 310.576 130.199Z" fill="#FFC900"/>
<path d="M333.656 150.02H321.363C320.109 150.02 319.105 151.023 319.105 152.277V178.786H335.914V152.277C335.914 151.023 334.91 150.02 333.656 150.02Z" fill="#6956F2"/>
<path d="M356.736 106.033H344.443C343.189 106.033 342.186 107.037 342.186 108.291V178.785H358.994V108.291C358.994 107.037 357.99 106.033 356.736 106.033Z" fill="#FF3700"/>
<path d="M379.812 84.377H367.52C366.265 84.377 365.262 85.3804 365.262 86.6348V178.87H382.07V86.5511C382.07 85.3804 381.066 84.377 379.812 84.377Z" fill="#56CBF2"/>
<path d="M302.463 89.5592H299.87C299.285 89.5592 298.783 89.0575 298.783 88.4721V85.3781C298.783 84.7927 299.285 84.291 299.87 84.291H302.463C303.048 84.291 303.55 84.7927 303.55 85.3781V88.4721C303.466 89.0575 303.048 89.5592 302.463 89.5592Z" fill="#DADEF2"/>
<path d="M302.463 99.8424H299.87C299.285 99.8424 298.783 99.3407 298.783 98.7553V95.6613C298.783 95.076 299.285 94.5742 299.87 94.5742H302.463C303.048 94.5742 303.55 95.076 303.55 95.6613V98.7553C303.466 99.4243 303.048 99.8424 302.463 99.8424Z" fill="#DADEF2"/>
<path d="M324.96 89.5615H308.319C306.897 89.5615 305.727 88.3908 305.727 86.9693C305.727 85.5477 306.897 84.377 308.319 84.377H324.96C326.381 84.377 327.552 85.5477 327.552 86.9693C327.552 88.3908 326.381 89.5615 324.96 89.5615Z" fill="#DADEF2"/>
<path d="M333.824 99.8448H308.319C306.897 99.8448 305.727 98.674 305.727 97.2525C305.727 95.8309 306.897 94.6602 308.319 94.6602H333.824C335.245 94.6602 336.416 95.8309 336.416 97.2525C336.416 98.674 335.245 99.8448 333.824 99.8448Z" fill="#DADEF2"/>
<path d="M423.633 162.06C432.039 162.06 438.853 155.246 438.853 146.84C438.853 138.435 432.039 131.621 423.633 131.621C415.228 131.621 408.414 138.435 408.414 146.84C408.414 155.246 415.228 162.06 423.633 162.06Z" stroke="#EBEBEB" stroke-width="6.03044" stroke-miterlimit="10"/>
<path d="M433.333 135.133C436.678 137.892 438.852 142.157 438.852 146.84C438.852 152.108 436.176 156.707 432.162 159.467" stroke="#3D7FEB" stroke-width="6.03044" stroke-miterlimit="10" stroke-linecap="round"/>
<path d="M432.747 90.0596H408.999C407.577 90.0596 406.406 88.8889 406.406 87.4673C406.406 86.0457 407.577 84.875 408.999 84.875H432.747C434.169 84.875 435.34 86.0457 435.34 87.4673C435.34 88.8889 434.169 90.0596 432.747 90.0596Z" fill="#DADEF2"/>
<path d="M423.716 100.431H408.999C407.577 100.431 406.406 99.26 406.406 97.8384C406.406 96.4168 407.577 95.2461 408.999 95.2461H423.716C425.138 95.2461 426.308 96.4168 426.308 97.8384C426.308 99.26 425.138 100.431 423.716 100.431Z" fill="#DADEF2"/>
<path d="M439.188 174.769H407.746C406.993 174.769 406.324 174.184 406.324 173.347C406.324 172.595 406.91 171.926 407.746 171.926H439.188C439.94 171.926 440.609 172.511 440.609 173.347C440.609 174.184 439.94 174.769 439.188 174.769Z" fill="#DADEF2"/>
<path d="M439.188 181.542H407.746C406.993 181.542 406.324 180.957 406.324 180.121C406.324 179.368 406.91 178.699 407.746 178.699H439.188C439.94 178.699 440.609 179.285 440.609 180.121C440.609 180.957 439.94 181.542 439.188 181.542Z" fill="#DADEF2"/>
<path d="M277.041 152.694C272.358 151.524 271.606 154.618 270.77 160.555C269.933 166.576 268.763 176.109 268.512 182.882C279.132 187.481 289.585 192.248 300.288 196.429C303.299 188.067 308.232 175.691 309.236 167.83C310.239 160.053 308.985 157.879 304.72 154.032C300.957 150.604 296.525 148.43 291.592 149.015C285.571 149.768 281.891 163.565 280.553 168.499C279.968 165.238 281.724 153.865 277.041 152.694Z" fill="#FF826E"/>
<path d="M280.551 168.75C286.404 171.76 290.669 176.527 288.328 183.384" stroke="#78284B" stroke-width="0.56094" stroke-miterlimit="10"/>
<path d="M304.803 153.865C302.88 159.719 300.957 165.572 299.033 171.426" stroke="#78284B" stroke-width="0.56094" stroke-miterlimit="10"/>
<path d="M289.836 167.748C292.261 161.727 294.77 155.706 297.195 149.686" stroke="#78284B" stroke-width="0.56094" stroke-miterlimit="10"/>
<path d="M219.257 190.323C230.546 183.968 242.253 194.588 249.194 203.787C250.95 206.128 255.131 211.48 257.305 214.156C260.483 203.285 263.912 192.33 267.591 181.543C282.058 188.066 296.692 194.003 311.242 200.442C304.887 216.915 298.03 238.323 293.179 253.96C288.246 269.681 280.051 284.148 263.243 279.381C246.434 274.615 219.341 236.567 210.644 224.609C201.947 212.651 206.379 209.891 209.055 202.03C211.731 194.17 213.069 193.835 219.257 190.323Z" fill="#00B5F2"/>
<path d="M308.314 207.968C293.68 202.365 279.046 196.595 264.412 190.992L308.314 207.968Z" fill="#0099F2"/>
<path d="M165.488 146.841C161.056 142.242 149.182 146.59 147.259 147.761C143.83 149.768 141.321 153.364 140.736 157.294C140.234 160.304 140.652 163.649 138.813 165.991C136.973 168.332 133.377 168.75 130.534 167.914C127.607 167.078 125.182 165.155 122.59 163.649C119.998 162.144 116.904 160.89 113.977 161.559C110.214 162.311 107.705 165.74 106.116 169.252C101.601 179.036 102.102 190.91 107.371 200.276C112.722 209.642 122.673 216.164 133.377 217.251C144.081 218.338 155.203 213.99 162.311 205.879C167.077 200.443 169.92 192.248 166.157 186.144C165.154 184.471 163.649 182.799 164.15 180.876C164.903 178.283 168.499 178.283 170.84 177.196C175.021 175.189 175.607 169.503 174.77 164.987C173.349 158.214 170.171 151.859 165.488 146.841Z" fill="#332A75"/>
<path d="M258.394 513.109L279.049 542.879L302.38 556.175C304.888 557.596 306.393 560.272 306.393 563.115V564.286H269.014L241.084 538.698L234.144 564.286H230.297L234.812 513.025H258.394V513.109Z" fill="#332A75"/>
<path d="M233.975 523.309L234.894 513.107H258.392L279.047 542.877L299.117 554.333H269.514L233.975 523.309Z" fill="#FF826E"/>
<path d="M149.099 513.109L128.444 542.879L105.113 556.175C102.605 557.596 101.1 560.272 101.1 563.115V564.286H138.479L166.409 538.698L173.349 564.286H177.196L172.681 513.025H149.099V513.109Z" fill="#332A75"/>
<path d="M173.433 523.309L172.597 513.107H149.099L128.444 542.877L108.375 554.333H137.977L173.433 523.309Z" fill="#FF826E"/>
<path d="M242.674 320.522L271.273 527.069L230.549 526.735L193.922 316.926L242.674 320.522Z" fill="#332A75"/>
<path d="M145.922 319.102L133.295 527.322L178.953 526.904C178.953 526.904 195.594 351.213 197.935 352.3C200.277 353.387 199.524 316.092 199.524 316.092L145.922 319.102Z" fill="#332A75"/>
<path d="M238.576 372.286L151.357 371.868L159.971 335.91L238.241 339.171L238.576 372.286Z" fill="#332A75"/>
<path d="M207.463 184.471L173.094 185.558L177.86 178.115L202.696 178.282L207.463 184.471Z" fill="#0099F2"/>
<path d="M239.24 213.067C239.658 215.994 249.944 230.962 250.78 236.565C251.867 244.091 242.334 262.07 242.334 262.07L243.337 306.306L239.156 324.452L205.289 324.034H140.733L150.349 286.906L132.203 209.555C132.203 209.555 137.137 195.005 151.854 190.656C166.572 186.308 180.37 182.545 180.37 182.545L201.777 183.381C201.777 183.381 213.986 185.221 224.272 187.98C232.968 190.238 237.066 196.928 239.24 213.067Z" fill="#8A7BF5"/>
<path d="M211.394 184.97C211.394 184.97 209.973 194.67 191.994 195.674C174.015 196.677 168.496 188.231 166.238 184.97C172.259 183.799 180.12 182.545 180.12 182.545L202.363 183.13C202.363 183.13 206.126 183.799 211.394 184.97Z" fill="#FF826E"/>
<path d="M209.386 111.05C203.951 105.531 195.505 103.607 187.895 105.029C180.285 106.367 170.836 106.618 165.233 111.97C160.718 116.318 159.463 125.6 157.707 131.621C155.951 137.642 156.537 144.582 160.3 149.6C166.571 158.046 179.616 158.715 188.982 153.864C196.09 150.185 201.526 144.164 206.292 137.976C207.463 136.471 208.466 134.966 209.888 133.711C210.808 132.959 211.811 132.29 212.647 131.454C214.822 129.112 214.989 125.098 214.571 122.088C214.153 117.907 212.313 113.976 209.386 111.05Z" fill="#332A75"/>
<path d="M177.943 162.311L200.856 172.512L200.354 186.728C197.595 186.31 194.835 188.986 192.076 188.735C187.393 188.317 182.71 185.139 178.027 185.139L177.943 162.311Z" fill="#FF826E"/>
<path d="M177.943 162.311L200.856 172.512L200.354 186.728C197.595 186.31 194.835 188.986 192.076 188.735C187.393 188.317 182.71 185.139 178.027 185.139L177.943 162.311Z" fill="#FF826E"/>
<path d="M200.856 172.512L200.521 182.798C199.518 183.049 198.431 183.133 197.344 183.133C188.814 183.133 181.874 178.115 178.111 163.23C178.027 162.98 177.943 162.478 177.943 162.311L200.856 172.512Z" fill="#E45341"/>
<path d="M211.479 121.501C214.154 124.846 215.743 128.944 215.994 133.292C216.329 139.313 216.579 148.177 215.576 155.786C213.987 168.413 201.862 174.518 197.263 174.685C191.325 174.852 179.953 171.424 176.023 157.626C172.427 144.916 169.5 134.045 169.5 134.045L169.834 132.038C171.256 122.923 178.531 115.815 187.646 114.644L192.831 113.975C199.939 113.055 207.047 115.899 211.479 121.501Z" fill="#FF826E"/>
<path d="M179.7 158.63C179.7 158.63 179.282 162.309 173.344 160.469C167.407 158.63 163.143 144.079 170.083 143.159C176.94 142.156 175.77 146.337 175.77 146.337L179.7 158.63Z" fill="#FF826E"/>
<path d="M201.025 144.748C200.857 147.508 202.195 150.016 204.369 151.605C204.704 151.856 205.122 152.19 205.457 152.692C207.714 155.619 203.115 159.549 199.938 156.288" stroke="#78284B" stroke-width="0.786972" stroke-miterlimit="10"/>
<path d="M202.027 164.231C202.027 164.231 195.086 165.987 190.654 159.297" stroke="#78284B" stroke-width="0.786972" stroke-miterlimit="10"/>
<path d="M189.315 149.514C190.053 149.514 190.652 148.316 190.652 146.838C190.652 145.36 190.053 144.162 189.315 144.162C188.576 144.162 187.977 145.36 187.977 146.838C187.977 148.316 188.576 149.514 189.315 149.514Z" fill="black"/>
<path d="M209.971 150.1C210.71 150.1 211.309 148.902 211.309 147.424C211.309 145.946 210.71 144.748 209.971 144.748C209.232 144.748 208.633 145.946 208.633 147.424C208.633 148.902 209.232 150.1 209.971 150.1Z" fill="black"/>
<path d="M213.317 141.07C213.317 141.07 211.812 136.973 207.213 138.645" stroke="#78284B" stroke-width="0.786972" stroke-miterlimit="10"/>
<path d="M191.991 138.227C191.991 138.227 188.228 136.053 185.803 140.234" stroke="#78284B" stroke-width="0.777857" stroke-miterlimit="10"/>
<path d="M178.95 145.672C177.863 148.264 176.107 151.191 173.347 151.191C171.758 151.191 170.253 150.104 169.417 148.766C168.581 147.428 168.163 145.839 167.912 144.25C166.574 137.226 166.49 129.7 169.501 123.177C170.922 120.083 173.096 117.407 175.772 115.317C178.114 113.561 181.626 111.554 184.636 111.972C185.891 112.139 186.894 112.892 187.061 114.146C187.312 115.986 186.643 118.16 186.309 120C185.64 124.097 184.72 128.195 183.633 132.209C182.462 136.222 181.124 140.236 179.619 144.167C179.368 144.668 179.117 145.17 178.95 145.672Z" fill="#332A75"/>
<path d="M181.624 120.499C188.732 127.523 197.847 132.457 207.631 134.631C212.146 135.634 216.913 136.053 221.261 134.631C230.209 131.704 235.477 121.251 233.972 111.969C232.467 102.687 225.526 94.8267 217.164 90.4783C210.307 86.9661 202.279 85.3773 194.753 87.3006C187.31 89.2239 180.621 94.9103 178.53 102.269C176.44 109.628 174.851 116.819 181.624 120.499Z" fill="#332A75"/>
<path d="M188.399 259.479L184.72 374.041L120.832 370.529L146.504 280.301L129.529 208.887C129.529 208.887 136.386 197.682 140.734 194.42C145.083 191.075 167.493 185.473 169.333 185.473L188.399 259.479Z" fill="#00B5F2"/>
<path d="M178.114 178.029L173.264 188.649L188.4 259.478L161.724 222.182L171.341 211.395L155.369 203.367C155.369 203.283 159.132 182.963 178.114 178.029Z" fill="#79D3F2"/>
<path d="M208.803 258.725L214.155 372.368L258.558 366.765L244.175 306.306L243.255 261.819C243.255 261.819 251.367 243.673 251.952 236.565C252.537 229.457 240.161 213.067 240.161 213.067C240.161 213.067 239.743 198.099 232.05 190.573C226.782 185.388 213.569 185.555 213.569 185.555L208.803 258.725Z" fill="#00B5F2"/>
<path d="M200.689 178.281L207.463 184.469C207.463 184.469 211.226 228.789 208.801 258.643L221.261 218.504L214.153 211.396L227.616 195.842C227.7 195.842 212.898 177.361 200.689 178.281Z" fill="#79D3F2"/>
<path d="M257.972 366.514L259.142 366.347L244.759 306.306L243.839 261.986C244.592 260.23 251.951 243.589 252.536 236.648C253.205 229.373 241.08 213.401 240.578 212.732L239.658 213.485C239.742 213.652 251.951 229.708 251.365 236.565C250.78 243.506 242.752 261.484 242.669 261.652L242.585 261.735L243.505 306.39L257.972 366.514Z" fill="#0099F2"/>
<path d="M182.128 267.173C183.93 267.173 185.39 265.713 185.39 263.912C185.39 262.111 183.93 260.65 182.128 260.65C180.327 260.65 178.867 262.111 178.867 263.912C178.867 265.713 180.327 267.173 182.128 267.173Z" fill="#79D3F2"/>
<path d="M179.871 311.409C181.672 311.409 183.132 309.949 183.132 308.148C183.132 306.347 181.672 304.887 179.871 304.887C178.07 304.887 176.609 306.347 176.609 308.148C176.609 309.949 178.07 311.409 179.871 311.409Z" fill="#C2D1FC"/>
<path d="M177.615 357.235C179.416 357.235 180.876 355.775 180.876 353.974C180.876 352.173 179.416 350.713 177.615 350.713C175.814 350.713 174.354 352.173 174.354 353.974C174.354 355.775 175.814 357.235 177.615 357.235Z" fill="#79D3F2"/>
<path d="M220.565 240.986L246.488 240.986L246.488 236.22L220.565 236.22L220.565 240.986Z" fill="#79D3F2"/>
<path d="M219.628 334.553L245.551 334.553L245.551 329.786L219.628 329.786L219.628 334.553Z" fill="#79D3F2"/>
<path d="M158.381 206.63C167.579 228.456 151.106 237.236 139.399 250.114C132.123 258.058 127.357 260.818 120.5 267.758C106.702 265.417 103.775 257.807 90.1449 253.96C88.6397 253.626 82.7025 261.236 81.1973 260.901C83.7896 250.616 93.9915 235.814 103.859 224.442C114.312 212.316 134.883 198.602 138.813 197.348C151.858 192.916 155.287 199.271 158.381 206.63Z" fill="#00B5F2"/>
<path d="M146.003 371.534L94.4915 322.364C93.6553 321.527 93.6553 320.189 94.4079 319.353L159.383 251.285C160.219 250.448 161.557 250.448 162.393 251.201L213.905 300.371C214.741 301.207 214.741 302.545 213.988 303.381L149.013 371.45C148.261 372.37 146.923 372.37 146.003 371.534Z" fill="#356996"/>
<path d="M99.6718 320.806L147.4 366.357L208.771 302.054L161.042 256.503L99.6718 320.806Z" fill="white"/>
<path d="M190.323 282.723C195.404 282.723 199.522 278.605 199.522 273.525C199.522 268.444 195.404 264.326 190.323 264.326C185.243 264.326 181.125 268.444 181.125 273.525C181.125 278.605 185.243 282.723 190.323 282.723Z" fill="#244766"/>
<path d="M190.324 277.623C192.587 277.623 194.422 275.788 194.422 273.525C194.422 271.262 192.587 269.428 190.324 269.428C188.061 269.428 186.227 271.262 186.227 273.525C186.227 275.788 188.061 277.623 190.324 277.623Z" fill="#142738"/>
<path d="M191.746 294.266L169.586 273.109C167.495 271.186 166.826 268.092 167.914 265.499L170.255 259.311C170.924 257.555 173.182 257.054 174.52 258.392L206.296 288.663C207.634 289.917 207.216 292.175 205.544 292.928L199.523 295.604C196.847 296.774 193.753 296.273 191.746 294.266Z" fill="#244766"/>
<path d="M148.179 283.311C147.929 283.06 147.845 282.809 147.761 282.475L147.678 277.875C147.678 277.206 148.179 276.621 148.848 276.621C149.517 276.621 150.103 277.123 150.103 277.792L150.186 280.969L157.294 279.799C157.963 279.715 158.632 280.133 158.716 280.802C158.8 281.471 158.381 282.14 157.712 282.224L149.183 283.562C148.848 283.645 148.514 283.562 148.179 283.311C148.263 283.311 148.179 283.311 148.179 283.311Z" fill="#DADEF2"/>
<path d="M186.142 315.171L159.215 289.499C158.63 288.914 158.547 287.91 159.132 287.325C159.717 286.74 160.721 286.656 161.306 287.241L188.233 312.913C188.818 313.499 188.901 314.502 188.316 315.088C187.731 315.757 186.727 315.757 186.142 315.171Z" fill="#DADEF2"/>
<path d="M136.806 295.184C136.556 294.933 136.472 294.682 136.388 294.348L136.305 289.748C136.305 289.079 136.806 288.494 137.475 288.494C138.144 288.494 138.73 288.996 138.73 289.665L138.813 292.843L145.921 291.672C146.59 291.588 147.259 292.006 147.343 292.675C147.426 293.344 147.008 294.013 146.339 294.097L137.81 295.435C137.475 295.602 137.141 295.518 136.806 295.184C136.806 295.268 136.806 295.268 136.806 295.184Z" fill="#DADEF2"/>
<path d="M174.771 327.13L147.844 301.458C147.259 300.873 147.175 299.869 147.761 299.284C148.346 298.698 149.35 298.615 149.935 299.2L176.861 324.872C177.447 325.458 177.53 326.461 176.945 327.047C176.36 327.632 175.356 327.716 174.771 327.13Z" fill="#DADEF2"/>
<path d="M125.431 307.145C125.181 306.894 125.097 306.643 125.013 306.309L124.93 301.709C124.93 301.04 125.431 300.455 126.1 300.455C126.769 300.455 127.355 300.957 127.355 301.626L127.438 304.803L134.546 303.633C135.215 303.549 135.884 303.967 135.968 304.636C136.051 305.305 135.633 305.974 134.964 306.058L126.435 307.396C126.1 307.563 125.766 307.396 125.431 307.145Z" fill="#DADEF2"/>
<path d="M163.314 339.005L136.387 313.333C135.802 312.748 135.718 311.744 136.304 311.159C136.889 310.573 137.893 310.49 138.478 311.075L165.404 336.747C165.99 337.333 166.073 338.336 165.488 338.922C164.986 339.59 163.983 339.59 163.314 339.005Z" fill="#DADEF2"/>
<path d="M114.06 319.1C113.809 318.849 113.726 318.598 113.642 318.264L113.559 313.664C113.559 312.996 114.06 312.41 114.729 312.41C115.398 312.41 115.984 312.912 115.984 313.581L116.067 316.759L123.175 315.588C123.844 315.504 124.513 315.922 124.597 316.591C124.68 317.26 124.262 317.929 123.593 318.013L115.064 319.351C114.729 319.434 114.395 319.351 114.06 319.1Z" fill="#DADEF2"/>
<path d="M151.941 350.96L125.014 325.288C124.429 324.703 124.345 323.699 124.931 323.114C125.516 322.529 126.52 322.445 127.105 323.03L154.031 348.702C154.617 349.288 154.7 350.291 154.115 350.877C153.613 351.546 152.61 351.546 151.941 350.96Z" fill="#DADEF2"/>
<path d="M171.257 321.107C176.024 317.595 173.264 315.086 168.832 311.239C164.4 307.393 157.292 301.706 151.857 297.943C140.568 303.546 129.279 309.149 118.324 315.17C122.923 323.281 130.031 333.567 136.638 339.337C143.16 345.106 144.665 344.939 151.522 343.601C157.627 342.431 161.808 340.006 164.735 334.988C168.33 328.8 159.299 319.518 155.62 315.337C159.801 316.926 166.491 324.535 171.257 321.107Z" fill="#FF826E"/>
<path d="M151.86 343.938C148.181 338.92 144.501 333.986 140.738 329.053" stroke="#78284B" stroke-width="0.619141" stroke-miterlimit="10"/>
<path d="M150.102 323.283C153.697 328.719 157.293 334.154 160.638 339.757" stroke="#78284B" stroke-width="0.619141" stroke-miterlimit="10"/>
<path d="M127.19 258.141C138.646 272.441 142.326 282.392 152.862 297.444C138.646 305.221 125.267 314.336 111.553 322.782C102.438 305.472 97.6713 293.848 86.9676 277.374C83.9572 272.775 82.2011 268.594 81.2812 264.58C81.783 250.783 90.5634 246.518 92.0686 246.1C116.904 236.483 123.929 254.378 127.19 258.141Z" fill="#00B5F2"/>
<path d="M107.54 315.504C119.833 307.142 132.878 298.612 147.344 289.498L146.675 288.494C132.209 297.693 119.164 306.222 106.871 314.584L107.54 315.504Z" fill="#0099F2"/>
<path d="M143.108 240.246L169.031 240.246L169.031 235.48L143.108 235.48L143.108 240.246Z" fill="#79D3F2"/>
<path d="M300.621 306.562V373.21H367.268C367.185 336.416 337.415 306.562 300.621 306.562Z" fill="#7499F7"/>
<path d="M18.648 388.426C17.7281 415.101 31.7767 441.275 57.0307 454.488L90.3961 390.934L18.648 388.426Z" fill="#A5DFF2"/>
<path d="M391.353 288.496H338.922V340.927H391.353V288.496Z" fill="#D7DDF2"/>
<path d="M156.875 0H138.479V36.8775H156.875V0Z" fill="#A5DFF2"/>
<path d="M37.6311 527.325C51.8094 527.325 63.3032 515.831 63.3032 501.653C63.3032 487.474 51.8094 475.98 37.6311 475.98C23.4528 475.98 11.959 487.474 11.959 501.653C11.959 515.831 23.4528 527.325 37.6311 527.325Z" fill="#D7DDF2"/>
<path d="M112.138 69.4061C119.25 69.4061 125.016 63.6405 125.016 56.5283C125.016 49.416 119.25 43.6504 112.138 43.6504C105.025 43.6504 99.2598 49.416 99.2598 56.5283C99.2598 63.6405 105.025 69.4061 112.138 69.4061Z" fill="#D7DDF2"/>
<path d="M102.438 52.178C96.2498 52.178 91.1488 47.1607 91.1488 40.889C91.1488 34.6173 96.1661 29.6 102.438 29.6V18.3945C89.9781 18.3945 79.9434 28.4292 79.9434 40.889C79.9434 53.3488 89.9781 63.3835 102.438 63.3835C105.95 63.3835 109.211 62.5472 112.222 61.1256L107.288 51.0073C105.783 51.7599 104.194 52.178 102.438 52.178Z" fill="#7499F7"/>
<path d="M48.2508 395.033H64.2227C64.2227 377.389 49.9233 363.006 32.1953 363.006V378.978C41.0593 378.978 48.2508 386.169 48.2508 395.033Z" fill="#7499F7"/>
<path d="M332.235 268.262C332.318 268.095 332.486 268.011 332.569 267.844C332.987 267.342 333.406 266.841 333.824 266.339C333.824 266.255 333.907 266.255 333.907 266.172C334.242 265.67 334.576 265.168 334.911 264.667C334.994 264.499 335.078 264.332 335.162 264.248C335.496 263.747 335.747 263.245 336.081 262.743C336.081 262.66 336.165 262.66 336.165 262.576C336.5 261.991 336.75 261.405 337.085 260.82C337.169 260.653 337.252 260.485 337.336 260.318C337.587 259.816 337.754 259.315 338.005 258.813C338.088 258.646 338.088 258.562 338.172 258.395C338.423 257.81 338.59 257.141 338.841 256.472C338.925 256.304 338.925 256.137 339.008 256.053C339.175 255.552 339.259 254.966 339.426 254.465C339.426 254.297 339.51 254.13 339.51 253.963C339.677 253.294 339.761 252.625 339.844 251.956C339.844 251.872 339.844 251.705 339.928 251.621C340.012 251.036 340.095 250.451 340.095 249.865C340.095 249.698 340.095 249.531 340.179 249.28C340.263 248.611 340.263 247.858 340.263 247.189H324.291C324.291 253.545 320.611 258.98 315.176 261.573L322.116 276.039C322.702 275.788 323.287 275.454 323.873 275.119C324.04 275.036 324.207 274.952 324.374 274.869C324.876 274.618 325.378 274.283 325.796 273.949C325.879 273.865 325.963 273.865 326.047 273.781C326.548 273.447 327.134 273.029 327.636 272.611C327.803 272.527 327.886 272.443 328.054 272.276C328.472 271.942 328.89 271.607 329.308 271.273C329.392 271.189 329.559 271.105 329.642 270.938C330.144 270.52 330.562 270.018 331.064 269.6C331.148 269.517 331.231 269.433 331.315 269.349C331.482 269.099 331.817 268.68 332.235 268.262Z" fill="#A5DFF2"/>
<path d="M175.722 160.662L171.879 156.818L168.035 160.662L171.879 164.505L175.722 160.662Z" fill="#79D3F2"/>
</svg>
