<svg width="27" height="27" viewBox="0 0 27 27" fill="none" xmlns="http://www.w3.org/2000/svg">
<path fill-rule="evenodd" clip-rule="evenodd" d="M13.25 0C20.5676 0 26.5 5.93241 26.5 13.25C26.5 20.568 20.5676 26.5 13.25 26.5C5.93241 26.5 0 20.568 0 13.25C0 5.93241 5.93241 0 13.25 0Z" fill="#99E6FF"/>
<path fill-rule="evenodd" clip-rule="evenodd" d="M4.86132 10.3816C4.86132 10.852 5.17907 11.2807 5.54586 11.366C5.54586 14.3435 5.25923 16.3898 7.06209 18.7945L7.82314 19.7027C8.17456 20.0541 8.98173 20.6753 9.42723 20.9235C10.4496 21.4923 11.6364 21.9375 12.907 21.9375V21.2101C11.5226 21.2101 10.1685 20.6577 9.16512 19.9018C8.99417 19.7729 8.86642 19.6763 8.70608 19.5474C8.02813 19.0016 7.33737 18.0257 6.92921 17.2156C6.60781 16.5779 6.27286 15.5123 6.27286 14.5763V11.4948H8.41286C9.10729 11.4948 10.4255 10.3249 10.8523 10.211V17.8292C10.8523 18.3204 10.7967 18.6425 11.0346 18.9306C11.5702 19.5797 12.3846 19.4797 12.7884 18.8237C12.9945 18.4888 12.9063 16.5578 12.9063 16.0314C12.9063 15.5709 12.776 14.8758 13.2485 14.8758C13.6831 14.8758 13.5908 15.3831 13.5908 15.8173V22.2369C13.5908 22.7425 13.5308 23.0342 13.7358 23.3761C14.2296 24.2005 15.5335 23.9248 15.6415 23.0035L15.6455 10.2107L17.3759 11.262C17.5908 11.3927 17.7577 11.4944 18.085 11.4944H20.225C20.225 14.1305 20.4783 15.9813 19.0353 18.137C18.3398 19.1763 17.4564 19.9289 16.3301 20.5252V21.2958C16.766 21.0652 16.9436 21.034 17.4949 20.6628C17.6827 20.5362 17.828 20.4172 18.0118 20.281C18.3416 20.0365 18.6915 19.6928 18.9536 19.3827C19.1034 19.2059 19.2234 19.0796 19.3629 18.8933C19.756 18.3676 19.7835 18.2618 20.0789 17.7688C20.2261 17.5235 20.5024 16.7672 20.5943 16.4868C21.0947 14.9644 20.9523 13.052 20.9523 11.3667C21.1658 11.2536 21.2833 11.1847 21.4308 10.9893C21.9103 10.3531 21.5454 9.23437 20.4406 9.22522C19.9416 9.22119 18.5155 9.33175 18.1966 9.15787L15.7136 7.61821C15.5961 7.54023 15.4687 7.42969 15.3029 7.42969H11.1942C11.0335 7.42969 10.9079 7.53401 10.8087 7.60064L8.66691 8.92541C8.53696 9.00339 8.43154 9.08612 8.30012 9.15787C7.9703 9.33797 6.56718 9.21315 6.05652 9.22559C5.40712 9.24097 4.85986 9.726 4.85986 10.3827L4.86132 10.3816Z" fill="#00004D"/>
<path fill-rule="evenodd" clip-rule="evenodd" d="M11.1102 4.73194C11.1102 5.58377 11.6202 6.31149 12.2794 6.64424C12.8779 6.94624 13.6064 6.95796 14.2038 6.67023C14.3426 6.60324 14.7108 6.3415 14.7979 6.23718C15.3357 5.59291 15.604 4.73998 15.205 3.88962C14.8785 3.19374 14.1906 2.63477 13.3784 2.63477C12.6407 2.63477 12.2476 2.76398 11.7194 3.28708C11.4097 3.59384 11.1099 4.13489 11.1099 4.73194H11.1102Z" fill="#00004D"/>
</svg>
