<svg width="12" height="12" viewBox="0 0 12 12" fill="none" xmlns="http://www.w3.org/2000/svg">
<path d="M1.11359 9.01758C0.503688 9.01758 0.0114746 9.51101 0.0114746 10.1197V11.6225C0.0287313 12.0873 0.695873 12.087 0.712966 11.6225V11.2218H1.51423V11.6225C1.53149 12.0873 2.19863 12.087 2.21572 11.6225V10.1197C2.21572 9.50977 1.7222 9.01758 1.11359 9.01758ZM1.51423 10.5203H0.712966V10.1197C0.73235 9.5885 1.49518 9.5892 1.51423 10.1197V10.5203Z" fill="black"/>
<path d="M3.94607 11.2714H3.54542V9.36806C3.52817 8.90318 2.86103 8.90353 2.84393 9.36806V11.6222C2.84393 11.8159 3.00097 11.9729 3.19468 11.9729H3.94607C4.41092 11.9557 4.41057 11.2885 3.94607 11.2714Z" fill="black"/>
<path d="M5.82479 11.2714H5.42415V9.36806C5.40689 8.90318 4.73975 8.90353 4.72266 9.36806V11.6222C4.72266 11.8159 4.8797 11.9729 5.0734 11.9729H5.82479C6.28965 11.9557 6.2893 11.2885 5.82479 11.2714Z" fill="black"/>
<path d="M10.4711 9.9648C14.0183 5.66901 10.9228 0.0760432 5.99758 0.000913543C1.94511 -0.0716674 -1.0564 4.19415 0.352799 7.98267C0.402371 8.12273 0.534836 8.21636 0.683435 8.21636H2.31616C2.43829 8.21636 2.55162 8.15282 2.61537 8.04863C2.67911 7.94446 2.68404 7.81461 2.62844 7.70588C1.33182 5.24631 3.21458 2.1706 5.99756 2.20528C9.16542 2.17932 10.9515 5.9898 8.90837 8.40199L8.26863 7.76209C8.17754 7.67095 8.04378 7.63713 7.92027 7.67399C7.79679 7.71084 7.70347 7.81246 7.67721 7.93866L6.92582 11.5512C6.8707 11.837 7.1405 12.0165 7.34063 11.966L10.9529 11.2146C11.079 11.1883 11.1806 11.095 11.2175 10.9715C11.2544 10.848 11.2206 10.7143 11.1294 10.6231L10.4711 9.9648Z" fill="black"/>
</svg>
