<svg width="100" height="100" viewBox="0 0 100 100" fill="none" xmlns="http://www.w3.org/2000/svg">
<path fill-rule="evenodd" clip-rule="evenodd" d="M100.001 48.0046V52.1943C99.8646 55.5373 99.3977 58.8623 98.5965 62.0712C98.4846 62.5216 98.37 62.9028 98.2554 63.2924C97.9211 64.432 97.6102 65.7043 97.171 66.7983C95.3033 71.455 94.8336 72.6278 92.0598 77.1173C91.6413 77.7956 91.2738 78.2915 90.8415 78.9256L88.8287 81.6013C88.6782 81.7933 88.6036 81.8458 88.464 82.0185L86.6918 84.0547C86.2691 84.5589 85.664 85.0907 85.1819 85.5728C83.5339 87.2208 81.9785 88.4378 80.2061 89.8744C79.3566 90.5624 78.3979 91.1356 77.5263 91.7835C77.221 92.0114 76.9143 92.1938 76.5828 92.4024L72.6582 94.6292C70.5654 95.6694 68.4478 96.6018 66.2016 97.3519C60.8474 99.1408 55.9034 100 49.806 100C44.9297 100 38.3418 99.0745 33.7321 97.3229C29.791 95.8269 26.9205 94.5684 23.2612 92.2656C20.5758 90.5748 18.4208 88.7914 16.0324 86.7014C16.0172 86.6889 15.9951 86.6696 15.9799 86.6572L13.1591 83.8143C13.0058 83.6541 12.9132 83.5836 12.7778 83.4137C11.7432 82.1193 10.598 80.8816 9.62688 79.5334C7.16249 76.1186 5.10012 72.469 3.52949 68.5403L2.30694 65.0758C0.628558 60.0876 0 55.232 0 49.5117C0 44.4226 0.762569 39.5477 2.35807 34.7792C3.73531 30.6599 4.28093 29.6833 6.05463 26.0737C6.67073 24.8208 8.21653 22.3771 9.0122 21.3162C9.90596 20.1254 10.7154 18.878 11.7446 17.7978C12.5112 16.9924 13.1508 16.0918 13.9396 15.3058L17.1154 12.3289C17.9207 11.5622 18.8076 10.9033 19.6848 10.2112C22.8675 7.70399 26.6608 5.52276 30.4126 3.9466C30.8188 3.77669 31.1766 3.67448 31.5426 3.51424C32.6671 3.02109 33.8344 2.67437 34.9989 2.28344C36.1565 1.89527 37.4052 1.53056 38.6001 1.29434L43.819 0.360523C45.5305 0.113255 47.6054 0 49.6112 0C58.7256 0 65.9944 1.93393 73.7316 5.95791L76.6435 7.63631C76.9903 7.8601 77.2416 8.01067 77.5828 8.25932L79.3842 9.48598C81.1109 10.79 82.4288 11.949 84.0561 13.3096C84.2136 13.4409 84.3061 13.55 84.4511 13.6964C87.4308 16.7037 90.1756 19.8036 92.4176 23.4048L94.3722 26.8224C95.0491 28.19 95.8227 29.57 96.3297 31.0177L98.8728 39.2162C99.5041 42.084 99.8826 45.036 100.004 48.0032L100.001 48.0046Z" fill="#99E6FF"/>
<path fill-rule="evenodd" clip-rule="evenodd" d="M44.0442 84.7719C44.0442 83.2095 46.5183 83.2095 46.5183 84.7719C46.5183 86.3342 44.0442 86.3342 44.0442 84.7719ZM26.7229 84.7719C26.7229 83.2095 29.197 83.2095 29.197 84.7719C29.197 86.3342 26.7229 86.3342 26.7229 84.7719ZM45.5899 72.8643C45.5899 76.0774 47.8789 76.4145 50.23 77.6577C49.9399 78.2628 49.9897 79.2049 48.9536 80.0931C48.3182 80.6374 47.3388 81.0614 46.2102 81.0614H27.0337C24.6674 81.0614 23.0125 79.4066 23.0125 77.0402V45.4921C23.0125 40.5744 28.2508 41.4709 31.6725 41.4709V47.6567H34.1465V41.4709H39.0961V47.6567H41.5701V41.4709C44.9365 41.4709 50.23 40.5882 50.23 45.4921V62.1945C50.23 62.8617 48.2533 66.5721 47.8568 67.3981C47.6275 67.8747 47.5059 68.2615 47.2945 68.6911C46.7489 69.8004 45.5913 71.7564 45.5913 72.8643H45.5899ZM70.0253 84.3091L67.2929 83.0203C66.7901 82.7689 66.4558 82.5989 65.9543 82.3475C65.4128 82.0768 64.9543 81.9262 64.4556 81.6817L50.6942 75.0289C47.6427 73.5025 47.2476 74.2927 50.3322 68.1717C53.1116 62.6586 55.7874 56.6454 58.5308 51.1613C58.9825 50.2579 59.7505 48.9262 59.9729 47.9648C60.4288 48.0864 62.0533 49.005 62.6542 49.3047L80.7186 57.995C81.2795 58.223 81.6994 58.5089 82.2436 58.6346C82.1083 59.2148 81.7947 59.6914 81.5226 60.2329C78.2017 66.8152 74.8919 74.3175 71.5214 81.0076L70.0281 84.3077L70.0253 84.3091ZM61.5201 45.1827C61.5201 44.5458 62.121 43.9449 62.7578 43.9449L73.5837 49.0478C75.3588 49.9443 77.2154 50.787 78.996 51.6779C80.7849 52.5731 82.6526 53.3771 84.4097 54.3067L83.4275 56.2918C82.7023 56.2628 67.8745 48.9815 66.6754 48.3792C65.7002 47.8888 64.7719 47.5048 63.8408 47.0393C63.1377 46.687 61.5201 46.1317 61.5201 45.184V45.1827ZM34.2294 36.071C34.2294 32.1286 39.1775 32.2556 39.1775 36.071L39.0961 38.9968H34.1465L34.2294 36.071ZM31.7554 35.2975L31.6725 38.9968H26.2602C23.4077 38.9968 20.5371 41.866 20.5371 44.7199V77.8152C20.5371 80.5379 22.5097 82.1445 24.5583 83.2275C23.6811 85.0564 24.4478 88.4864 28.2701 88.4864C29.9706 88.4864 31.6725 86.7859 31.6725 85.084L31.5177 83.5369H41.7248C41.0852 86.2803 42.4874 88.4864 45.5913 88.4864C48.1193 88.4864 49.7437 85.4349 48.6842 83.2275C50.3419 82.3503 52.3698 80.9192 52.5508 78.7435C53.2566 79.1165 53.9998 79.4673 54.7154 79.8265C55.4461 80.1925 56.1631 80.4688 56.9339 80.8556C58.4659 81.6278 59.8762 82.2508 61.4179 83.023L68.0817 86.2568C70.9122 87.4241 70.9508 88.0389 72.1927 85.5482C72.5353 84.8617 72.8834 84.2221 73.2246 83.4872C74.8795 79.9163 78.1603 73.6103 79.329 70.7232C80.2614 68.419 87.3493 54.7612 87.3493 53.5346C87.3493 52.8977 86.823 52.5455 86.2704 52.294L72.4524 45.6993C71.2589 45.1025 64.1406 41.4723 63.07 41.4723C59.7851 41.4723 59.5199 43.3247 57.9672 46.4218L52.9072 56.9811C52.7248 57.2643 52.845 57.0916 52.7096 57.2477C52.7096 53.2804 52.6862 49.3047 52.711 45.3374C52.7345 41.6767 49.8529 38.9982 46.9865 38.9982H41.5743L41.6557 35.1441C41.6557 32.9436 39.6168 30.6602 36.3982 30.6602C34.0111 30.6602 31.7581 32.9132 31.7581 35.2989L31.7554 35.2975Z" fill="#00004D"/>
<path fill-rule="evenodd" clip-rule="evenodd" d="M42.8086 78.5874H45.2827V50.1309H42.8086V78.5874Z" fill="#00004D"/>
<path fill-rule="evenodd" clip-rule="evenodd" d="M35.3828 78.5874H37.8583V50.1309H35.3828V78.5874Z" fill="#00004D"/>
<path fill-rule="evenodd" clip-rule="evenodd" d="M27.9609 78.5874H30.435V50.1309H27.9609V78.5874Z" fill="#00004D"/>
<path fill-rule="evenodd" clip-rule="evenodd" d="M54.252 74.1005L65.5416 79.3592C65.7722 78.9227 66.4242 77.5759 66.4698 77.0386L55.3349 71.7812C54.9357 72.5341 54.647 73.3546 54.252 74.1005Z" fill="#00004D"/>
<path fill-rule="evenodd" clip-rule="evenodd" d="M78.3963 18.6299L71.3557 30.885C70.8183 31.8202 71.8723 32.2691 72.3834 32.5634C72.7646 32.7816 73.3462 32.6752 73.5464 32.3258L80.7432 19.7985C80.9435 19.449 80.7432 18.8923 80.3633 18.6741C79.8509 18.3799 78.9336 17.6961 78.3963 18.6312V18.6299Z" fill="#00004D"/>
<path fill-rule="evenodd" clip-rule="evenodd" d="M66.9475 11.8691L59.7509 24.3964C59.5506 24.7459 59.7509 25.3026 60.1307 25.5208C60.6432 25.8151 61.5604 26.4988 62.0977 25.5636L69.1384 13.3085C69.6757 12.3733 68.6218 11.9258 68.1107 11.6316C67.7294 11.4119 67.1478 11.5197 66.9475 11.8691Z" fill="#00004D"/>
<path fill-rule="evenodd" clip-rule="evenodd" d="M65.4961 21.1158L73.4843 25.706L74.9969 23.0732L67.0087 18.4844L65.4961 21.1158Z" fill="#00004D"/>
<path fill-rule="evenodd" clip-rule="evenodd" d="M62.6058 13.1183L58.6428 20.0166C58.0654 21.0209 59.3763 21.525 60.125 21.9546C60.23 22.0154 60.2797 22.0016 60.3405 21.8966L65.0853 13.6363C65.2234 13.3959 64.6488 13.2053 63.983 12.8227C63.4595 12.5229 62.8987 12.6099 62.6058 13.1183Z" fill="#00004D"/>
<path fill-rule="evenodd" clip-rule="evenodd" d="M80.1542 22.2927L75.4094 30.5531C75.2712 30.7934 75.8459 30.9854 76.5117 31.3667C77.0352 31.6678 77.596 31.5794 77.8889 31.0711L81.8519 24.1727C82.4293 23.1685 81.1184 22.6643 80.3697 22.2347C80.2648 22.1753 80.215 22.1877 80.1542 22.2927Z" fill="#00004D"/>
<path fill-rule="evenodd" clip-rule="evenodd" d="M57.8711 16.7363L59.2331 17.5182L60.7456 14.8868L59.3836 14.1035L57.8711 16.7363Z" fill="#00004D"/>
<path fill-rule="evenodd" clip-rule="evenodd" d="M79.748 29.3067L81.11 30.0885L82.6226 27.4557L81.2606 26.6738L79.748 29.3067Z" fill="#00004D"/>
<path fill-rule="evenodd" clip-rule="evenodd" d="M62.9952 72.2642C60.9688 71.3236 59.3982 69.8994 58.4533 67.8771C57.858 66.6022 57.608 65.5372 57.5748 64.084C57.4878 60.2992 59.9673 56.8486 63.5629 55.5211C63.7121 55.4659 63.7604 55.4465 63.9207 55.4106C64.2964 55.325 64.505 55.2172 65.0768 55.1302C65.3614 55.0874 65.5935 55.0584 65.8698 55.0335C67.2898 54.9037 68.9833 55.2173 70.308 55.8319C72.4532 56.8279 74.1259 58.6706 74.9285 60.8655C75.5335 62.519 75.6647 63.9998 75.3332 65.754C75.2807 66.0317 75.2034 66.348 75.1081 66.6657C75.0086 67 74.8511 67.3467 74.7503 67.6575C74.6204 68.054 73.9864 69.025 73.7295 69.3759C72.8911 70.5265 71.768 71.4451 70.5096 72.0723C69.3604 72.6455 68.7166 72.7657 67.4859 72.9549L66.6488 73.0143C65.5879 72.995 64.2591 72.8499 62.9966 72.2629L62.9952 72.2642ZM70.5331 54.3622L71.3357 54.7352C71.9669 55.0612 72.5678 55.4521 73.1259 55.9065C73.59 56.2836 74.1743 56.8472 74.5307 57.2962L75.3595 58.4358C75.7172 58.9855 76.1137 59.8157 76.3319 60.4138C76.7601 61.5838 76.9535 62.7275 76.9701 63.9873C76.9922 65.7029 76.6234 67.0262 75.8305 68.7336C74.9561 70.6163 73.3151 72.1427 71.7045 73.0682C70.819 73.5779 69.8093 73.9895 68.8023 74.1995C67.7567 74.4191 66.653 74.5241 65.5658 74.4164C65.2205 74.3818 64.918 74.3432 64.563 74.2755C63.3861 74.0503 62.8819 73.8265 61.8376 73.3417L61.7879 73.3182C60.4853 72.7132 59.1758 71.5515 58.5004 70.713C58.0238 70.1218 57.8276 69.8428 57.4533 69.1922C57.1549 68.6742 56.9063 68.1562 56.7004 67.5953C56.4836 67.0014 56.2281 66.0469 56.1604 65.3977C56.1438 65.2388 56.1189 65.1214 56.1093 64.9556C56.0664 64.2429 56.0319 63.7884 56.1051 63.0535C56.2556 61.541 56.532 60.7191 57.1853 59.3115C57.713 58.1733 58.8098 56.7768 59.7836 56.006L60.9232 55.1744C62.5891 54.0625 64.5201 53.6121 66.4996 53.5472C66.7938 53.5375 67.1599 53.5597 67.4665 53.59C68.526 53.695 69.5606 53.9533 70.5359 54.3581L70.5331 54.3622Z" fill="#00004D"/>
<path fill-rule="evenodd" clip-rule="evenodd" d="M65.4714 60.1517C65.7946 59.4555 65.9783 59.4859 66.7229 59.6295C67.9163 59.8602 68.5462 60.2567 69.6084 60.9114C69.9662 61.1324 70.4579 61.6145 70.2701 62.0206C70.0988 62.3881 69.9773 62.674 69.6527 62.9337C68.5628 63.8039 68.9523 62.1919 66.4728 61.714C66.296 61.6794 66.1896 61.6643 66.0197 61.6477C65.6578 61.6131 65.3677 61.7375 65.3291 60.9418C65.3166 60.6959 65.3305 60.457 65.4714 60.1517ZM64.2972 59.2925C63.4132 61.196 64.0251 61.8203 63.1687 62.5C61.7957 63.5898 61.3799 65.1618 61.8744 66.8111C61.9918 67.2034 62.1893 67.6081 62.467 67.9451C62.9629 68.5502 63.9933 68.9535 64.7696 69.3141C66.151 69.9564 67.397 69.5461 68.4979 68.6773C70.161 67.365 69.6954 65.4408 69.9593 64.9435C70.038 64.7957 70.2107 64.5996 70.3323 64.4628C70.9083 63.8136 71.9996 62.424 71.7067 61.464C71.4291 60.5523 70.2411 59.6254 69.2921 59.1848C67.7962 58.49 65.2061 57.3324 64.2958 59.2925H64.2972Z" fill="#00004D"/>
<path fill-rule="evenodd" clip-rule="evenodd" d="M43.5137 31.2673V33.7359C47.8526 33.7359 47.9549 30.1871 52.1543 30.1871C55.9821 30.1871 56.8482 33.4278 59.2518 33.4278C60.2796 33.4278 60.8045 33.3933 61.7176 32.8076C63.78 31.4856 62.9277 30.9911 67.2349 35.3203C70.7823 38.8857 77.7845 41.9137 83.1678 41.9137C83.1913 42.9539 84.0933 45.5329 84.0933 48.2404C85.012 48.2404 85.6115 48.0857 86.7166 48.0857C86.5052 45.5495 86.0397 42.6583 85.3835 40.4688C85.0175 39.249 84.679 38.2116 84.248 37.1286L82.8584 33.8906L80.5708 35.0247C80.6979 35.6298 81.1951 36.366 81.4507 36.9959C81.7007 37.612 82.1857 38.6122 82.2423 39.2904C81.3527 39.2904 79.9119 39.0128 79.1521 38.8318C78.1658 38.5956 77.395 38.3262 76.4349 38.0002C74.7317 37.4214 73.0753 36.5345 71.7174 35.6215C66.8798 32.3628 66.5083 29.4163 62.9553 29.4163C62.2674 29.4163 61.5312 29.7644 61.1071 30.0365C59.9536 30.7756 59.8127 31.719 58.0583 29.9937C55.2403 27.2226 50.3087 26.9311 47.1923 29.2381C46.0886 30.0545 45.3012 31.2286 43.5137 31.2687V31.2673Z" fill="#00004D"/>
<path fill-rule="evenodd" clip-rule="evenodd" d="M12.6543 49.1679C12.6543 53.8618 12.657 55.362 13.8243 60.0325C14.1462 61.3172 14.5523 62.4334 14.9501 63.5357C15.1628 64.1256 15.3673 64.6104 15.6049 65.1948C15.8329 65.757 16.2113 66.2874 16.3564 66.9118C17.2626 66.8372 17.7958 66.1907 18.6716 65.9863L17.3468 62.682C14.6338 55.6107 14.584 48.7825 16.3867 41.4846C17.0816 38.6735 18.224 36.2312 19.441 33.8911C19.977 32.8606 20.2464 32.355 21.4496 30.6532C22.7605 28.8007 27.4503 23.0763 33.6568 19.7167C41.1909 15.6375 46.0783 15.5214 53.3817 15.9842L53.4743 13.1648C47.0205 12.5404 38.3108 14.0889 33.0256 16.878C28.1051 19.475 22.7702 24.1358 19.3526 28.4927C16.8868 31.6353 12.6543 38.248 12.6543 49.1679Z" fill="#00004D"/>
<path fill-rule="evenodd" clip-rule="evenodd" d="M50.7637 85.1171C51.0192 86.2125 50.917 86.2761 50.917 87.5856C53.9518 87.5856 59.2685 86.6863 61.2548 85.7332L60.4578 83.4277C59.9122 83.4664 58.9314 83.8076 58.2615 83.9747C56.0058 84.5383 55.7144 84.5397 53.4338 84.8547C52.6672 84.961 51.5496 84.9334 50.7637 85.1157V85.1171Z" fill="#00004D"/>
</svg>
