<svg width="100" height="100" viewBox="0 0 100 100" fill="none" xmlns="http://www.w3.org/2000/svg">
<path fill-rule="evenodd" clip-rule="evenodd" d="M50 0C77.6142 0 100 22.3856 100 50C100 77.6144 77.6142 100 50 100C22.3858 100 0 77.6144 0 50C0 22.3856 22.3858 0 50 0Z" fill="#99E6FF"/>
<path fill-rule="evenodd" clip-rule="evenodd" d="M29.752 41.2235C29.752 40.2233 31.6061 37.5948 32.1151 36.8349C33.524 36.8663 35.6773 37.8477 37.8539 37.8477C38.2618 37.8477 39.7804 36.359 40.6886 35.7875C45.7059 32.6295 45.1968 34.9963 46.3151 31.6241C46.6786 30.5277 47.203 29.057 47.4751 27.8892L50.3446 27.7203C51.3713 27.7203 51.5758 27.8892 52.5389 27.8892C52.8366 29.1674 53.332 30.4471 53.6998 31.6232C54.3837 33.8104 54.0815 33.3455 56.0854 34.1325C57.6008 34.7275 59.4539 35.7172 60.6788 36.7972C62.2217 38.1578 62.1526 38.0855 65.0957 37.4077C65.8922 37.2243 67.1445 36.8519 67.899 36.8351C68.4165 37.608 70.2621 40.2263 70.2621 41.0549C70.2621 41.3644 68.8878 42.7888 68.4464 43.29C65.5589 46.5689 66.678 43.9315 67.0001 49.8692C67.0744 51.24 66.5487 53.0231 66.5487 54.3894C66.5487 55.2727 70.2621 58.3459 70.2621 58.7779C70.2621 59.6938 68.3796 62.449 67.899 63.1664C66.4899 63.135 64.3368 62.1536 62.16 62.1536C61.7522 62.1536 60.2337 63.6423 59.3255 64.2139C58.2797 64.8722 57.2789 65.4003 56.0856 65.869C54.0486 66.669 54.4274 66.1807 53.699 68.3774C53.3355 69.4739 52.8111 70.9445 52.539 72.1123L49.6695 72.2812C48.6427 72.2812 48.4383 72.1123 47.4752 72.1123C47.1773 70.8341 46.6821 69.5544 46.3143 68.3783C45.2005 64.8158 45.0644 67.2569 40.6985 64.2043C39.6366 63.4619 38.2747 62.1536 37.6855 62.1536C35.6501 62.1536 33.8558 63.1664 31.9465 63.1664C31.7866 62.5669 31.0709 61.7435 30.7078 61.0294C30.4832 60.5877 30.2914 60.2866 30.1209 59.9283C29.9068 59.4782 29.7966 59.1806 29.5834 58.7779C30.3733 58.249 30.9787 57.4858 31.5838 56.7272C31.9863 56.2226 33.4656 55.0167 33.4656 54.3894C33.4656 53.0001 33.128 52.4027 33.128 51.0136V48.988C33.128 47.5988 33.4656 47.0014 33.4656 45.6123C33.4656 44.729 29.7521 41.6558 29.7521 41.2238L29.752 41.2235ZM26.5449 41.3923C26.5449 42.2139 27.3133 42.7294 27.7721 43.2034C28.1344 43.578 28.1398 43.6703 28.4514 44.0431C28.7004 44.341 28.9256 44.5361 29.2035 44.8101C31.2638 46.8399 30.2584 45.7588 30.2584 50.8446C30.2584 53.9922 31.3167 53.1012 29.2864 55.105C28.9626 55.4247 26.5451 58.0151 26.5451 58.4402C26.5451 59.7067 30.0082 66.2046 31.44 66.2046C32.6327 66.2046 36.4157 64.9246 37.1033 65.1118C37.397 65.1917 38.7521 66.3144 39.1694 66.577L42.6081 68.3709C43.9581 68.8462 43.4151 68.6071 44.5024 71.878C45.6163 75.2294 44.7179 74.9817 51.6949 74.9817C52.5545 74.9817 54.0807 74.8435 54.5219 74.4329C55.0672 73.9255 56.0427 69.9281 56.3402 69.1619C56.696 68.2449 58.4662 68.1561 60.735 66.6362L62.7785 65.1311C63.4934 64.8732 67.3555 66.2045 68.5741 66.2045C70.0734 66.2045 73.469 59.4045 73.469 58.6089C73.469 57.9804 71.1661 55.5384 70.559 54.9362C70.1556 54.5361 69.8654 54.1824 69.418 53.8828C69.5858 51.8663 69.7556 51.8697 69.7556 49.3254C69.7556 45.7792 68.2043 47.5365 72.1588 43.2893C74.0038 41.3076 73.7818 41.6944 72.005 38.1301C71.4383 36.9934 70.8316 36.0789 70.1178 35.1224C68.6792 33.1947 68.7679 33.8241 64.9586 34.5701C61.6814 35.212 64.1058 35.4332 59.6618 32.7502C59.0479 32.3796 58.5789 32.1527 57.8445 31.8669C56.0172 31.1556 56.6831 31.6848 55.6842 28.6257C55.4376 27.8709 55.2575 27.361 55.0121 26.5971C54.5055 25.0201 53.4553 25.0195 51.0195 25.0195C44.6945 25.0195 45.5197 25.0847 44.5006 28.1216C42.9844 32.6394 44.3469 30.675 41.0009 32.3863C36.7847 34.5426 38.1626 35.2892 36.0098 34.8023L31.8749 33.8558C30.9674 33.7228 30.5914 34.1655 30.1813 34.7325C29.3695 35.8546 28.8675 36.5217 28.175 37.7897C27.8319 38.4181 26.5451 40.706 26.5451 41.3923H26.5449Z" fill="#00004D"/>
<path fill-rule="evenodd" clip-rule="evenodd" d="M10.1719 48.3126C10.1719 53.0785 10.2695 56.6217 11.7106 61.1211C12.4316 63.3728 13.0164 65.1105 14.0515 67.2196C14.4796 68.0919 14.5978 68.5675 15.7419 68.5675C18.2662 68.5675 16.1933 65.2212 16.1027 64.9996C14.6346 61.4092 14.0189 59.5832 13.3526 55.5968C12.2032 48.7183 13.3363 41.1013 16.0812 34.9801C18.8626 28.7778 23.879 22.5773 29.679 19.0394L32.5496 17.3527C36.7512 14.8404 44.0303 13.0355 48.9937 13.0355C58.0529 13.0355 64.6346 15.0856 71.544 19.8549C72.1213 20.2536 73.4761 21.1935 73.806 21.6439C72.4557 21.6439 71.105 21.6472 69.7547 21.6437C68.2345 21.6398 66.8855 21.4573 66.8855 22.9942C66.8855 23.8107 67.4194 24.3445 68.2358 24.3445H77.0129C77.8294 24.3445 78.3632 23.8107 78.3632 22.9942V14.2171C78.3632 13.4007 77.8294 12.8668 77.0129 12.8668C75.5996 12.8668 75.6519 13.9759 75.6614 15.3974C75.6704 16.7472 75.6626 18.0996 75.6626 19.4496C74.1351 18.4268 73.0776 17.3396 70.8408 16.0006C69.0227 14.9121 67.3066 13.9768 65.2462 13.1557C59.1546 10.7281 55.6777 10.166 48.656 10.166C39.9061 10.166 30.7735 14.0944 24.4667 19.3973C23.9215 19.8557 23.7193 19.9862 23.2113 20.5049C22.683 21.0442 22.3747 21.209 21.857 21.6825C21.3383 22.1567 21.2159 22.468 20.7655 22.9541C20.3162 23.439 20.0239 23.6558 19.6237 24.1754C16.7769 27.8717 16.5667 27.7864 13.9977 32.8966C12.1853 36.5012 10.1719 43.0028 10.1719 48.3129V48.3126Z" fill="#00004D"/>
<path fill-rule="evenodd" clip-rule="evenodd" d="M87.1414 49.8327C87.1414 58.5354 83.8224 67.7395 78.156 74.0991C77.1309 75.2498 76.055 76.5734 74.8447 77.5394C73.5573 78.5672 72.4698 79.5746 71.0744 80.5208C58.6102 88.9745 42.8018 89.2546 30.0569 81.2608C29.256 80.7585 26.6446 78.9545 26.2078 78.3583C27.5581 78.3583 28.9087 78.355 30.2591 78.3584C31.7793 78.3623 33.1283 78.5448 33.1283 77.0079C33.1283 76.1915 32.5944 75.6576 31.7779 75.6576H23.0007C22.1843 75.6576 21.6504 76.1915 21.6504 77.0079V85.785C21.6504 86.6015 22.1843 87.1353 23.0007 87.1353C24.414 87.1353 24.3617 86.0263 24.3523 84.6047C24.3432 83.255 24.351 81.9026 24.351 80.5527C25.1842 81.1104 25.8684 81.7828 26.7459 82.3777C34.4681 87.6123 40.9842 89.8361 51.1889 89.8361C59.6051 89.8361 66.5411 86.8217 72.861 82.645C78.5827 78.8636 83.0091 73.1213 86.0745 66.995C94.313 50.5298 86.7696 31.2656 84.4407 31.2656C83.577 31.2656 82.928 31.9805 82.9704 32.7612C82.9989 33.2867 83.6201 34.3101 83.8792 34.8655C85.2255 37.7523 86.0933 41.0697 86.636 44.2616C86.8898 45.7534 87.1415 48.1559 87.1415 49.8327H87.1414Z" fill="#00004D"/>
<path fill-rule="evenodd" clip-rule="evenodd" d="M43.0863 50.5072V49.4944C43.0863 46.2563 46.2623 43.0803 49.5004 43.0803H50.5132C53.7561 43.0803 56.9273 46.2464 56.9273 49.4944V50.5072C56.9273 53.7186 53.7246 56.9213 50.5132 56.9213H49.5004C46.2523 56.9213 43.0863 53.7503 43.0863 50.5072ZM40.2168 50.0008C40.2168 54.1394 42.6556 57.2686 45.8965 58.8371C48.4962 60.0953 51.5164 60.0883 54.1174 58.8377C55.4083 58.2171 56.023 57.7372 56.9702 56.7956C59.6586 54.1227 60.6793 49.8285 58.8988 46.0036C57.8819 43.8191 56.284 42.2056 54.1174 41.1638C47.7286 38.0921 40.2168 42.8754 40.2168 50.0008Z" fill="#00004D"/>
</svg>
