<svg width="100" height="100" viewBox="0 0 100 100" fill="none" xmlns="http://www.w3.org/2000/svg">
<path d="M50 100C77.6142 100 100 77.6142 100 50C100 22.3858 77.6142 0 50 0C22.3858 0 0 22.3858 0 50C0 77.6142 22.3858 100 50 100Z" fill="#99E6FF"/>
<path fill-rule="evenodd" clip-rule="evenodd" d="M49.999 85.2231C47.1429 85.2231 44.542 84.7883 42.1933 84.3009C37.4255 83.3122 32.4863 80.8361 28.6916 78.01C28.1929 77.6387 27.9611 77.3983 27.4903 77.0296C20.6229 71.6544 14.7772 61.3792 14.7772 50.0014C14.7772 39.29 19.7198 30.487 25.1024 25.1044C28.4559 21.7505 32.6355 19.0244 37.062 17.2709C42.4503 15.1366 48.2642 14.4026 54.0646 15.0779C59.0863 15.6622 62.9637 17.0731 67.2468 19.3509C71.0559 21.3765 75.2333 25.0192 77.852 28.5383C79.9098 31.3031 79.6794 31.2396 81.2594 33.8587C82.3059 35.5935 83.6803 39.7974 84.2246 41.9587C85.1889 45.7887 85.4316 50.0387 84.9385 53.9266C84.4794 57.5474 83.6081 61.2444 82.1042 64.3396C81.8589 64.8444 81.7037 65.3074 81.4324 65.85C80.7489 67.217 79.012 70.0231 78.075 71.2205C76.6537 73.0374 74.4833 75.5009 72.6872 76.8983C70.032 78.964 67.9277 80.6183 64.5585 82.017L61.4346 83.2566C57.7059 84.4983 54.259 85.2239 49.999 85.2239V85.2231ZM10.1016 48.7544C10.1016 54.6883 10.4677 57.9792 12.379 63.4644C13.3077 66.1296 14.155 67.6544 15.4533 70.0526C16.8981 72.7213 19.722 76.2192 21.7511 78.2487C28.5329 85.0305 38.7459 89.8983 48.5963 89.8983H48.8077C53.2072 89.8974 55.3133 89.8579 59.7572 88.747C61.0985 88.4118 62.2098 88.0574 63.4624 87.6209C71.0794 84.9666 77.965 79.6 82.5729 73.0679C86.6642 67.2674 89.8964 59.337 89.8964 51.4035C89.8964 44.2079 89.0472 39.0244 86.2098 33.1152C81.8942 24.1265 75.7968 18.2918 66.9872 13.8435C62.7737 11.7161 56.1811 10.1035 51.4016 10.1035C45.395 10.1035 42.1168 10.4361 36.5355 12.3809C35.4229 12.7687 34.1216 13.2826 33.1142 13.7909C31.0572 14.8279 28.8707 15.984 26.999 17.3383C22.9942 20.2357 20.2337 22.9961 17.3364 27.0009C14.6168 30.76 12.3811 35.7305 11.2533 40.2431C10.6276 42.7461 10.102 45.7296 10.102 48.7544H10.1016Z" fill="white"/>
<path fill-rule="evenodd" clip-rule="evenodd" d="M32.168 39.6838C32.168 46.546 36.4471 54.0477 41.1162 58.7586C41.4793 59.1251 41.601 59.2208 41.9954 59.5356C42.3275 59.8008 42.5171 60.0703 42.8488 60.3382C45.6767 62.6164 47.9636 64.1412 51.3293 65.4869C55.1127 66.9999 61.2632 69.0582 64.9449 66.0916L65.7775 65.2682C65.928 65.0773 66.0284 64.9851 66.2093 64.8086C68.0562 63.0047 68.3897 60.3212 67.0175 58.3334C66.451 57.513 64.0297 55.3008 63.4988 54.9738C59.8001 52.696 56.1714 56.0403 55.008 58.8299C54.5219 59.9947 54.0445 59.9534 51.8258 58.7495L49.6593 57.4769C48.9119 57.0369 48.3236 56.5725 47.6532 56.0438C46.7375 55.3225 44.818 53.5556 44.1406 52.6782C43.638 52.0277 43.1488 51.4477 42.6632 50.716C41.9471 49.6373 40.3201 47.3377 40.3201 46.0534C40.3201 45.4873 41.3736 45.4495 42.2741 44.9499C43.0727 44.5064 45.0154 42.5656 45.4575 41.7647C46.3454 40.1569 46.4549 38.3321 45.4449 36.7251C45.0432 36.0864 44.3362 35.4843 43.7914 34.9395C42.2597 33.4077 41.3762 32.4238 38.9193 32.4238C36.7788 32.4238 35.6184 34.0086 34.5567 35.0669C33.428 36.1912 32.1684 37.4934 32.1684 39.6843L32.168 39.6838Z" fill="#00004D"/>
</svg>
