<svg width="20" height="20" viewBox="0 0 57 57" fill="none" xmlns="http://www.w3.org/2000/svg">
<path d="M15.6865 0.322266H1.86425C0.835929 0.322266 0 1.15502 0 2.18461V16.024C0 17.0542 0.835929 17.8882 1.86425 17.8882H15.6865C16.7205 17.8882 17.5532 17.0542 17.5532 16.024V2.18461C17.552 1.15376 16.7205 0.322266 15.6865 0.322266Z" fill="#00004D"/>
<path d="M15.6865 19.3359H1.86425C0.835929 19.3359 0 20.1687 0 21.1985V35.0412C0 36.0706 0.835929 36.9046 1.86425 36.9046H15.6865C16.7205 36.9046 17.5532 36.0706 17.5532 35.0412V21.1985C17.552 20.1687 16.7205 19.3359 15.6865 19.3359Z" fill="#00004D"/>
<path d="M15.6865 38.9941H1.86425C0.835929 38.9941 0 39.8269 0 40.8567V54.7005C0 55.7299 0.835929 56.5639 1.86425 56.5639H15.6865C16.7205 56.5639 17.5532 55.7299 17.5532 54.7005V40.8567C17.552 39.8269 16.7205 38.9941 15.6865 38.9941Z" fill="#00004D"/>
<path d="M35.197 0H21.3716C20.3433 0 19.5073 0.834027 19.5073 1.86361V15.7049C19.5073 16.7344 20.3433 17.5685 21.3716 17.5685H35.197C36.2253 17.5685 37.0618 16.7344 37.0618 15.7049V1.86234C37.0593 0.832758 36.2253 0 35.197 0Z" fill="#00004D"/>
<path d="M35.197 19.0137H21.3716C20.3433 19.0137 19.5073 19.8483 19.5073 20.8779V34.7175C19.5073 35.7468 20.3433 36.5809 21.3716 36.5809H35.197C36.2253 36.5809 37.0618 35.7468 37.0618 34.7175V20.8779C37.0593 19.8483 36.2253 19.0137 35.197 19.0137Z" fill="#00004D"/>
<path d="M35.197 38.6738H21.3716C20.3433 38.6738 19.5073 39.5076 19.5073 40.5372V54.3774C19.5073 55.4081 20.3433 56.2408 21.3716 56.2408H35.197C36.2253 56.2408 37.0618 55.4081 37.0618 54.3774V40.5372C37.0593 39.5079 36.2253 38.6738 35.197 38.6738Z" fill="#00004D"/>
<path d="M54.7024 0.00195312H40.8815C39.8532 0.00195312 39.0166 0.836614 39.0166 1.8662V15.7055C39.0166 16.7364 39.8532 17.5692 40.8815 17.5692H54.7037C55.732 17.5692 56.5686 16.7364 56.5686 15.7055V1.8662C56.566 0.834711 55.7307 0.00195312 54.7024 0.00195312Z" fill="#00004D"/>
<path d="M54.7024 19.0176H40.8815C39.8532 19.0176 39.0166 19.851 39.0166 20.8818V34.7212C39.0166 35.7508 39.8532 36.5835 40.8815 36.5835H54.7037C55.732 36.5835 56.5686 35.751 56.5686 34.7212V20.8818C56.566 19.851 55.7307 19.0176 54.7024 19.0176Z" fill="#00004D"/>
<path d="M54.7024 38.6758H40.8815C39.8532 38.6758 39.0166 39.5098 39.0166 40.5404V54.3806C39.0166 55.41 39.8532 56.243 40.8815 56.243H54.7037C55.732 56.243 56.5686 55.4102 56.5686 54.3806V40.5404C56.566 39.51 55.7307 38.6758 54.7024 38.6758Z" fill="#00004D"/>
</svg>
