<svg width="32" height="32" viewBox="0 0 32 32" fill="none" xmlns="http://www.w3.org/2000/svg">
<circle cx="16" cy="16" r="16" fill="#DBD7F4"/>
<path d="M9.28786 23.244C9.15186 23.244 8.98786 23.236 8.79586 23.22C8.61186 23.204 8.42386 23.176 8.23186 23.136V21.912C8.38386 21.944 8.52786 21.968 8.66386 21.984C8.80786 22 8.92786 22.008 9.02386 22.008C9.39186 22.008 9.65586 21.9 9.81586 21.684C9.98386 21.468 10.0679 21.124 10.0679 20.652V12.54H11.6159V20.652C11.6159 21.228 11.5359 21.708 11.3759 22.092C11.2159 22.476 10.9639 22.764 10.6199 22.956C10.2839 23.148 9.83986 23.244 9.28786 23.244ZM13.5875 21V12.54H16.6595C17.6275 12.54 18.4435 12.708 19.1075 13.044C19.7795 13.372 20.2875 13.852 20.6315 14.484C20.9755 15.108 21.1475 15.868 21.1475 16.764C21.1475 17.652 20.9755 18.412 20.6315 19.044C20.2875 19.676 19.7795 20.16 19.1075 20.496C18.4435 20.832 17.6275 21 16.6595 21H13.5875ZM15.1355 19.716H16.5635C17.5875 19.716 18.3475 19.472 18.8435 18.984C19.3395 18.496 19.5875 17.756 19.5875 16.764C19.5875 15.764 19.3395 15.024 18.8435 14.544C18.3475 14.056 17.5875 13.812 16.5635 13.812H15.1355V19.716Z" fill="#5541D7"/>
</svg>
