<svg width="27" height="27" viewBox="0 0 27 27" fill="none" xmlns="http://www.w3.org/2000/svg">
<path d="M13.25 26.5C20.5678 26.5 26.5 20.5678 26.5 13.25C26.5 5.93223 20.5678 0 13.25 0C5.93223 0 0 5.93223 0 13.25C0 20.5678 5.93223 26.5 13.25 26.5Z" fill="#EAD2E6"/>
<path fill-rule="evenodd" clip-rule="evenodd" d="M9.45039 17.0008V8.02947C9.45039 7.75962 9.68955 7.59816 9.96797 7.59816H16.524C16.8024 7.59816 17.0416 7.75962 17.0416 8.02947V17.0008C17.0416 17.214 16.8666 17.389 16.6534 17.389H9.83859C9.62541 17.389 9.45043 17.214 9.45043 17.0008H9.45039ZM8.76029 8.15885V16.9145C8.76029 17.5744 9.28935 18.0791 9.83856 18.0791H16.6534C17.2026 18.0791 17.7316 17.5744 17.7316 16.9145V8.1157C17.7316 7.51797 17.2773 6.95117 16.6965 6.95117H9.79541C9.25879 6.95117 8.76025 7.45657 8.76025 8.15885H8.76029Z" fill="#00004D"/>
<path fill-rule="evenodd" clip-rule="evenodd" d="M12.297 2.85402H14.1948V5.65758H12.297V2.85402ZM11.6069 2.81091V5.65758C10.6338 5.65758 9.61958 5.53767 8.87402 5.90073C8.0175 6.31782 7.46631 7.17559 7.46631 8.24547V18.4676C7.46631 18.916 8.16272 19.1455 8.15821 18.2969L8.15457 8.0711C8.163 7.05263 9.02629 6.30453 10.0973 6.30453H16.3946C17.2149 6.30453 17.9523 6.7355 18.2126 7.46258C18.5879 8.51098 17.9695 10.0138 18.6805 10.0138C18.8892 10.0138 19.0256 9.87742 19.0256 9.66878C19.0256 8.2813 19.2332 6.72388 17.6467 5.91505C16.9007 5.53476 15.8676 5.65755 14.885 5.65755V2.81087C14.885 2.48736 14.6748 2.20703 14.3674 2.20703H12.1246C11.8172 2.20703 11.607 2.48736 11.607 2.81087L11.6069 2.81091Z" fill="#00004D"/>
<path fill-rule="evenodd" clip-rule="evenodd" d="M14.9279 23.6439H11.5636C9.95705 23.6439 8.65229 22.7086 8.25028 21.2208C8.02753 20.3964 8.35954 19.7189 7.8112 19.7189C7.4419 19.7189 7.46615 20.0573 7.46615 20.3228C7.46615 22.5215 9.28107 24.2909 11.1754 24.2909H15.3161C17.2077 24.2909 19.0254 22.5221 19.0254 20.3228V11.3083C19.0254 11.051 18.9374 10.877 18.6803 10.877C18.1858 10.877 18.3353 11.7797 18.3353 12.5591C18.3353 13.7376 18.3794 20.4184 18.3186 20.8237C18.2187 21.4897 18.0264 21.8474 17.7237 22.2991C17.1468 23.16 16.0533 23.6439 14.9279 23.6439L14.9279 23.6439Z" fill="#00004D"/>
<path fill-rule="evenodd" clip-rule="evenodd" d="M11.3913 13.119C11.3913 12.0776 12.0488 11.2353 12.6322 10.5212C12.8219 10.2889 13.003 10.0468 13.2459 9.88409C13.8166 10.2663 15.1006 12.0272 15.1006 12.9896C15.1006 13.804 14.7036 14.4615 14.0178 14.7534C12.6931 15.3173 11.3913 14.3281 11.3913 13.119ZM10.7012 13.0327C10.7012 13.6786 10.9601 14.3328 11.3796 14.7697C13.4965 16.974 17.5721 14.3865 14.8784 10.7533L14.1821 9.85371C14.0034 9.64032 13.5638 9.14807 13.2781 9.12767C12.7951 9.0932 11.9297 10.3067 11.6498 10.7033C11.2708 11.2402 10.7012 12.1394 10.7012 13.0327Z" fill="#00004D"/>
<path fill-rule="evenodd" clip-rule="evenodd" d="M11.3047 20.7104C11.3047 20.247 11.6546 19.9341 12.1673 19.9341H14.3239C15.4759 19.9341 15.4491 21.4437 14.3239 21.4437H12.1673C11.8411 21.4437 11.5292 21.3069 11.4028 21.0436C11.3773 20.9903 11.3047 20.7604 11.3047 20.7104L11.3047 20.7104ZM10.6577 20.5379V20.8398C10.6577 21.4254 11.3229 22.0906 11.9085 22.0906H14.5827C15.1684 22.0906 15.8335 21.4254 15.8335 20.8398V20.5379C15.8335 19.9522 15.1684 19.2871 14.5827 19.2871H11.9085C11.3229 19.2871 10.6577 19.9523 10.6577 20.5379Z" fill="#00004D"/>
</svg>
