<svg width="27" height="27" viewBox="0 0 27 27" fill="none" xmlns="http://www.w3.org/2000/svg">
<path d="M13.25 26.5C20.5678 26.5 26.5 20.5678 26.5 13.25C26.5 5.93223 20.5678 0 13.25 0C5.93223 0 0 5.93223 0 13.25C0 20.5678 5.93223 26.5 13.25 26.5Z" fill="#D5FFFF"/>
<path fill-rule="evenodd" clip-rule="evenodd" d="M3.18521 13.4535C3.18521 12.8289 3.94441 12.8433 4.7533 12.3124C4.96476 12.1736 5.26808 11.9163 5.43056 11.7089C6.10727 10.8451 6.01706 10.5239 6.49461 9.52198C6.56193 9.38073 6.65553 9.22338 6.73147 9.06922C6.90291 8.72127 7.53958 7.72729 7.81546 7.54256C8.18215 7.73659 8.46924 7.96774 9.03109 8.248C10.5968 9.02908 11.4842 9.41147 13.2401 9.94991C14.357 10.2924 13.8152 10.0697 14.7731 11.0275C15.6225 11.8768 16.5787 12.7765 17.5332 13.4888C18.0518 13.8758 18.8765 14.5017 19.457 14.816C19.8332 15.0196 20.3917 15.3849 20.7703 15.4731C20.6197 16.1194 19.904 17.0035 19.4533 17.4564C19.1628 17.7484 18.8309 17.9335 18.5155 18.1934L17.8645 18.7737C17.045 19.7182 16.8954 19.8508 16.353 21.0058C15.6668 22.4669 16.0373 23.4528 15.4505 23.4528H9.44098C8.6992 23.4528 9.45138 22.5913 8.59066 21.8895C8.01475 21.42 6.17023 21.7142 5.20467 21.6304C4.89785 21.6037 4.59945 21.3594 4.48007 21.1236C4.43181 21.0282 3.92407 19.2727 3.92407 19.2167C3.92407 19.1038 3.94078 19.1594 3.97335 19.0196C4.4705 18.9038 5.20457 19.0532 5.67889 18.9519C6.66276 18.7418 6.76764 17.3457 5.84076 17.0044C5.65295 16.9353 5.4151 16.9165 5.18402 16.873C4.04117 16.658 3.54121 16.7514 3.76767 16.1074C3.91806 15.6799 4.17033 15.216 4.17033 14.7834C4.17033 14.5633 3.18518 13.6736 3.18518 13.4535L3.18521 13.4535ZM15.4997 10.5966L16.8091 10.8634C18.1461 11.1329 19.8454 11.2862 21.2629 11.2862C21.4708 12.1785 21.3608 13.4154 21.169 14.2955C21.1286 14.4806 21.0804 14.5588 21.0659 14.7342C20.2517 14.5445 18.1841 12.9618 17.4204 12.3702C16.8776 11.9498 16.3099 11.3433 15.8094 10.9272C15.67 10.8112 15.6184 10.7091 15.4997 10.5965V10.5966ZM12.9383 8.97104C12.6543 8.94743 11.9772 8.67644 11.7139 8.5699C10.9527 8.26186 10.1911 7.95946 9.47447 7.55835C9.10224 7.34999 8.77083 7.14421 8.40658 6.95147C8.73126 6.46662 10.2691 5.71662 10.8202 5.67077C11.2868 6.55265 11.7538 7.39455 12.3472 8.18296C12.5424 8.44234 12.7588 8.70293 12.9383 8.97104H12.9383ZM12.9875 5.32595C15.0798 5.32595 17.0836 6.02711 18.6599 7.19006C19.52 7.82462 19.8499 8.07075 20.4549 8.99094C20.7123 9.38253 20.8624 9.73931 21.0169 10.2108C21.1518 10.6226 20.8868 10.4597 20.5753 10.4476C20.2328 10.4342 19.9662 10.4241 19.6837 10.4024C18.1382 10.2838 16.5553 10.0483 15.0848 9.63219C14.6178 9.50001 14.4663 9.55971 14.1903 9.19668L13.1774 7.94373C12.5598 7.12149 12.2918 6.60692 11.7533 5.71696C11.5409 5.36585 11.7648 5.42933 12.1146 5.38895C12.4387 5.35152 12.6441 5.32595 12.9875 5.32595H12.9875ZM10.2784 3.60193C10.2784 4.03546 10.3701 4.56049 10.5247 4.88263C10.4128 4.93633 10.2569 4.96044 10.1111 5.01084C9.4636 5.23459 8.87795 5.54144 8.32877 5.93772C8.10458 6.09948 7.93052 6.26665 7.717 6.40963C7.46761 6.2426 7.02738 5.87404 7.02738 5.523C7.02738 5.02015 7.83223 4.92196 8.32836 4.85366C9.00629 4.76033 9.83505 4.89397 9.83505 4.39007C9.83505 3.92702 9.38579 3.94675 9.14544 3.94675C8.48772 3.94675 7.72732 4.06776 7.24424 4.26217C5.04162 5.14856 6.96384 6.80805 7.12588 7.05003C6.7746 7.57459 6.41246 7.88324 6.00877 8.69139C5.85322 9.00283 5.67784 9.31718 5.55595 9.61775C5.48683 9.78825 5.4169 9.95643 5.35964 10.1111C4.96703 11.1707 4.72237 11.429 3.69424 11.943C2.73218 12.424 1.76917 12.9765 2.72732 14.2563L3.33305 14.9313C3.15053 15.3116 2.88973 16.0542 2.88973 16.4583C2.88973 17.0774 3.42971 17.3783 3.97651 17.4896C4.35363 17.5664 5.50378 17.6468 5.69744 17.936C5.56226 18.1914 5.66629 18.1342 4.95858 18.1331C4.43698 18.1322 3.80041 18.0467 3.41769 18.4639C2.87717 19.0531 3.24234 19.7395 3.40227 20.379C3.48812 20.7224 3.60234 21.1892 3.74179 21.4679C4.36239 22.7081 5.61919 22.4678 7.02742 22.4678C7.49308 22.4678 8.09517 22.3572 8.22097 22.7027C8.39007 23.1671 8.10788 23.3997 8.51587 23.8363C8.75218 24.0892 9.01828 24.2904 9.4903 24.2904H15.4012C15.933 24.2904 16.3523 23.9683 16.5154 23.582C16.7682 22.9831 16.6275 20.7448 19.0395 18.8159C19.7974 18.2099 20.2288 17.9714 20.8891 17.0203C21.0945 16.7245 21.4228 16.1892 21.5092 15.818C21.9541 15.818 22.4416 16.0892 23.1682 15.8514C24.8746 15.2928 23.59 12.1729 23.184 12.1729C22.5236 12.1729 22.6722 12.6351 22.8405 13.009C23.0586 13.4931 23.7088 15.1284 22.6422 15.1284C22.0985 15.1284 22.1383 15.0576 21.8048 15.0299C22.0393 14.5412 22.1988 13.2564 22.1988 12.5177C22.1988 12.1088 22.1375 11.7519 22.1075 11.4145C22.0827 11.1356 22.1856 11.1999 22.4221 11.1648C23.1156 11.0615 24.1691 10.6708 24.1691 9.85777C24.1691 9.5175 24.1223 9.04572 23.824 8.86945C23.5715 8.72032 23.184 8.85108 23.184 9.16812C23.184 9.39075 23.381 9.55533 23.381 9.75924C23.381 10.1453 22.3596 10.3996 21.9033 10.3996C21.8416 9.65888 21.1573 8.49433 20.7098 7.94798C19.1192 6.00588 15.8333 4.48863 13.1846 4.48863C12.1564 4.48863 11.9909 4.62927 11.3128 4.68568C11.131 4.30679 11.1158 3.9261 11.1158 3.5035C11.1158 2.35492 13.5731 3.51346 14.0691 3.80126C14.3593 3.96964 14.5438 4.14387 14.8594 4.14387C15.0033 4.14387 15.2042 3.89836 15.2042 3.7498C15.2042 3.2118 13.0603 2.43453 12.6823 2.33108C11.5051 2.0089 10.2784 2.27429 10.2784 3.60203V3.60193Z" fill="#00004D"/>
<path fill-rule="evenodd" clip-rule="evenodd" d="M18.209 4.04589C17.7141 4.04589 17.6447 3.20847 18.209 3.20847C18.4462 3.20847 18.6211 3.36959 18.6254 3.60889C18.6292 3.816 18.4708 4.04589 18.209 4.04589ZM16.9776 3.5533C16.9776 5.23164 19.4405 5.29943 19.4405 3.5533C19.4405 2.42764 17.7513 1.85421 17.1263 3.06172C17.0937 3.12489 16.9775 3.47505 16.9775 3.5533H16.9776Z" fill="#00004D"/>
<path fill-rule="evenodd" clip-rule="evenodd" d="M22.3956 6.70547C22.3956 6.27679 22.9076 6.22493 23.0927 6.40235C23.6846 6.96953 22.3956 7.54805 22.3956 6.70547ZM21.6074 6.50845V6.85324C21.6074 7.40514 22.1138 7.93689 22.8881 7.93689C23.5135 7.93689 24.0211 7.39722 24.0211 6.60694C24.0211 5.72693 22.7883 5.0597 22.0119 5.77998C21.8596 5.92127 21.6074 6.24371 21.6074 6.50842V6.50845Z" fill="#00004D"/>
</svg>
