<svg width="29" height="32" viewBox="0 0 29 32" fill="none" xmlns="http://www.w3.org/2000/svg">
<path d="M24.9103 0H4.08974C3.00508 0 1.96483 0.430883 1.19786 1.19786C0.430883 1.96483 0 3.00508 0 4.08974V27.8846C0 28.9693 0.430883 30.0095 1.19786 30.7765C1.96483 31.5435 3.00508 31.9744 4.08974 31.9744H24.9103C25.9949 31.9744 27.0352 31.5435 27.8021 30.7765C28.5691 30.0095 29 28.9693 29 27.8846V4.08974C29 3.00508 28.5691 1.96483 27.8021 1.19786C27.0352 0.430883 25.9949 0 24.9103 0ZM12.3138 23.0959L8.55128 26.8139C8.34215 27.0227 8.05865 27.14 7.76308 27.14C7.4675 27.14 7.18401 27.0227 6.97487 26.8139L4.7441 24.5831C4.54708 24.3716 4.43982 24.092 4.44492 23.803C4.45002 23.5141 4.56708 23.2384 4.77143 23.034C4.97579 22.8296 5.25149 22.7126 5.54045 22.7075C5.82941 22.7024 6.10907 22.8096 6.32051 23.0067L7.80769 24.4938L10.7821 21.5195C10.8842 21.4099 11.0073 21.322 11.1441 21.261C11.2809 21.2001 11.4286 21.1673 11.5784 21.1647C11.7282 21.162 11.8769 21.1896 12.0158 21.2457C12.1547 21.3018 12.2809 21.3853 12.3868 21.4912C12.4927 21.5971 12.5762 21.7233 12.6323 21.8621C12.6884 22.001 12.7159 22.1498 12.7133 22.2995C12.7106 22.4493 12.6779 22.597 12.6169 22.7338C12.5559 22.8706 12.468 22.9938 12.3585 23.0959H12.3138ZM12.3138 14.9164L8.55128 18.6344C8.34215 18.8432 8.05865 18.9606 7.76308 18.9606C7.4675 18.9606 7.18401 18.8432 6.97487 18.6344L4.7441 16.4036C4.54708 16.1922 4.43982 15.9125 4.44492 15.6235C4.45002 15.3346 4.56708 15.0589 4.77143 14.8545C4.97579 14.6502 5.25149 14.5331 5.54045 14.528C5.82941 14.5229 6.10907 14.6302 6.32051 14.8272L7.80769 16.3144L10.7821 13.34C10.9935 13.143 11.2732 13.0357 11.5621 13.0408C11.8511 13.0459 12.1268 13.163 12.3311 13.3673C12.5355 13.5717 12.6525 13.8474 12.6576 14.1364C12.6627 14.4253 12.5555 14.705 12.3585 14.9164H12.3138ZM12.3138 6.73692L8.55128 10.4549C8.34679 10.6378 8.08205 10.7389 7.80769 10.7389C7.53333 10.7389 7.2686 10.6378 7.0641 10.4549L4.83333 8.2241C4.67886 8.01147 4.60443 7.75113 4.62317 7.48898C4.64191 7.22683 4.75263 6.97971 4.93578 6.79123C5.11894 6.60274 5.36277 6.48498 5.62427 6.45872C5.88578 6.43246 6.14815 6.49938 6.36513 6.64769L7.85231 8.13487L10.8267 5.16051C11.0381 4.96349 11.3178 4.85623 11.6067 4.86133C11.8957 4.86643 12.1714 4.98349 12.3757 5.18784C12.5801 5.3922 12.6972 5.6679 12.7023 5.95686C12.7074 6.24583 12.6001 6.52548 12.4031 6.73692H12.3138ZM23.4231 25.6538H15.9872C15.6914 25.6538 15.4077 25.5363 15.1985 25.3272C14.9893 25.118 14.8718 24.8343 14.8718 24.5385C14.8718 24.2426 14.9893 23.9589 15.1985 23.7498C15.4077 23.5406 15.6914 23.4231 15.9872 23.4231H23.4231C23.7189 23.4231 24.0026 23.5406 24.2118 23.7498C24.4209 23.9589 24.5385 24.2426 24.5385 24.5385C24.5385 24.8343 24.4209 25.118 24.2118 25.3272C24.0026 25.5363 23.7189 25.6538 23.4231 25.6538ZM23.4231 17.4744H15.9872C15.6914 17.4744 15.4077 17.3568 15.1985 17.1477C14.9893 16.9385 14.8718 16.6548 14.8718 16.359C14.8718 16.0632 14.9893 15.7795 15.1985 15.5703C15.4077 15.3611 15.6914 15.2436 15.9872 15.2436H23.4231C23.7189 15.2436 24.0026 15.3611 24.2118 15.5703C24.4209 15.7795 24.5385 16.0632 24.5385 16.359C24.5385 16.6548 24.4209 16.9385 24.2118 17.1477C24.0026 17.3568 23.7189 17.4744 23.4231 17.4744ZM23.4231 9.29487H15.9872C15.6914 9.29487 15.4077 9.17736 15.1985 8.96818C14.9893 8.75901 14.8718 8.47531 14.8718 8.17949C14.8718 7.88367 14.9893 7.59997 15.1985 7.39079C15.4077 7.18162 15.6914 7.0641 15.9872 7.0641H23.4231C23.7189 7.0641 24.0026 7.18162 24.2118 7.39079C24.4209 7.59997 24.5385 7.88367 24.5385 8.17949C24.5385 8.47531 24.4209 8.75901 24.2118 8.96818C24.0026 9.17736 23.7189 9.29487 23.4231 9.29487Z" fill="#C8DDF7"/>
</svg>
