<svg width="100" height="100" viewBox="0 0 100 100" fill="none" xmlns="http://www.w3.org/2000/svg">
<path fill-rule="evenodd" clip-rule="evenodd" d="M100.001 48.0046V52.1943C99.8646 55.5373 99.3977 58.8623 98.5965 62.0712C98.4846 62.5216 98.37 62.9028 98.2554 63.2924C97.9211 64.432 97.6102 65.7043 97.171 66.7983C95.3033 71.455 94.8336 72.6278 92.0598 77.1173C91.6413 77.7956 91.2738 78.2915 90.8415 78.9256L88.8287 81.6013C88.6782 81.7933 88.6036 81.8458 88.464 82.0185L86.6918 84.0547C86.2691 84.5589 85.664 85.0907 85.1819 85.5728C83.5339 87.2208 81.9785 88.4378 80.2061 89.8744C79.3566 90.5624 78.3979 91.1356 77.5263 91.7835C77.221 92.0114 76.9143 92.1938 76.5828 92.4024L72.6582 94.6292C70.5654 95.6694 68.4478 96.6018 66.2016 97.3519C60.8474 99.1408 55.9034 100 49.806 100C44.9297 100 38.3418 99.0745 33.7321 97.3229C29.791 95.8269 26.9205 94.5684 23.2612 92.2656C20.5758 90.5748 18.4208 88.7914 16.0324 86.7014C16.0172 86.6889 15.9951 86.6696 15.9799 86.6572L13.1591 83.8143C13.0058 83.6541 12.9132 83.5836 12.7778 83.4137C11.7432 82.1193 10.598 80.8816 9.62688 79.5334C7.16249 76.1186 5.10012 72.469 3.52949 68.5403L2.30694 65.0758C0.628558 60.0876 0 55.232 0 49.5117C0 44.4226 0.762569 39.5477 2.35807 34.7792C3.73531 30.6599 4.28093 29.6833 6.05463 26.0737C6.67073 24.8208 8.21653 22.3771 9.0122 21.3162C9.90596 20.1254 10.7154 18.878 11.7446 17.7978C12.5112 16.9924 13.1508 16.0918 13.9396 15.3058L17.1154 12.3289C17.9207 11.5622 18.8076 10.9033 19.6848 10.2112C22.8675 7.70399 26.6608 5.52276 30.4126 3.9466C30.8188 3.77669 31.1766 3.67448 31.5426 3.51424C32.6671 3.02109 33.8344 2.67437 34.9989 2.28344C36.1565 1.89527 37.4052 1.53056 38.6001 1.29434L43.819 0.360523C45.5305 0.113255 47.6054 0 49.6112 0C58.7256 0 65.9944 1.93393 73.7316 5.95791L76.6435 7.63631C76.9903 7.8601 77.2416 8.01067 77.5828 8.25932L79.3842 9.48598C81.1109 10.79 82.4288 11.949 84.0561 13.3096C84.2136 13.4409 84.3061 13.55 84.4511 13.6964C87.4308 16.7037 90.1756 19.8036 92.4176 23.4048L94.3722 26.8224C95.0491 28.19 95.8227 29.57 96.3297 31.0177L98.8728 39.2162C99.5041 42.084 99.8826 45.036 100.004 48.0032L100.001 48.0046Z" fill="#99E6FF"/>
</svg>
