<svg width="27" height="27" viewBox="0 0 27 27" fill="none" xmlns="http://www.w3.org/2000/svg">
<path d="M13.25 26.5C20.5678 26.5 26.5 20.5678 26.5 13.25C26.5 5.93223 20.5678 0 13.25 0C5.93223 0 0 5.93223 0 13.25C0 20.5678 5.93223 26.5 13.25 26.5Z" fill="#FFE4DF"/>
<path fill-rule="evenodd" clip-rule="evenodd" d="M10.7714 9.58163C13.5824 9.58163 15.6873 10.6843 16.3525 13.3435C16.5262 14.0378 16.5596 14.5776 16.5591 15.452C16.5584 16.581 16.8473 19.4186 16.7305 20.4602C16.7094 20.6476 16.7389 20.8395 16.7184 21.0269C16.5275 22.7731 16.1656 24.1054 14.0338 24.2153C13.1729 24.2597 12.0696 23.7892 11.303 23.4778C10.9723 23.3435 10.0856 22.8478 9.7792 22.6452C9.54579 22.4908 9.3085 22.3452 9.07642 22.1904C7.89552 21.4031 6.50156 20.3521 5.69426 19.1648C5.61174 19.0435 5.49367 18.9256 5.47979 18.7592C6.16947 18.7018 7.65956 16.9752 8.15415 16.39C8.42083 16.0744 8.64212 15.7686 8.89334 15.4343C9.79739 14.2313 10.9367 12.5465 10.9367 10.5738C10.9367 10.2581 10.8706 9.78835 10.7714 9.58159L10.7714 9.58163ZM10.1507 3.66996H10.2581C10.4254 3.68091 10.5756 3.74738 10.6914 3.91531C10.7887 4.05638 10.8039 4.17874 10.8591 4.36769C10.9061 4.52879 10.9496 4.70497 11.0015 4.88668C11.0435 5.03352 11.0923 5.25846 11.1434 5.36489C11.5484 5.36489 12.1217 5.36326 12.3836 5.48893C12.5339 5.20482 12.6366 4.9121 12.7827 4.60646C13.1987 3.73616 13.5311 4.03617 14.3154 4.38397C15.1045 4.73398 14.7906 5.18919 14.5866 5.66621C14.0386 6.9476 14.0362 6.29023 14.5746 7.30788C14.7936 7.16125 15.0133 6.89447 15.3601 6.89447C16.1126 6.89447 17.0137 7.83455 17.0137 8.42404C17.0137 9.06526 16.9767 8.831 16.6768 9.20326C16.5472 9.36409 16.4414 9.50495 16.3167 9.67008C16.1081 9.94641 15.7091 10.6748 15.7089 10.6746C15.7065 10.6683 15.6973 10.6904 15.6908 10.6978C16.0818 11.2817 16.3134 11.3685 16.6895 12.3036C17.2945 13.8079 17.2144 15.2248 17.2605 16.9001L17.3457 18.0964C17.3418 19.7914 17.6386 22.0026 16.6967 23.527C16.2971 24.1736 15.2719 24.8362 14.2439 24.8362H13.7892C11.7349 24.8362 8.47543 22.7188 6.85676 21.3509C6.36295 20.9335 5.98178 20.5278 5.55271 20.0505C4.92094 19.3476 3.95632 17.4771 3.70698 16.6873C3.4675 15.9288 3.35045 15.1309 3.33008 14.3256V13.807C3.35707 12.7119 3.55188 11.6157 3.8505 10.5981C3.9941 10.1088 4.4876 10.3117 4.4876 10.5324C4.4876 11.3125 3.40614 13.7489 4.30616 16.4601C4.37345 16.6629 4.94732 18.1804 5.19035 18.1804C5.5809 18.1804 6.71316 17.0959 6.92664 16.8162C7.04751 16.6578 7.17745 16.5612 7.29873 16.4028L7.66014 15.9787C8.2972 15.2643 9.06908 14.0574 9.55501 13.2435C10.0813 12.3619 10.2752 11.4951 10.2752 10.4084C10.2752 8.50164 8.10726 7.67004 6.64294 8.22305C5.99922 8.46615 5.53408 8.85503 5.13793 9.40517C4.8127 9.85684 4.4876 9.51 4.4876 9.37491C4.4876 8.9387 4.98366 8.73464 4.98366 8.50676C4.98366 7.37517 4.28087 6.03314 4.28087 5.985C4.28087 5.27389 5.28112 4.57943 6.09985 4.57943C6.71453 4.57943 6.93599 5.04072 7.32265 5.6717C7.49368 5.9508 8.01738 6.85591 8.0842 7.14255H8.16688C8.28235 6.71006 9.06591 6.12408 9.15907 5.985C9.09802 5.72296 9.0064 5.45843 8.92849 5.18209C8.78944 4.68893 8.54357 4.07316 9.32324 3.87542C9.59084 3.80754 9.88656 3.68565 10.1507 3.66992L10.1507 3.66996ZM15.2361 10.2431L13.4172 9.33358C13.7761 8.79753 14.2606 8.46827 14.5645 8.16593C14.6693 8.06175 14.6958 8.04799 14.8097 7.95634C15.2954 7.56535 15.4169 7.30365 16.0323 7.9173C16.2307 8.11518 16.321 8.23639 16.3936 8.54815L15.7671 9.32717C15.6468 9.49007 15.2801 10.0541 15.2361 10.2431H15.2361ZM11.3088 5.98503C12.2595 5.98503 13.1389 6.3665 13.6421 7.04158C13.7809 7.22776 14.0247 7.53136 14.0786 7.76265C13.7421 7.98797 13.0197 8.73255 12.7557 9.12689C12.5298 9.12689 11.6885 8.9202 10.482 8.9202C10.3528 8.43615 9.21466 7.6096 8.66304 7.59732C8.69225 7.24635 9.39312 6.64335 9.64636 6.47229C10.0487 6.20049 10.6491 5.98503 11.3088 5.98503H11.3088ZM5.97588 5.24092C6.33951 5.24092 6.25116 5.22055 6.5794 5.71221C6.82103 6.07419 7.41475 7.0426 7.50545 7.43195C6.27313 7.43195 5.85512 7.98637 5.56247 8.01073C5.56247 7.14354 4.95991 6.03806 4.96902 5.90904C4.98826 5.63697 5.65194 5.24092 5.97588 5.24092ZM13.6652 6.15039C13.4868 6.03096 13.2331 5.79042 13.0037 5.73698L13.4585 4.70347L14.1613 4.99284C14.1057 5.2312 13.7038 5.98459 13.6652 6.15039ZM9.40715 4.5381C9.52853 4.47989 10.0213 4.3352 10.1926 4.33142C10.2077 4.51248 10.282 4.70862 10.3345 4.89231C10.3907 5.08907 10.4374 5.25631 10.482 5.44761C10.1657 5.47392 9.93153 5.63819 9.73788 5.6543C9.68864 5.55169 9.61445 5.22512 9.58149 5.10791C9.5303 4.92606 9.47645 4.68248 9.40715 4.5381Z" fill="#00004D"/>
<path fill-rule="evenodd" clip-rule="evenodd" d="M7.54691 19.4203C7.57605 19.3112 8.58329 18.2133 8.69163 18.0846C10.0764 16.4392 9.55637 16.5027 10.5102 17.0358C11.4307 17.5502 12.4279 17.9933 13.3479 18.4561C13.6001 18.583 13.8359 18.663 14.0925 18.7863C14.3458 18.9081 14.5809 18.996 14.8464 19.1073C14.9898 19.1674 15.0761 19.2096 15.2249 19.2662C15.4214 19.3409 15.5256 19.3492 15.5256 19.5443C15.5256 20.2522 15.5557 22.1733 14.9613 22.6593C14.1791 23.2987 12.7826 22.8014 12.0666 22.4659C10.3804 21.6758 9.31303 20.8954 7.88368 19.745C7.74347 19.6321 7.64747 19.5705 7.54688 19.4203L7.54691 19.4203ZM13.8307 23.5956C14.6283 23.5956 15.4657 23.4053 15.7803 22.6101C16.1842 21.5893 16.1457 20.5703 16.1457 19.4202C16.1457 18.7763 15.4489 18.6798 14.7826 18.3856C14.653 18.3284 14.5219 18.2707 14.3795 18.2099L12.2873 17.243C11.9971 17.0978 11.7901 16.9734 11.5018 16.8295L10.7169 16.4156C10.1289 16.087 9.70812 15.713 9.1648 16.4493C9.08099 16.5629 9.01793 16.6361 8.92856 16.7505C8.83697 16.8678 8.78636 16.943 8.69494 17.0543C8.52774 17.2579 8.38906 17.4556 8.21755 17.6518L7.18445 18.8098C6.69842 19.3272 6.89845 19.7881 7.4054 20.1818C8.09921 20.7207 8.39411 21.0211 9.25816 21.595C10.4477 22.385 12.4267 23.5956 13.8306 23.5956L13.8307 23.5956Z" fill="#00004D"/>
<path fill-rule="evenodd" clip-rule="evenodd" d="M19.3291 11.4013C18.5627 11.8068 18.0889 11.8209 18.0889 12.3522C18.0889 12.7883 18.789 12.9345 19.3291 13.2203C19.3291 13.9098 19.3295 14.5994 19.3275 15.2889C19.3263 15.6902 19.421 15.8189 19.6274 16.0225C19.805 16.1978 20.0249 16.3208 20.3626 16.3208H23.4631C23.9798 16.3208 24.4966 15.9142 24.4966 15.4114V11.5667C24.4966 11.3065 23.9196 11.1638 23.875 11.6066L23.8765 14.7086C23.8765 14.899 23.9561 15.6594 23.5872 15.6594H20.2386C19.8853 15.6594 19.949 14.9762 19.9492 14.8326C19.9496 14.4468 19.9492 14.0609 19.9492 13.6751C19.9492 13.2164 20.0144 12.9385 19.7438 12.7229C19.6463 12.6453 19.0993 12.3853 18.957 12.3522V12.2695C19.1375 12.2275 19.621 12.0049 19.7511 11.906C20.0142 11.706 19.9492 11.3813 19.9492 10.9466C19.9492 10.5607 19.9496 10.1749 19.9492 9.78903C19.9487 9.37545 19.9127 8.96224 20.3213 8.96224H23.5044C24.3099 8.96224 23.4419 10.4505 24.2072 10.4505C24.3886 10.4505 24.4664 10.3538 24.4966 10.1824V9.21029C24.4966 8.72579 24.0192 8.30078 23.3804 8.30078H20.4452C19.8166 8.30078 19.3305 8.67765 19.3271 9.29102C19.3232 9.99347 19.3291 10.6985 19.3291 11.4013Z" fill="#00004D"/>
<path fill-rule="evenodd" clip-rule="evenodd" d="M12.6316 11.0699C13.7833 11.3382 14.6417 12.0969 15.0145 13.1931C15.4378 14.4376 15.2911 15.4579 15.3599 16.7337C15.3706 16.9318 15.4015 17.0193 15.4015 17.271C15.2453 17.258 14.9626 17.1063 14.8049 17.0407C14.6005 16.9555 14.4256 16.8839 14.2297 16.7891C14.0319 16.6934 13.8483 16.6195 13.665 16.5269L11.4741 15.4106C11.2892 15.3197 11.0989 15.1686 10.8953 15.1212L11.4304 14.2094C11.8491 13.515 12.6146 11.8339 12.6316 11.0698L12.6316 11.0699ZM10.2339 15.1212C10.2339 15.5728 10.8535 15.8214 11.3231 16.0578C12.2243 16.5115 14.978 17.9737 15.4428 17.9737C15.8616 17.9737 16.1187 17.6229 16.0465 17.1654C16.0101 16.9352 16.0412 16.723 16.0103 16.4967C15.8767 15.5212 16.143 14.5438 15.6753 13.1524C15.5459 12.7675 15.4277 12.4602 15.2284 12.1523C15.1414 12.0178 15.0426 11.8537 14.9371 11.7409C14.5663 11.345 14.2163 11.0285 13.7074 10.7795C11.9822 9.93546 12.095 10.7297 11.902 11.4564C11.778 11.9236 11.6241 12.362 11.4449 12.7769C11.2516 13.2243 10.7933 14.0629 10.5152 14.493C10.4042 14.6647 10.2339 14.8644 10.2339 15.1212L10.2339 15.1212Z" fill="#00004D"/>
<path fill-rule="evenodd" clip-rule="evenodd" d="M20.6104 14.2936C20.6104 14.54 20.7772 14.6243 21.0238 14.6243H22.9254C23.3376 14.6243 23.4436 13.9629 22.8428 13.9629H20.9824C20.7825 13.9629 20.6104 14.0803 20.6104 14.2936Z" fill="#00004D"/>
<path fill-rule="evenodd" clip-rule="evenodd" d="M20.6104 11.7721C20.6104 12.0039 20.8537 12.1029 21.0651 12.1029H22.8014C23.4371 12.1029 23.3563 11.4414 22.9254 11.4414H20.9411C20.7411 11.4414 20.6104 11.5722 20.6104 11.7721Z" fill="#00004D"/>
<path fill-rule="evenodd" clip-rule="evenodd" d="M20.6104 13.0121C20.6104 13.212 20.7411 13.3428 20.9411 13.3428H23.0081C23.2101 13.3428 23.3618 13.0029 23.1746 12.8042C23.1171 12.7431 23.0849 12.7227 22.9667 12.7227H20.8584C20.7416 12.7227 20.6104 12.8951 20.6104 13.012V13.0121Z" fill="#00004D"/>
<path fill-rule="evenodd" clip-rule="evenodd" d="M20.6104 10.4494C20.6104 10.9416 21.0509 10.8214 21.7679 10.8214C22.2838 10.8214 22.2253 10.16 21.7679 10.16C21.4113 10.16 20.6104 10.0598 20.6104 10.4494V10.4494Z" fill="#00004D"/>
</svg>
