<svg width="27" height="27" viewBox="0 0 27 27" fill="none" xmlns="http://www.w3.org/2000/svg">
<path d="M13.25 26.5C20.5678 26.5 26.5 20.5678 26.5 13.25C26.5 5.93223 20.5678 0 13.25 0C5.93223 0 0 5.93223 0 13.25C0 20.5678 5.93223 26.5 13.25 26.5Z" fill="#DEFEEF"/>
<path fill-rule="evenodd" clip-rule="evenodd" d="M9.88596 3.45781H9.9722C10.0193 3.66034 10.0712 3.72822 10.144 3.88986C10.5921 4.88502 11.1104 5.76152 11.7408 6.6494L13.072 8.42352C13.2164 8.59836 13.2523 8.57001 13.2527 8.88993C13.2545 10.4009 13.4986 11.457 14.4519 12.6507C14.6296 12.8732 14.8347 13.1216 15.0554 13.2981C15.3838 13.561 15.7496 13.8675 16.1394 14.0688C16.5606 14.2862 16.5932 14.218 16.6608 14.4964C17.0337 16.0331 17.0208 17.6504 16.4359 19.1084C14.7068 23.4181 9.45673 24.8944 5.80067 22.1646C3.51906 20.461 2.48152 17.4761 3.15701 14.7146C3.50741 13.2821 4.24134 11.8352 5.10488 10.6672L7.03344 8.10995C7.26225 7.82396 7.46909 7.54211 7.68639 7.25333C7.79251 7.11228 7.88571 6.9761 7.99477 6.82848C8.10078 6.68492 8.19938 6.54889 8.29915 6.39964C8.79283 5.66239 9.3125 4.81983 9.66972 4.01788C9.74554 3.84762 9.84192 3.64689 9.88603 3.4577L9.88596 3.45781ZM10.0301 24.2903H9.78471C8.7086 24.2717 7.62692 24.031 6.6159 23.5492C4.97502 22.7671 3.68498 21.4046 2.9128 19.7473C2.33524 18.5081 2.2085 17.5079 2.2085 16.0522C2.2085 15.2764 2.43943 14.3438 2.6343 13.7607C3.26278 11.8813 4.1842 10.6079 5.3446 9.05245L6.8113 7.1548C7.6135 6.08607 8.29304 5.1108 8.89454 3.88975C9.02863 3.6174 9.18 3.24708 9.2875 2.9458C9.39461 2.64604 9.47584 2.20703 9.88592 2.20703C10.3581 2.20703 10.4148 2.47119 10.5165 2.78402C11.0346 4.37732 12.3059 6.20293 13.3484 7.54334C13.3914 7.59858 13.4275 7.6406 13.4658 7.68468C13.4964 7.31771 13.9935 6.3899 14.1809 6.1139C14.4627 5.6988 14.8844 5.2303 15.2705 4.91748C16.2633 4.11359 17.3761 3.67348 18.9436 3.67348C20.5954 3.67348 22.3403 4.64067 23.2747 5.98454L23.7687 6.82781C24.2194 7.94079 24.2898 8.17129 24.2918 9.39413V9.45311C24.2918 11.4533 22.9225 13.3258 21.1439 14.1982C20.18 14.6712 19.4902 14.7152 18.4259 14.7152C18.037 14.7152 17.7934 14.5929 17.4771 14.5858C17.4902 15.1789 17.8441 15.8456 17.6197 17.4889C17.4377 18.8223 17.0549 19.8397 16.3216 20.9352C14.8978 23.062 12.4941 24.2559 10.03 24.2904L10.0301 24.2903ZM18.426 4.44976C19.497 4.44976 19.9293 4.44891 20.9422 4.95276C21.3822 5.17172 21.9698 5.60334 22.2751 5.94901C22.8504 6.60031 23.2858 7.39512 23.4476 8.27011C23.6329 9.27124 23.5332 10.334 23.0843 11.2216C22.7798 11.8238 22.5905 12.123 22.1029 12.6125C21.2923 13.4266 20.0187 13.9819 18.7711 13.9819C17.5808 13.9819 16.2728 13.4556 15.4603 12.6344C15.0457 12.2154 14.7612 11.8454 14.4799 11.2857C13.3464 9.03144 14.2886 6.10077 16.571 4.9671C17.0271 4.74048 17.7501 4.44976 18.426 4.44976Z" fill="#00004D"/>
<path fill-rule="evenodd" clip-rule="evenodd" d="M18.4261 9.27986C18.4261 8.68631 19.1163 8.68631 19.1163 9.27986C19.1163 9.62719 18.4261 9.62719 18.4261 9.27986ZM14.7168 9.021C14.7168 10.0547 14.8705 10.5568 15.3222 11.3486C15.4543 11.5801 15.8513 12.1696 16.1401 12.1696C16.5534 12.1696 16.6384 11.765 16.4107 11.511C16.2091 11.2862 16.0059 11.0363 15.8664 10.7615C15.2033 9.45528 15.403 7.89955 16.44 6.86236C16.6466 6.65594 17.0293 6.36533 17.3183 6.23113C18.2316 5.80713 19.3944 5.7917 20.2808 6.26062L19.3492 7.6582C19.2335 7.83224 19.1379 7.95408 19.03 8.11529C18.8528 8.10053 18.9336 8.07217 18.7713 8.07217C17.2883 8.07217 17.3119 10.315 18.7713 10.315C19.4271 10.315 19.8926 9.74172 19.8926 9.23678C19.8926 8.89835 19.7909 8.76189 19.677 8.54668C19.8362 8.2455 20.0766 7.92572 20.2722 7.63232C20.4726 7.33143 20.7215 7.00038 20.8847 6.69196C21.4959 7.10134 22.0492 8.14853 22.0492 8.93476C22.0492 9.71651 22.0552 10.0146 21.676 10.7615C21.5759 10.9588 21.4817 11.0936 21.3494 11.2542C21.117 11.536 21.014 11.576 21.014 11.8246C21.014 12.1887 21.4695 12.3106 21.7357 11.9856C22.005 11.6571 22.1836 11.449 22.3919 11.0458C23.2137 9.45471 22.8649 7.5572 21.5639 6.27146C21.1884 5.90033 21.3674 6.11844 21.3499 5.87723C21.3248 5.5353 21.1174 5.52739 20.8847 5.52739C20.6503 5.52739 20.8992 5.72506 20.4391 5.49914C20.3147 5.43794 20.0819 5.35586 19.9697 5.32094C18.4858 4.86049 16.9397 5.30702 15.9785 6.27142C15.2743 6.97781 14.7168 7.90368 14.7168 9.02097V9.021Z" fill="#00004D"/>
<path fill-rule="evenodd" clip-rule="evenodd" d="M7.12564 15.7943C6.73741 15.7943 6.34901 15.7957 5.96093 15.7942C5.55864 15.7925 5.1416 15.7856 5.1416 16.1826C5.1416 16.3957 5.31659 16.5707 5.52969 16.5707H7.42748C7.74755 16.5707 7.98794 15.5901 8.17335 15.1168C8.24529 14.9329 8.33418 14.7245 8.37631 14.5435L9.51461 19.0124C9.62352 19.4636 9.68864 19.5037 9.97226 19.5037C10.2031 19.5037 10.2546 19.3569 10.3124 19.1968C10.3741 19.026 10.4366 18.8345 10.4807 18.675C10.5825 18.3061 10.6993 17.988 10.8073 17.6213C10.8829 17.3644 11.4227 15.6857 11.4387 15.4923L11.5744 15.7879C11.611 15.881 11.6575 15.9955 11.6974 16.0964C11.7831 16.3132 11.8301 16.5707 12.1288 16.5707H14.3717C14.7779 16.5707 14.9132 15.9073 14.3571 15.809L12.3876 15.7943L12.0118 14.833C11.8218 14.3582 11.7636 13.9828 11.3956 13.9828C11.0376 13.9828 11.0115 14.3734 10.8938 14.7319L10.0154 17.649C9.87571 17.5467 9.70658 16.6296 9.66163 16.45C9.56995 16.0834 8.8964 13.1571 8.75648 12.9989C8.69917 12.9343 8.56412 12.8613 8.46269 12.8613C8.07835 12.8613 7.91823 13.6506 7.69888 14.2111C7.60735 14.4449 7.13828 15.6409 7.12564 15.7943Z" fill="#00004D"/>
</svg>
