<svg width="100" height="100" viewBox="0 0 100 100" fill="none" xmlns="http://www.w3.org/2000/svg">
<path fill-rule="evenodd" clip-rule="evenodd" d="M50 0C77.6135 0 100 22.3864 100 50C100 77.6149 77.6135 100 50 100C22.3851 100 0 77.6149 0 50C0 22.3864 22.3851 0 50 0Z" fill="#F6F6F6"/>
<path fill-rule="evenodd" clip-rule="evenodd" d="M33.6789 25.6727C34.2453 25.1381 33.4344 25.3246 35.0506 25.2127L45.0641 25.3619L45.1899 28.3443C45.7742 31.2396 50.4294 32.5022 50.2747 25.4172L61.7953 25.4296C61.816 28.1481 61.5908 30.5559 64.3315 30.5048C66.9657 30.4564 66.8248 28.0694 66.8414 25.4255C75.7291 25.3633 75.2705 27.8028 75.2691 35.9225C75.2691 38.1382 74.9915 43.7189 75.3424 45.5506C75.8921 48.4252 79.9036 48.2111 80.2863 45.1638C80.6758 42.0709 80.5322 28.9576 79.6357 26.6977C77.1837 20.5147 71.8806 20.284 66.8345 20.2923C66.8262 17.6525 67.0445 15.2462 64.3287 15.2586C61.6116 15.271 61.8008 17.8196 61.7994 20.2398L50.3009 20.2909C50.2678 17.955 50.3341 15.5376 47.8683 15.2918C44.9882 15.003 44.9523 17.4978 44.9315 20.1265L33.6596 20.2978C33.672 17.7824 33.7494 15.336 31.1303 15.2558C28.3731 15.1716 28.3178 17.8625 28.3178 20.2951C20.4675 20.1652 15.1258 22.8976 15.0898 31.6347L15.0912 68.3943C15.0843 72.8285 15.7819 75.2998 18.2877 77.6854C20.864 80.1387 23.2952 80.4094 27.5816 80.4053C29.5569 80.4025 44.5986 80.6553 45.8087 80.1787C47.2025 79.629 47.8614 77.9644 46.9428 76.5389C45.0407 73.5841 29.1356 76.5347 23.9941 75.152C20.1788 74.1256 20.1664 71.0203 20.1733 66.6096L20.2575 30.024C20.8819 25.6976 23.8767 25.4365 28.3261 25.4144C28.3068 27.7683 28.3399 30.2713 30.843 30.4868C33.6002 30.7244 33.6306 28.0625 33.6748 25.6741L33.6789 25.6727Z" fill="#CBCBCB"/>
<path fill-rule="evenodd" clip-rule="evenodd" d="M28.3641 64.1114C28.2854 67.1615 33.6672 67.8356 33.6037 64.117C33.5443 60.6194 28.4415 61.078 28.3641 64.1114Z" fill="#CBCBCB"/>
<path fill-rule="evenodd" clip-rule="evenodd" d="M28.42 53.4061C28.927 56.3291 33.9717 56.3553 33.5822 52.7596C33.1761 49.0175 27.9061 50.4362 28.42 53.4061Z" fill="#CBCBCB"/>
<path fill-rule="evenodd" clip-rule="evenodd" d="M50.5978 42.3476C51.0233 45.2292 56.0874 45.3562 55.7462 41.6832C55.4243 38.2104 50.1282 39.1746 50.5978 42.3476Z" fill="#CBCBCB"/>
<path fill-rule="evenodd" clip-rule="evenodd" d="M28.3672 41.9898C28.3783 44.9418 33.5266 45.6076 33.5819 41.9926C33.6371 38.4176 28.3562 38.9314 28.3672 41.9898Z" fill="#CBCBCB"/>
<path fill-rule="evenodd" clip-rule="evenodd" d="M44.3189 43.463C46.1713 40.5097 41.7274 37.8326 40.0311 40.5497C37.9535 43.8788 42.9361 45.6691 44.3189 43.463Z" fill="#CBCBCB"/>
<path fill-rule="evenodd" clip-rule="evenodd" d="M39.7013 51.8613C39.3131 56.9364 43.8467 56.261 44.5291 53.9237C45.0016 52.3034 44.1355 51.0877 43.0842 50.6968C41.399 50.0697 40.613 51.0905 39.7013 51.8613Z" fill="#CBCBCB"/>
<path fill-rule="evenodd" clip-rule="evenodd" d="M61.86 43.1463C62.8117 43.895 63.2773 44.7238 64.9584 44.4116C67.565 43.9282 67.5139 39.7523 64.6559 39.5133C63.0991 39.3835 62.7648 40.1045 61.8379 40.8187L61.8586 43.1463H61.86Z" fill="#CBCBCB"/>
<path fill-rule="evenodd" clip-rule="evenodd" d="M39.6783 62.911C39.3993 68.1174 43.9509 67.1726 44.5476 65.0093C44.9966 63.3821 44.136 62.1858 43.0682 61.817C41.3719 61.2313 40.7102 62.2176 39.6783 62.9124V62.911Z" fill="#CBCBCB"/>
<path fill-rule="evenodd" clip-rule="evenodd" d="M45.1887 28.3464L45.063 25.364L35.0494 25.2148C33.4332 25.3267 34.2455 25.1403 33.6777 25.6749L44.8254 25.5906C44.8226 26.005 44.7742 26.657 44.7991 27.0327C44.8958 28.4472 44.7563 27.7317 45.1887 28.3464Z" fill="#787878"/>
<path fill-rule="evenodd" clip-rule="evenodd" d="M49.2535 67.2437C49.2535 64.2558 49.7978 62.2446 50.8532 59.7015C51.5646 57.9872 52.6876 56.458 53.9281 55.1167C54.1436 54.8832 54.221 54.7368 54.4613 54.4965C56.6563 52.3029 59.9053 50.398 62.918 49.7763C67.2334 48.8854 70.3208 49.1865 74.4207 50.8884C76.7386 51.8512 78.9847 53.734 80.652 55.6112L82.4727 58.2386C82.7448 58.74 83.0031 59.1489 83.2324 59.7015C84.8942 63.7033 85.2548 66.9039 84.3582 71.1364C83.7214 74.1423 82.2047 76.8277 80.1561 79.042C79.9406 79.2754 79.8647 79.4205 79.6229 79.6622L75.8822 82.5092C74.3806 83.3256 72.9205 84.0205 71.1662 84.3824C66.4806 85.3493 62.4774 84.8935 58.2532 82.5382C57.778 82.273 57.3042 81.9981 56.8856 81.6818C55.6852 80.7729 56.1093 81.15 55.0788 80.1954C53.9336 79.1359 52.8589 77.9977 52.0467 76.6384C51.0189 74.9172 50.1625 73.2637 49.737 71.2055C49.4842 69.9788 49.2494 68.7563 49.2494 67.2451L49.2535 67.2437ZM66.1311 45.9941H67.6603C69.4685 46.0632 71.2947 46.3726 73.2203 46.9003C73.556 46.9929 73.8115 47.0771 74.1582 47.1973C76.2621 47.9308 78.1752 49.0691 79.9379 50.3952C81.4961 51.568 83.2504 53.3817 84.3223 54.9882L84.85 55.7784C85.3114 56.4967 85.8778 57.4402 86.1996 58.2179C86.4635 58.8547 86.7163 59.352 86.9456 60.0261C87.668 62.1493 88.0507 64.1605 88.128 66.1663V67.6954C88.0589 69.5037 87.7495 71.3298 87.2218 73.2555C86.6817 75.228 85.8225 76.7821 84.7865 78.4798C84.3127 79.2561 83.7366 79.9606 83.1744 80.6568C82.9285 80.9621 82.8056 81.0685 82.5473 81.3475C82.3194 81.5934 82.2282 81.7522 81.9726 82.0078C81.706 82.273 81.5223 82.3794 81.2695 82.6225C80.2749 83.5826 78.8148 84.6531 77.5813 85.359C76.5397 85.9543 75.2495 86.5884 74.0961 86.9807C73.48 87.1907 72.7271 87.4435 72.129 87.5664C69.5721 88.0983 69.1411 88.1632 66.4668 88.1632C61.4662 88.1632 56.4284 85.9668 52.7747 82.5825C52.5288 82.3545 52.3699 82.2633 52.1144 82.0078C51.0189 80.911 49.5657 79.0199 48.7632 77.6164C47.857 76.0334 46.9301 73.9641 46.5557 72.1655C46.0239 69.6086 45.959 69.1776 45.959 66.5019C45.959 64.7683 46.256 63.3787 46.5696 61.9241C47.0489 59.7015 48.1319 57.5935 49.3005 55.6775C49.4939 55.3612 49.6003 55.2369 49.7964 54.9385C50.0133 54.6084 50.1321 54.4868 50.3586 54.1843C50.5686 53.9052 50.7095 53.7492 50.9112 53.5019L52.113 52.1509C54.1864 50.0775 57.2185 48.1201 59.9895 47.178C62.1141 46.4555 64.124 46.0729 66.1297 45.9955L66.1311 45.9941Z" fill="#CBCBCB"/>
<path d="M59.5356 58.0944V63.8457C59.5356 64.345 59.5132 64.7693 59.4682 65.1188C59.4283 65.4683 59.3334 65.8227 59.1837 66.1822C58.934 66.7863 58.5222 67.2581 57.948 67.5976C57.3739 67.9321 56.6749 68.0993 55.8512 68.0993C55.1073 68.0993 54.4857 67.982 53.9865 67.7474C53.4922 67.5127 53.0928 67.1333 52.7883 66.6091C52.6285 66.3295 52.4987 66.0075 52.3989 65.643C52.299 65.2786 52.2491 64.9316 52.2491 64.6021C52.2491 64.2526 52.3464 63.9855 52.5412 63.8008C52.7359 63.6161 52.9855 63.5237 53.29 63.5237C53.5846 63.5237 53.8068 63.6086 53.9565 63.7783C54.1063 63.9481 54.2211 64.2127 54.301 64.5721C54.3859 64.9565 54.4708 65.2636 54.5556 65.4932C54.6405 65.7229 54.7828 65.9201 54.9825 66.0849C55.1822 66.2496 55.4668 66.332 55.8362 66.332C56.8197 66.332 57.3115 65.6106 57.3115 64.1677V58.0944C57.3115 57.645 57.4088 57.308 57.6035 57.0834C57.8032 56.8587 58.0728 56.7464 58.4123 56.7464C58.7568 56.7464 59.0289 56.8587 59.2286 57.0834C59.4333 57.308 59.5356 57.645 59.5356 58.0944ZM65.0773 66.8862V60.0714C63.8092 61.0449 62.9555 61.5317 62.5162 61.5317C62.3065 61.5317 62.1193 61.4493 61.9545 61.2846C61.7948 61.1148 61.7149 60.9201 61.7149 60.7004C61.7149 60.4458 61.7948 60.2586 61.9545 60.1388C62.1143 60.019 62.3963 59.8642 62.8007 59.6745C63.4048 59.3899 63.8866 59.0904 64.2461 58.7758C64.6105 58.4613 64.9325 58.1093 65.2121 57.7199C65.4917 57.3305 65.6739 57.0909 65.7588 57.001C65.8437 56.9111 66.0034 56.8662 66.2381 56.8662C66.5027 56.8662 66.7149 56.9685 66.8746 57.1732C67.0344 57.3779 67.1143 57.66 67.1143 58.0195V66.5941C67.1143 67.5976 66.7723 68.0993 66.0883 68.0993C65.7838 68.0993 65.5391 67.997 65.3544 67.7923C65.1697 67.5876 65.0773 67.2856 65.0773 66.8862Z" fill="#CBCBCB"/>
</svg>
