<svg width="100" height="100" viewBox="0 0 100 100" fill="none" xmlns="http://www.w3.org/2000/svg">
<path fill-rule="evenodd" clip-rule="evenodd" d="M50 0C77.6142 0 100 22.3858 100 50C100 77.6142 77.6142 100 50 100C22.3858 100 0 77.6142 0 50C0 22.3858 22.3858 0 50 0Z" fill="#99E6FF"/>
<path fill-rule="evenodd" clip-rule="evenodd" d="M33.661 67.0241C33.9837 68.6999 33.807 69.0058 33.075 70.0649L31.2819 70.155L30.1747 68.8335C30.5118 66.1762 31.6759 66.1718 33.661 67.0241ZM37.3978 64.5133C39.2063 63.0894 40.2278 65.2621 41.5329 66.1683C42.7881 65.3507 43.9373 63.9669 44.9222 62.9493C46.1823 61.6471 46.7545 60.535 49.188 61.0398C50.6847 63.9555 47.9641 65.0834 43.5879 69.5972C41.4612 71.7913 40.8672 70.989 39.1023 69.2043C38.0867 68.1778 35.2225 66.2015 37.3983 64.5133H37.3978ZM31.029 54.7042C33.3779 52.7393 34.7885 56.3192 33.3116 57.4531C32.2228 58.289 30.9726 57.802 30.4603 56.9349C29.6788 55.6129 30.4301 55.2046 31.029 54.7042ZM41.4141 53.8188C43.1419 52.7809 44.3041 51.1714 45.7527 49.7302C47.7458 47.7475 50.6204 48.2617 49.6765 50.9447C49.578 51.2244 43.1994 58.9062 41.1528 58.4721C40.1377 57.9401 36.6732 54.7181 36.6395 53.4624C36.6034 52.1009 37.6739 51.2857 39.0702 51.7411C39.6616 51.9341 40.9791 53.4451 41.4141 53.8198V53.8188ZM30.7261 45.2243C28.4603 39.6642 36.6425 41.2975 32.8261 45.5178L30.7261 45.2243ZM41.5329 41.3653C43.4637 40.466 45.9754 36.5753 47.4083 36.1581C49.1544 35.6498 50.2907 37.0876 49.6414 38.763C49.5691 38.95 43.3073 46.7101 41.0474 45.9687C40.2105 45.694 38.7554 44.0538 38.0154 43.3277C36.7608 42.0968 36.451 41.8409 36.8687 39.6494C39.626 38.6046 39.9437 39.88 41.5324 41.3653H41.5329ZM73.0675 65.6378C72.5023 66.6311 70.8745 68.1931 70.1835 68.836C69.1526 69.7957 60.9065 73.4023 59.4069 74.0209C56.1765 75.3548 53.1663 74.2585 51.7765 72.0937C49.8879 69.1528 51.4979 66.4628 52.661 63.8615C53.7246 61.4828 54.9367 58.4523 56.1319 56.3122C56.7303 55.2407 70.3048 40.9506 72.3969 40.0181C72.8458 37.9829 74.2544 39.8681 74.2064 35.2722C74.0579 21.0409 75.8911 22.7385 65.0783 22.7242C65.0808 26.7584 64.6962 29.627 61.3619 30.7584C59.835 31.2761 39.3028 31.289 37.5284 30.8757C33.5794 29.9566 33.5086 27.037 33.5462 22.7361L26.393 22.7841C25.1027 23.0494 25.3105 23.1459 24.7632 23.9155C23.8965 25.3236 24.3771 59.2561 24.3771 65.6348C24.3771 69.6858 23.4407 76.3723 25.2794 79.2073C28.6078 79.7072 71.0348 79.6829 73.2511 79.1257C75.0314 76.4397 74.1796 69.0805 74.195 65.1542C73.8822 65.326 73.3229 65.5744 73.0675 65.6373V65.6378Z" fill="#00004D"/>
<path fill-rule="evenodd" clip-rule="evenodd" d="M75.2178 41.8417C74.3996 43.3017 62.9628 54.6623 61.2285 56.0417C61.7487 57.4355 67.9744 63.5325 69.2835 64.3977C70.3066 63.6716 70.2541 63.3677 71.4172 62.6961C72.0556 61.2623 83.1005 50.7415 85.2436 48.5881C89.065 44.7489 86.5324 44.106 83.3599 40.8993C77.9498 35.4308 78.9426 40.198 75.2178 41.8411V41.8417Z" fill="#00004D"/>
<path fill-rule="evenodd" clip-rule="evenodd" d="M42.0863 18.3487L38.0423 18.619C37.6023 19.1629 37.3959 19.0184 37.0846 20.1552C36.9658 20.5888 36.2353 25.8509 38.1744 26.965C39.3949 27.5386 58.091 27.5079 60.3637 27.0991C61.6079 25.2397 61.4609 26.2137 61.4698 23.1105C61.4842 18.3873 61.1224 18.5348 56.4186 18.4705C56.0721 14.0369 56.8101 14.369 49.5088 14.372C42.1294 14.3749 42.3358 13.7761 42.0868 18.3483L42.0863 18.3487Z" fill="#00004D"/>
<path fill-rule="evenodd" clip-rule="evenodd" d="M58.7317 59.6543C57.2973 62.8233 53.6819 68.8883 55.33 70.4567C56.7292 71.7876 64.2878 67.7989 65.8166 66.7754C64.943 65.3114 60.2407 60.7258 58.7317 59.6543Z" fill="#00004D"/>
</svg>
