<svg width="27" height="27" viewBox="0 0 27 27" fill="none" xmlns="http://www.w3.org/2000/svg">
<path d="M13.25 26.5C20.5678 26.5 26.5 20.5678 26.5 13.25C26.5 5.93223 20.5678 0 13.25 0C5.93223 0 0 5.93223 0 13.25C0 20.5678 5.93223 26.5 13.25 26.5Z" fill="#FFDAD4"/>
<path fill-rule="evenodd" clip-rule="evenodd" d="M6.86965 18.8866C5.90851 18.8866 5.45414 18.8348 4.61634 18.3382C3.6534 17.7674 2.8838 16.6166 2.83149 15.4259C2.78126 14.2828 2.96434 13.6955 3.59753 12.7716C3.74529 12.556 5.08723 11.2544 5.33488 11.0068L7.08597 9.25568C7.25617 9.08548 7.51548 8.78788 7.69371 8.66854L13.05 14.0248L12.4012 14.7357C11.7476 15.3817 9.47507 17.7276 8.90081 18.1572C8.4498 18.4946 7.63705 18.8866 6.86969 18.8866H6.86965ZM14.619 2.07621H15.0962C15.7247 2.10683 16.3458 2.25933 16.9092 2.54308C17.2594 2.71942 17.6742 2.96311 17.963 3.21976C18.0684 3.31342 18.1499 3.40633 18.2516 3.50793C19.2125 4.46731 19.6422 5.64183 19.6422 7.06161C19.6422 8.07157 19.1063 9.37631 18.4993 9.99771C18.352 10.1485 18.2779 10.2615 18.1282 10.4095L10.0937 18.4436C9.79863 18.7387 9.5699 18.9372 9.21024 19.1671C7.73521 20.11 6.17041 20.1119 4.59754 19.4694C4.09669 19.2648 3.59079 18.8839 3.23352 18.5261C2.21201 17.5029 1.80176 16.4223 1.80176 14.89C1.80176 13.949 2.20817 13.0283 2.584 12.4585C3.00964 11.8132 3.57666 11.3228 4.11936 10.7801L11.3297 3.56972L12.2088 2.84193C12.9179 2.38039 13.7635 2.1176 14.619 2.07617L14.619 2.07621ZM13.7916 13.3243L8.38383 7.93711C8.84811 7.61801 12.0757 4.10639 12.7633 3.68483C14.3018 2.74151 16.2794 2.95113 17.5315 4.22812C18.7715 5.49269 18.9847 7.615 17.942 9.06959C17.387 9.84384 14.0277 12.9716 13.7915 13.3243H13.7916Z" fill="#00004D"/>
<path fill-rule="evenodd" clip-rule="evenodd" d="M15.8103 21.4001L21.115 16.0747C21.3264 16.3853 21.5322 16.6952 21.667 17.0678C22.3271 18.8921 21.5159 20.8574 19.9171 21.7164C19.4081 21.9899 18.6823 22.1705 18.0764 22.1709C17.479 22.1712 16.7541 21.9751 16.2395 21.6713L15.8102 21.4001H15.8103ZM15.1201 20.6687C14.7121 20.367 14.327 19.1332 14.327 18.4335C14.327 17.4024 14.7302 16.3995 15.4275 15.7022L15.9273 15.2956C16.934 14.5522 18.256 14.4166 19.4413 14.8437C19.7085 14.94 20.246 15.1966 20.3837 15.3846L15.1201 20.6687H15.1201ZM17.9116 23.1718C18.9271 23.1718 19.2519 23.1107 20.1485 22.7306C20.4097 22.6199 20.9942 22.2437 21.1974 22.049L21.7538 21.4929C22.4058 20.7937 22.897 19.5668 22.897 18.5983C22.897 17.7009 22.8095 17.0671 22.4306 16.3042C22.1617 15.7627 21.848 15.346 21.4447 14.9416C19.8599 13.3529 17.1649 13.0961 15.3683 14.4482C15.2538 14.5343 15.1472 14.605 15.0394 14.6961C14.7106 14.9743 14.4485 15.287 14.1972 15.6255C14.0155 15.8702 13.892 16.0816 13.762 16.3852C13.6934 16.5454 13.6456 16.6234 13.59 16.79C13.5331 16.9602 13.501 17.0834 13.4533 17.2714C13.1416 18.5021 13.3841 19.9902 14.1149 21.0354C14.1892 21.1417 14.2745 21.2729 14.3587 21.3684C14.8815 21.9615 15.2197 22.3015 16.0024 22.6913C16.496 22.9372 17.2005 23.1718 17.9116 23.1718H17.9116Z" fill="#00004D"/>
<path fill-rule="evenodd" clip-rule="evenodd" d="M13.8326 6.11478C13.8326 5.71119 13.4796 5.43367 13.1253 5.61146C12.9631 5.69283 12.3878 6.31705 12.0731 6.58016C11.9485 6.68431 11.8384 6.81112 11.721 6.92854C11.5566 7.09299 10.7548 7.70785 11.3166 8.13662C11.7859 8.4948 12.2624 7.82927 12.5451 7.54658C12.765 7.32669 13.8326 6.358 13.8326 6.11478Z" fill="#00004D"/>
</svg>
