<svg width="27" height="27" viewBox="0 0 27 27" fill="none" xmlns="http://www.w3.org/2000/svg">
<path d="M13.25 26.5C20.5678 26.5 26.5 20.5678 26.5 13.25C26.5 5.93223 20.5678 0 13.25 0C5.93223 0 0 5.93223 0 13.25C0 20.5678 5.93223 26.5 13.25 26.5Z" fill="#F1FFB2"/>
<path fill-rule="evenodd" clip-rule="evenodd" d="M13.7247 23.3415V17.4325C14.9972 17.729 15.9198 18.3819 16.3185 19.6693C16.4223 20.0043 16.4136 20.116 16.4426 20.5371C16.4955 21.3053 17.3908 21.1708 17.3908 20.6674C17.3908 19.8433 17.3233 19.6027 17.0216 18.8799C16.6767 18.0532 15.9552 17.35 15.1769 16.9289C14.8772 16.7667 14.1432 16.4928 13.7247 16.4836V6.82203C16.1967 7.02789 17.8635 8.01208 19.2138 9.35548C19.3233 9.46449 19.3369 9.50155 19.4309 9.61268C19.5264 9.72568 19.5761 9.76985 19.6713 9.89001C20.1295 10.4694 20.5276 11.0696 20.8166 11.7637C21.0145 12.2384 21.2032 12.713 21.3127 13.2517C21.4904 14.1251 21.6008 15.0792 21.4706 15.9915C21.2101 17.8173 20.5399 19.485 19.2346 20.7859C18.0894 21.9273 17.0559 22.5925 15.4652 23.0549C15.034 23.1801 14.2411 23.3415 13.7247 23.3415L13.7247 23.3415ZM12.925 2.20707H13.2674C13.5296 2.22512 13.7247 2.32722 13.7266 2.80886L13.7247 5.8732C15.817 6.04743 17.1672 6.60349 18.7026 7.66695L19.3211 8.16981C19.4421 8.29014 19.5066 8.32022 19.6234 8.42822C20.2896 9.04446 20.8773 9.90293 21.3407 10.6791C21.7012 11.2828 22.103 12.4169 22.2543 13.1298C22.3207 13.4437 22.4995 14.8121 22.4821 15.1453L22.3916 16.2225C22.2565 17.1774 22.0449 17.9978 21.6603 18.8554C21.2223 19.8323 20.5546 20.8038 19.8385 21.5193C19.2532 22.104 18.6469 22.593 17.9338 23.0219C16.8045 23.7009 15.1114 24.2904 13.5951 24.2904H13.5753H13.2331C12.9709 24.2723 12.7756 24.1702 12.7737 23.6886L12.7756 20.6243C12.567 20.5756 12.4614 20.5991 12.2263 20.5697C11.1549 20.4361 10.138 20.148 9.19576 19.6754C8.38181 19.2671 7.20097 18.4734 6.59744 17.7879C6.20272 17.3398 5.93441 17.0253 5.58995 16.5094C4.67498 15.1388 4.10795 13.5423 4.0645 11.8672C4.05912 11.6639 4.00675 11.5722 4.01825 11.3522C4.02936 11.1428 4.06537 11.0583 4.06277 10.7898C4.06051 10.5669 4.08537 10.4619 4.10604 10.2725C4.37608 7.80795 5.88538 5.29186 7.89337 3.92376C9.33346 2.94253 10.9759 2.20703 12.9052 2.20703H12.925L12.925 2.20707ZM4.96888 11.3941C4.96888 10.8372 5.07147 10.0668 5.17509 9.61618C5.51122 8.15349 6.2537 6.72191 7.28723 5.68994C7.64823 5.32947 7.92938 5.06745 8.33924 4.75795C9.44215 3.92522 11.2858 3.15597 12.7757 3.15597V16.3974C12.0156 16.3974 11.0956 15.7481 10.6616 15.1472C10.4404 14.841 10.2393 14.4346 10.1292 13.9977C10.0551 13.7036 10.1522 12.7742 9.62722 12.7742C8.50951 12.7742 9.46844 14.9947 9.65608 15.3333C10.147 16.2185 11.0861 16.9413 12.0695 17.2331C12.8343 17.46 12.7849 17.1704 12.7765 17.7768L12.7757 19.6755C11.1147 19.5372 9.59311 18.994 8.37629 18.0796C7.807 17.6517 7.27056 17.1658 6.8291 16.6075C5.65628 15.124 4.96892 13.3241 4.96892 11.3942L4.96888 11.3941Z" fill="#00004D"/>
<path fill-rule="evenodd" clip-rule="evenodd" d="M9.97223 10.4889C10.3372 10.4889 10.4899 10.3362 10.4899 9.97125C10.4899 9.58803 9.97883 9.4204 9.7001 9.69913C9.42138 9.97785 9.58901 10.4889 9.97223 10.4889Z" fill="#00004D"/>
<path fill-rule="evenodd" clip-rule="evenodd" d="M16.0107 13.6794C16.0107 14.2644 16.5797 14.2586 16.8005 14.0378C17.0214 13.817 17.0273 13.248 16.4421 13.248C16.1997 13.248 16.0107 13.4371 16.0107 13.6794Z" fill="#00004D"/>
</svg>
