<svg width="100" height="100" viewBox="0 0 100 100" fill="none" xmlns="http://www.w3.org/2000/svg">
<path d="M50 100C77.6142 100 100 77.6142 100 50C100 22.3858 77.6142 0 50 0C22.3858 0 0 22.3858 0 50C0 77.6142 22.3858 100 50 100Z" fill="#00004D"/>
<path fill-rule="evenodd" clip-rule="evenodd" d="M48.3827 77.0769H51.8845V81.7915H48.3827V77.0769ZM48.7874 65.8975C48.7874 64.3779 51.4811 64.1169 51.4811 66.0329C51.4811 67.6988 48.7874 67.7982 48.7874 65.8975ZM63.3346 60.5101L65.1055 61.9716C65.9344 62.6402 67.1196 63.7936 68.0492 64.4152L66.433 66.4362C65.7423 66.2746 65.0461 65.4513 64.5074 64.9941C64.2325 64.7606 64.1234 64.7026 63.8402 64.4498L61.3151 62.3943C61.4656 62.1692 63.0887 60.6745 63.336 60.5088L63.3346 60.5101ZM49.9989 70.0734C52.5793 70.0734 54.3087 68.2583 54.3087 65.6281C55.0657 65.6281 56.1929 65.2717 56.8118 65.0327C57.2303 64.8711 57.6088 64.7302 57.9487 64.5534C58.3396 64.3503 58.5413 64.1238 59.0234 64.0105L60.9324 65.6032C61.1396 65.7649 61.4477 65.9845 61.4477 66.3009V81.7915H54.7122V76.8076C54.7122 75.4317 53.5297 74.2478 52.1524 74.2478C49.5872 74.2478 45.5523 73.5406 45.5523 76.9415V81.7901H38.8167V66.2994C38.8167 65.7925 41.1678 64.1238 41.5449 63.7743L44.3974 61.3721C45.7415 60.3154 49.1093 57.286 50.1329 56.6009C50.8291 56.9697 54.1775 59.959 55.0008 60.6234C55.3034 60.8679 55.4871 61.0406 55.809 61.2962C56.3145 61.6982 56.472 61.7769 56.5977 62.1236C52.7409 63.9732 52.7906 61.8543 49.8621 61.8543C48.076 61.8543 46.0082 63.6017 46.0441 66.0108C46.0772 68.2251 47.8315 70.0706 49.9961 70.0706L49.9989 70.0734ZM33.9695 66.4362C33.5772 66.1489 32.3947 64.7758 32.3533 64.2813C32.8727 64.1432 33.0896 63.7439 33.5082 63.4152C33.754 63.2218 33.7871 63.1637 34.0109 62.9759L41.7508 56.4378C42.0091 56.2072 42.0865 56.1906 42.3517 55.9599L43.9692 54.6145C44.211 54.399 44.2552 54.3188 44.5342 54.1006L47.902 51.273C48.489 50.813 49.6439 49.6305 50.2682 49.4647C50.5832 49.6761 50.6261 49.7811 50.9106 50.0353L54.2756 52.8656C54.708 53.2773 55.2122 53.6503 55.6749 54.0246L59.0441 56.8523C59.6657 57.3537 60.3785 58.0872 61.1797 58.6232C60.931 58.9934 60.6175 59.2987 60.2569 59.586C59.8425 59.9161 59.5386 60.18 59.1588 60.5088L51.0473 53.6682C49.7502 52.7317 48.8551 54.0647 47.844 54.8507C47.174 55.3728 46.551 55.9323 45.8659 56.5083L37.0334 63.976C36.7019 64.2702 36.3441 64.5672 36.0098 64.838C35.536 65.2206 34.5124 66.2912 33.9709 66.4362H33.9695ZM63.0652 56.6023L54.8668 49.7134C54.4372 49.3653 54.1264 49.049 53.6361 48.7893C53.8709 48.3472 54.078 47.883 54.3087 47.441L56.6005 43.6713C57.0853 43.8011 58.4253 45.025 58.9433 45.3704C61.5955 47.1385 64.7284 48.1165 68.32 48.1165C68.1666 48.7796 67.6058 49.8778 67.2688 50.4331C66.3543 51.936 64.3085 55.6933 63.0667 56.6036L63.0652 56.6023ZM72.2251 34.3774C68.6626 34.3774 68.7288 29.2691 72.1049 29.1711C74.2046 29.1103 75.6813 31.7777 74.0761 33.5348C73.7004 33.9464 72.9766 34.3774 72.2238 34.3774H72.2251ZM53.2327 24.9482C50.7269 24.9482 45.4045 24.7949 43.1349 24.9537C40.5973 25.1319 41.0241 27.7772 42.592 27.7772H54.0408C55.8061 27.7772 55.4815 24.252 59.6381 21.1177C60.8841 20.1783 62.0251 19.496 63.6662 18.9489C65.1829 18.4434 67.248 18.1215 69.0162 18.3231C73.9463 18.8881 77.8293 21.3567 80.0381 25.7549C82.8962 31.4476 81.1957 38.9801 75.9175 42.6491C74.8566 43.3867 73.7515 43.884 72.6285 44.478C72.7279 43.29 73.1686 42.2802 73.1686 40.8422C73.17 39.7192 73.3855 38.0878 72.8979 37.0697C74.0471 37.0434 75.423 36.1262 76.0335 35.4922C78.9703 32.4449 77.4412 26.429 71.819 26.429C69.356 26.429 66.835 28.8202 66.835 31.2777C66.835 33.3497 67.1472 34.5957 68.7593 35.9549C69.1834 36.3127 69.6102 36.379 69.8975 36.8377C69.9306 36.8888 70.084 37.2245 70.1116 37.2977C71.0233 39.7427 70.0301 43.0082 69.5314 45.1521C66.5919 45.8373 63.2586 44.6258 60.8675 43.3094C60.2044 42.9433 59.7086 42.4806 59.1588 42.0551C55.4097 39.1597 55.9871 35.7229 53.7714 35.7229H46.3631C45.3133 35.7229 44.856 36.7713 44.4775 37.4745C44.0341 38.2936 43.5783 39.0533 43.1307 39.8987C41.6154 38.7881 40.6567 32.6203 37.9658 37.5629C37.6302 38.179 36.7999 39.3227 36.6645 39.8987C35.5111 39.1265 34.9185 35.7229 33.2968 35.7229C32.3118 35.7229 31.8049 36.9744 31.4181 37.6154C31.0631 38.2052 30.4166 39.5714 29.929 39.8974C29.7577 39.1597 27.9716 36.0903 27.263 35.8292C26.6165 35.5889 21.8493 35.7215 20.6351 35.7215C20.4224 34.8112 18.7565 32.257 18.791 31.6989C18.8325 31.0566 20.3368 28.5922 20.7691 27.7745L30.0713 27.7828C32.3547 27.78 32.6682 24.9454 29.5242 24.9454H20.7691C18.4623 24.9454 18.6488 26.1017 17.697 27.6654C17.2923 28.3284 15.7852 31.156 15.7852 31.815C15.7852 32.4269 18.0893 36.752 18.5203 37.5656C19.1792 38.8089 19.9611 38.5491 21.7126 38.5491C23.1493 38.5491 24.5858 38.5491 26.0225 38.5491C26.5446 39.3282 27.0184 40.2745 27.5102 41.1033C28.5407 42.8397 30.7606 43.3978 32.1226 41.8202C32.3657 41.5384 33.0703 40.3767 33.1628 40.0313H33.4321C33.5247 40.3767 34.2292 41.5384 34.4723 41.8202C35.6285 43.1602 37.6066 42.9668 38.7214 41.6849C39.1565 41.1834 39.4301 40.24 39.897 39.8974C40.1884 41.1461 41.4192 42.7264 42.86 42.7264C45.1751 42.7264 45.7816 40.7124 46.7513 39.0741C46.9309 38.7702 46.906 38.5505 47.3052 38.5505C53.9648 38.5505 52.6774 38.0215 53.846 39.9568C54.2066 40.5549 54.4925 40.9831 54.8489 41.515C53.6581 43.2928 52.4923 44.9919 51.4811 46.9023C50.557 46.6868 50.8056 46.6329 49.7295 46.6329C48.5788 46.6329 45.3368 49.8363 44.3229 50.6555C43.4374 51.371 42.6583 52.0852 41.7632 52.8104L38.644 55.4834C38.3691 55.7168 38.2586 55.7748 37.9768 56.0276L34.0855 59.2752C33.8493 59.4658 33.7637 59.5929 33.5261 59.7932C32.6862 60.5046 30.8725 61.8225 30.2343 62.5629C29.3378 63.6017 29.3198 65.1626 30.139 66.2263C31.0327 67.388 32.2387 69.2625 33.8369 69.2625C35.0111 69.2625 35.2984 68.8923 36.1258 68.4544C36.1258 70.2101 35.9573 81.0939 36.1548 82.2999C36.3358 83.4132 37.3414 84.4838 38.6855 84.4838H61.8538C63.0031 84.4838 64.0626 83.2806 64.1428 82.1935C64.2961 80.1256 64.1428 70.9809 64.1428 68.4544C65.2023 68.7376 64.8334 69.2625 66.7024 69.2625C67.9235 69.2625 69.3878 67.2333 70.1517 66.247C71.0814 65.0466 70.888 63.3047 69.7691 62.2894L65.2202 58.4878C65.607 57.909 66.0186 57.4242 66.433 56.8716C68.2827 54.399 69.9017 51.7357 71.091 48.868C71.475 47.9425 71.4875 47.6662 72.4627 47.412C78.9952 45.7074 84.2126 39.2564 84.2126 32.2211C84.2126 29.7112 83.6642 26.8337 82.7332 24.9454C82.2607 23.9867 81.9113 23.3472 81.3048 22.4672C78.5794 18.5207 73.7032 15.5176 68.7233 15.5176C63.97 15.5176 61.0319 16.4818 57.7332 19.076C56.8974 19.7322 56.2054 20.5265 55.4884 21.2766C54.8599 21.9341 53.4537 23.9951 53.2327 24.9468V24.9482Z" fill="white"/>
<path fill-rule="evenodd" clip-rule="evenodd" d="M35.1811 26.2961C35.1811 28.3999 37.8748 27.8833 37.8748 26.7008C37.8748 25.9521 37.7048 24.9492 36.6619 24.9492C35.8897 24.9492 35.1797 25.5294 35.1797 26.2961H35.1811Z" fill="white"/>
</svg>
