<svg width="100" height="100" viewBox="0 0 100 100" fill="none" xmlns="http://www.w3.org/2000/svg">
<path fill-rule="evenodd" clip-rule="evenodd" d="M50 0C77.6135 0 100 22.3864 100 50C100 77.6149 77.6135 100 50 100C22.3851 100 0 77.6149 0 50C0 22.3864 22.3851 0 50 0Z" fill="#99E6FF"/>
<path fill-rule="evenodd" clip-rule="evenodd" d="M33.6614 67.0266C33.9832 68.7022 33.8078 69.0088 33.0757 70.067L31.2826 70.1568L30.1748 68.8348C30.5119 66.177 31.6763 66.1729 33.6614 67.0252V67.0266ZM37.3979 64.5152C39.2062 63.0911 40.227 65.2639 41.5338 66.1701C42.7895 65.3523 43.9387 63.9682 44.9223 62.9516C46.1821 61.6489 46.7553 60.537 49.1879 61.0425C50.6839 63.9586 47.964 65.0871 43.5879 69.6001C41.4606 71.7937 40.8666 70.9911 39.1026 69.2064C38.0873 68.18 35.2223 66.2033 37.3979 64.5152ZM31.0299 54.7062C33.3782 52.7419 34.79 56.321 33.3119 57.4551C32.2234 58.2922 30.9732 57.8046 30.4608 56.9371C29.6789 55.6151 30.4304 55.2062 31.0299 54.7062ZM41.415 53.8207C43.1431 52.7833 44.3048 51.1726 45.7539 49.7318C47.7472 47.7496 50.6218 48.2635 49.6784 50.9461C49.5803 51.2251 43.2011 58.9069 41.1553 58.4732C40.14 57.9414 36.6755 54.7186 36.6424 53.463C36.6065 52.1009 37.677 51.2859 39.0722 51.7418C39.6634 51.9352 40.9813 53.445 41.4164 53.8207H41.415ZM30.7274 45.2259C28.4619 39.6659 36.6437 41.2986 32.827 45.5201L30.7274 45.2259ZM41.5338 41.3677C43.4636 40.4684 45.9763 36.5785 47.4087 36.1599C49.1548 35.6516 50.2916 37.0896 49.6424 38.7652C49.5706 38.9517 43.3088 46.7122 41.0489 45.9704C40.2118 45.6955 38.7572 44.0545 38.0168 43.3293C36.7625 42.0985 36.4517 41.8429 36.8703 39.6506C39.6275 38.6063 39.9452 39.8813 41.5338 41.3677ZM73.0676 65.6397C72.5027 66.6329 70.8754 68.1952 70.1834 68.8375C69.1529 69.7976 60.9061 73.4044 59.4073 74.0232C56.1763 75.3576 53.1663 74.2608 51.7766 72.0962C49.8883 69.1553 51.4976 66.4657 52.6621 63.8646C53.7257 61.4859 54.9372 58.4552 56.1335 56.3155C56.7316 55.2435 70.3063 40.9547 72.3977 40.0209C72.8466 37.9861 74.2542 39.8717 74.2073 35.2759C74.0595 21.045 75.8925 22.7413 65.0792 22.7289C65.0819 26.7625 64.6979 29.6316 61.3619 30.7629C59.8355 31.2809 39.3029 31.2934 37.5292 30.8804C33.5799 29.9604 33.5094 27.0416 33.5467 22.7414L26.394 22.7897C25.1038 23.0549 25.311 23.1516 24.764 23.9211C23.8965 25.3287 24.3772 59.2606 24.3772 65.6411C24.3772 69.6927 23.4406 76.3785 25.2792 79.213C28.6069 79.7131 71.0343 79.6882 73.2514 79.1315C75.032 76.4447 74.1797 69.0862 74.1949 65.159C73.8827 65.3303 73.3232 65.5789 73.0676 65.6425V65.6397Z" fill="#00004D"/>
<path fill-rule="evenodd" clip-rule="evenodd" d="M75.2157 41.8433C74.3979 43.3034 62.9602 54.6637 61.2266 56.0437C61.7473 57.4375 67.9718 63.5335 69.2813 64.3996C70.3035 63.673 70.2524 63.3691 71.4141 62.6977C72.0523 61.2639 83.0963 50.7434 85.2402 48.5899C89.0611 44.751 86.5291 44.1087 83.3561 40.9011C77.9453 35.4323 78.9384 40.2008 75.2143 41.8433H75.2157Z" fill="#00004D"/>
<path fill-rule="evenodd" clip-rule="evenodd" d="M42.088 18.3495L38.0433 18.6203C37.6026 19.1645 37.3968 19.0195 37.0846 20.1563C36.9658 20.5901 36.2351 25.8517 38.1745 26.9665C39.3943 27.5397 58.0911 27.5094 60.3634 27.1005C61.608 25.2412 61.4602 26.215 61.4699 23.1125C61.4837 18.3896 61.1218 18.5374 56.4182 18.4725C56.0715 14.0383 56.8092 14.3712 49.5086 14.374C42.1294 14.3767 42.3352 13.7786 42.0866 18.3495H42.088Z" fill="#00004D"/>
<path fill-rule="evenodd" clip-rule="evenodd" d="M58.7295 59.6562C57.2956 62.8251 53.6792 68.8907 55.3285 70.4586C56.7278 71.7902 64.2867 67.8008 65.8145 66.7772C64.9415 65.313 60.2379 60.7282 58.7295 59.6562Z" fill="#00004D"/>
</svg>
