<svg width="27" height="27" viewBox="0 0 27 27" fill="none" xmlns="http://www.w3.org/2000/svg">
<path d="M13.25 26.5C20.5678 26.5 26.5 20.5678 26.5 13.25C26.5 5.93223 20.5678 6.18539e-08 13.25 3.9847e-08C5.93223 1.78401e-08 2.11392e-08 5.93223 4.72157e-08 13.25C7.32922e-08 20.5678 5.93223 26.5 13.25 26.5Z" fill="#99E6FF"/>
<path d="M12.1237 3.27979C13.5489 3.27979 14.7709 3.57046 15.7898 4.15178C16.815 4.72686 17.5901 5.54884 18.1151 6.61774C18.6402 7.68038 18.9027 8.93054 18.9027 10.3682C18.9027 11.4309 18.759 12.3966 18.4714 13.2655C18.1839 14.1344 17.7526 14.8876 17.1775 15.5252C16.6024 16.1628 15.8961 16.6503 15.0585 16.9879C14.2209 17.3254 13.2614 17.4942 12.18 17.4942C11.1048 17.4942 10.1422 17.3223 9.29209 16.9785C8.44198 16.6284 7.73251 16.1377 7.16368 15.5064C6.59486 14.8751 6.16355 14.1156 5.86976 13.228C5.58222 12.3404 5.43845 11.3809 5.43845 10.3495C5.43845 9.29309 5.58847 8.32421 5.88851 7.44285C6.1948 6.56148 6.63549 5.81138 7.21056 5.19255C7.78564 4.57372 8.48573 4.10178 9.31084 3.77673C10.136 3.44544 11.0736 3.27979 12.1237 3.27979ZM16.0805 10.3495C16.0805 9.3431 15.918 8.47111 15.5929 7.73351C15.2679 6.99591 14.8022 6.43959 14.1959 6.06454C13.5958 5.68324 12.9051 5.49259 12.1237 5.49259C11.5674 5.49259 11.0517 5.59885 10.5766 5.81138C10.1078 6.01766 9.70152 6.32082 9.35772 6.72087C9.02018 7.12093 8.75139 7.6335 8.55137 8.25858C8.35759 8.87741 8.2607 9.57438 8.2607 10.3495C8.2607 11.1308 8.35759 11.8372 8.55137 12.4685C8.75139 13.0998 9.02956 13.6249 9.38585 14.0437C9.7484 14.4563 10.161 14.7657 10.6235 14.972C11.0923 15.1782 11.6049 15.2814 12.1612 15.2814C12.8738 15.2814 13.527 15.1032 14.1209 14.7469C14.7209 14.3906 15.196 13.8406 15.546 13.0967C15.9023 12.3529 16.0805 11.4371 16.0805 10.3495Z" fill="#00004D"/>
<path d="M14.8097 9.49833L14.8097 19.5028L20.4542 19.5028C20.9043 19.5028 21.2481 19.6122 21.4856 19.831C21.7294 20.0497 21.8513 20.3248 21.8513 20.6561C21.8513 20.9936 21.7325 21.2686 21.495 21.4812C21.2575 21.6875 20.9105 21.7906 20.4542 21.7906L13.7315 21.7906C13.1251 21.7906 12.6876 21.6562 12.4188 21.3874C12.1563 21.1186 12.025 20.6842 12.025 20.0841L12.025 9.49833C12.025 8.93576 12.15 8.51383 12.4 8.23254C12.6563 7.95125 12.9907 7.81061 13.4033 7.81061C13.8221 7.81061 14.1596 7.95125 14.4159 8.23254C14.6785 8.50758 14.8097 8.92951 14.8097 9.49833Z" fill="#00004D"/>
</svg>
