<svg width="100" height="100" viewBox="0 0 100 100" fill="none" xmlns="http://www.w3.org/2000/svg">
<path fill-rule="evenodd" clip-rule="evenodd" d="M50 0C77.6143 0 100 22.3857 100 50C100 77.6143 77.6143 100 50 100C22.3857 100 0 77.6143 0 50C0 22.3857 22.3857 0 50 0Z" fill="#FF5963"/>
<path fill-rule="evenodd" clip-rule="evenodd" d="M28.2332 24.3887L79.275 34.9174L79.6549 37.4582L79.2036 39.4804C79.0176 39.2926 78.8276 39.3195 78.6415 39.1317C77.8436 38.3265 76.608 37.5904 76.2728 36.4626C76.1171 35.9408 75.5358 35.7765 75.1924 35.4321C74.1219 35.0452 73.2271 35.0239 72.1823 35.7621L71.1997 37.5874L27.6523 28.5595L28.2336 24.3887H28.2332Z" fill="white"/>
<path fill-rule="evenodd" clip-rule="evenodd" d="M23.0289 42.9953L32.1168 42.3418V55.6144L19.1055 55.3792L19.1507 52.9835L23.0289 42.9953Z" fill="white"/>
<path d="M78.0784 50.4902H61.9023V55.4024H78.0784V50.4902Z" fill="white"/>
<path d="M63.0534 50.4902H48.1699V62.8611H63.0534V50.4902Z" fill="white"/>
<path d="M42.9627 42.6016H32.4766V52.2842H42.9627V42.6016Z" fill="white"/>
<path d="M71.9035 41.6582H54.3809V46.9195H71.9035V41.6582Z" fill="white"/>
<path fill-rule="evenodd" clip-rule="evenodd" d="M33.2872 50.7852V43.7647C33.2872 43.436 33.5203 43.203 33.849 43.203H41.712C42.0407 43.203 42.2737 43.436 42.2737 43.7647C42.2737 45.4526 42.4476 49.9978 42.1333 51.3469C41.6942 51.3834 41.6346 51.4873 41.1503 51.4873H34.2702C33.7968 51.4873 33.2872 51.2391 33.2872 50.7852ZM23.1776 43.203L29.9185 43.2017C32.1833 43.1826 31.6024 42.5086 31.6024 50.7852C31.6024 51.3495 30.9468 51.4521 30.4263 51.5752C29.7768 51.7287 29.2837 51.8782 28.7655 52.0204L22.195 53.7343C21.6303 53.8743 21.0711 54.0073 20.5085 54.1543C19.6237 54.3856 19.1055 54.3739 19.1055 54.8573V62.8608H25.5646C26.005 62.8608 28.3576 59.9121 31.6024 59.9121C33.7129 59.9121 34.8968 59.796 36.8946 60.7978C37.982 61.343 38.4146 61.7426 39.2198 62.5447C40.6063 63.9256 41.645 65.7034 41.8524 68.1965H44.0989V44.0452C44.0989 42.7243 43.3976 41.6582 42.2737 41.6582H24.8624C23.9485 41.6582 23.3568 42.4321 23.1776 43.2026V43.203Z" fill="#00004D"/>
<path fill-rule="evenodd" clip-rule="evenodd" d="M48.1704 52.0486H78.0782V41.6582H71.3382L71.1978 45.8704C69.7025 46.2186 57.8382 46.0108 55.3308 46.0108C54.4217 46.0108 54.7691 43.2791 54.7691 41.6582H48.1699V52.0486H48.1704Z" fill="#00004D"/>
<path fill-rule="evenodd" clip-rule="evenodd" d="M56.1758 62.8605H63.0562C63.4606 62.8605 64.011 62.1075 64.3171 61.8749C64.771 61.5297 65.204 61.2196 65.7514 60.9223C68.2814 59.5462 71.9171 59.5366 74.4801 60.8449C75.1201 61.1718 76.7632 62.1331 76.9575 62.8609H78.081V53.4531H56.1767V62.8609L56.1758 62.8605Z" fill="#00004D"/>
<path fill-rule="evenodd" clip-rule="evenodd" d="M26.4062 68.8999C26.4062 72.3669 29.1815 75.2186 32.4441 75.2186C34.378 75.2186 35.7793 74.7482 37.0467 73.503C39.5367 71.0569 39.5515 66.9399 37.1184 64.5064C35.2802 62.6682 32.3467 62.2116 29.9597 63.3269C28.0784 64.206 26.4062 66.4003 26.4062 68.9003V68.8999Z" fill="#00004D"/>
<path fill-rule="evenodd" clip-rule="evenodd" d="M30.7598 69.1806C30.7598 66.0558 34.6915 66.7484 34.6915 68.8997C34.6915 71.574 30.7598 71.494 30.7598 69.1806Z" fill="white"/>
<path fill-rule="evenodd" clip-rule="evenodd" d="M63.8984 68.8997C63.8984 72.2653 66.6006 75.2184 69.9362 75.2184C71.8702 75.2184 73.2715 74.7479 74.5389 73.5027C77.058 71.0275 77.0549 66.8005 74.5393 64.4375C70.5089 60.651 63.8984 63.5779 63.8984 68.9001V68.8997Z" fill="#00004D"/>
<path fill-rule="evenodd" clip-rule="evenodd" d="M68.25 69.1805C68.25 66.0744 72.1817 66.7014 72.1817 68.8996C72.1817 71.637 68.25 71.4496 68.25 69.1805Z" fill="white"/>
<path fill-rule="evenodd" clip-rule="evenodd" d="M19.1055 53.1722C22.5998 52.3579 26.8559 51.0348 30.3385 50.2235V44.4666C20.8946 44.4666 22.8668 43.8492 21.5868 46.3861C21.2303 47.0935 20.935 47.8209 20.6498 48.5383C20.0233 50.1139 19.5298 51.3513 19.1055 53.1722Z" fill="#00004D"/>
<path fill-rule="evenodd" clip-rule="evenodd" d="M45.3637 68.1954H61.0898C61.0898 66.0276 61.9868 65.1102 62.2128 64.2637H45.3633V68.1954H45.3637Z" fill="#00004D"/>
<path fill-rule="evenodd" clip-rule="evenodd" d="M48.1719 62.8609H54.7714V53.4531H48.1719V62.8609Z" fill="#00004D"/>
<path fill-rule="evenodd" clip-rule="evenodd" d="M56.1758 44.7469H69.9362V41.6582H56.1758V44.7469Z" fill="#00004D"/>
<path fill-rule="evenodd" clip-rule="evenodd" d="M34.5508 44.8881V50.0833H41.0099V44.4668H34.9721C34.6486 44.4668 34.5508 44.5646 34.5508 44.8881Z" fill="#00004D"/>
<path fill-rule="evenodd" clip-rule="evenodd" d="M79.4844 62.8616H82.2926V53.0325C82.2926 52.1899 81.6374 51.656 81.1396 51.2364C80.5787 50.7634 80.0748 50.3386 79.4844 49.9434V62.8612V62.8616Z" fill="#00004D"/>
<path fill-rule="evenodd" clip-rule="evenodd" d="M21.7734 28.0384C22.6908 28.1149 25.1417 28.8619 25.9856 28.881C26.0661 27.9141 27.0939 23.9414 27.1091 23.2645C26.8204 23.1258 23.3956 22.4219 22.8965 22.4219C22.8965 23.2932 22.5243 24.5401 22.3691 25.2645C22.1561 26.2584 21.9865 27.1236 21.7734 28.0384Z" fill="#00004D"/>
<path fill-rule="evenodd" clip-rule="evenodd" d="M18.263 64.6869C18.263 66.7104 17.9517 68.1973 18.6843 68.1973H23.5986C23.5986 67.3112 23.7178 66.7339 23.963 66.0343L24.7221 64.266L19.6647 64.2634C19.0156 64.2547 18.263 64.0756 18.263 64.6873V64.6869Z" fill="#00004D"/>
<path fill-rule="evenodd" clip-rule="evenodd" d="M38.6227 37.026H36.9375V40.2556H41.1501V32.6734C40.5088 32.6591 40.0644 32.4426 39.4653 32.3926C39.4653 33.2817 39.4627 34.1713 39.4653 35.0608C39.4688 36.1904 39.7684 37.0265 38.6227 37.0265V37.026Z" fill="#00004D"/>
<path fill-rule="evenodd" clip-rule="evenodd" d="M79.3422 68.1954H83.414V64.2637H78.2188C78.3509 64.8306 78.7253 65.4432 78.9218 66.088C79.0909 66.6428 79.3266 67.5067 79.3422 68.195V68.1954Z" fill="#00004D"/>
<path fill-rule="evenodd" clip-rule="evenodd" d="M27.3906 28.4589C27.7732 28.6424 28.9111 28.8802 29.4967 28.8802C29.4967 28.8802 32.8237 25.9154 33.0071 25.2293C31.4363 25.2293 29.8041 24.3867 28.2332 24.3867L27.3906 28.4589Z" fill="#00004D"/>
<path fill-rule="evenodd" clip-rule="evenodd" d="M72.4609 38.2888V40.2545H76.2522C76.0801 39.5162 75.774 38.761 75.5348 38.0232C74.7001 35.4458 72.4609 36.4197 72.4609 38.2888Z" fill="#00004D"/>
<path fill-rule="evenodd" clip-rule="evenodd" d="M28.0918 38.7098V40.2546H31.4618V38.2889C31.4618 37.4115 30.6396 36.7441 29.7766 36.7441C28.7761 36.7441 28.0918 37.6567 28.0918 38.7098Z" fill="#00004D"/>
<path fill-rule="evenodd" clip-rule="evenodd" d="M37.0795 29.8649C37.693 29.701 38.2817 28.8736 38.7295 28.4258C39.3704 27.7849 39.663 27.531 40.1686 26.7762C38.6991 26.654 37.1486 25.9336 35.5352 25.9336C36.1182 27.1488 36.5021 28.6614 37.0795 29.8653V29.8649Z" fill="#00004D"/>
<path fill-rule="evenodd" clip-rule="evenodd" d="M65.724 35.9023C66.4649 35.4062 68.2971 33.4436 68.8132 32.6727C67.6988 32.6479 65.2332 31.8301 64.1797 31.8301L65.724 35.9018V35.9023Z" fill="#00004D"/>
<path fill-rule="evenodd" clip-rule="evenodd" d="M51.3998 32.8141C52.0133 32.6502 52.6016 31.8228 53.0498 31.375C53.5977 30.8276 54.0685 30.3532 54.489 29.7254C53.5424 29.7041 51.0529 28.8828 49.8555 28.8828C50.1116 29.4159 50.3516 30.1937 50.5977 30.808C50.8655 31.4754 51.0998 32.2476 51.3998 32.8141Z" fill="#00004D"/>
<path fill-rule="evenodd" clip-rule="evenodd" d="M31.1801 29.3035C32.7053 29.6588 34.2992 29.9335 35.8136 30.2866L35.031 28.2609C34.7884 27.6557 34.4023 26.7861 34.2688 26.2148C33.651 26.3801 31.6506 28.6005 31.1797 29.304L31.1801 29.3035Z" fill="#00004D"/>
<path fill-rule="evenodd" clip-rule="evenodd" d="M45.5039 32.2513C46.9574 32.5899 48.5439 32.8956 49.9969 33.2343C49.9778 32.3647 48.9 30.4799 48.5926 29.1621C47.9783 29.3265 47.3922 30.1534 46.943 30.6012C46.4374 31.1052 45.8848 31.6821 45.5039 32.2513Z" fill="#00004D"/>
<path fill-rule="evenodd" clip-rule="evenodd" d="M38.3418 30.8467C38.9848 30.8611 39.9931 31.135 40.6001 31.2563C41.3183 31.3998 42.244 31.6893 42.9753 31.6893C42.6474 31.0702 42.4557 30.4024 42.1748 29.6815C41.9605 29.1333 41.4761 28.1607 41.4309 27.6172C40.827 28.0215 40.3835 28.5941 39.8514 29.1267C39.3918 29.5867 38.5092 30.2211 38.3418 30.8467Z" fill="#00004D"/>
<path fill-rule="evenodd" clip-rule="evenodd" d="M59.8246 35.2L64.3177 36.1831C64.2416 35.2696 62.9842 32.9626 62.9133 32.1113C62.2642 32.2844 60.2412 34.5783 59.8242 35.2005L59.8246 35.2Z" fill="#00004D"/>
<path fill-rule="evenodd" clip-rule="evenodd" d="M52.6641 33.7942C53.2767 33.8077 54.2501 34.0977 54.8988 34.2273C55.5058 34.3486 56.5141 34.6225 57.1571 34.6368C57.091 33.8399 56.0006 31.7681 55.7528 30.7051C55.1397 30.8686 54.551 31.6964 54.1032 32.1442C53.6554 32.592 52.828 33.1807 52.6641 33.7938V33.7942Z" fill="#00004D"/>
<path fill-rule="evenodd" clip-rule="evenodd" d="M44.2397 31.4077L47.3632 28.3529C46.9732 28.1477 43.2775 27.3842 42.6953 27.3359C42.921 28.3055 44.0514 30.5994 44.2397 31.4077Z" fill="#00004D"/>
<path fill-rule="evenodd" clip-rule="evenodd" d="M66.8457 36.7434C67.7461 36.7634 69.9835 37.4847 71.1988 37.586C71.5031 36.2787 70.1831 34.9482 70.0753 33.6543C69.5553 33.793 67.1879 36.2326 66.8457 36.7434Z" fill="#00004D"/>
<path fill-rule="evenodd" clip-rule="evenodd" d="M58.56 34.3569L61.6834 31.3021C61.26 31.0804 57.7804 30.463 57.0156 30.2852L58.56 34.3569Z" fill="#00004D"/>
<path fill-rule="evenodd" clip-rule="evenodd" d="M72.182 35.7618C73.8133 34.8987 73.7998 35.2418 74.9903 35.3405L76.0025 34.2457C74.4442 33.8609 72.8651 33.5896 71.3398 33.2344C71.412 34.1009 72.1103 34.8953 72.1824 35.7618H72.182Z" fill="#00004D"/>
<path fill-rule="evenodd" clip-rule="evenodd" d="M76.0801 36.0101L76.934 38.0301C77.1601 38.754 77.1492 39.008 78.6401 39.1323C78.5996 38.6467 77.3405 35.5236 77.0957 35.0605L76.0801 36.0106V36.0101Z" fill="#00004D"/>
<path fill-rule="evenodd" clip-rule="evenodd" d="M79.623 37.5876C79.9109 36.3515 80.4217 34.8219 78.5 34.7793C78.6313 35.3419 78.81 35.6745 79.0091 36.2358C79.1622 36.6667 79.33 37.2497 79.6235 37.5876H79.623Z" fill="#00004D"/>
<path fill-rule="evenodd" clip-rule="evenodd" d="M69.6536 68.4783V68.7592C69.291 68.7592 69.6388 69.3079 69.794 69.6018C71.454 69.6018 70.6258 68.3379 70.3558 68.3379C70.1345 68.3379 69.8236 68.4122 69.6536 68.4783Z" fill="#00004D"/>
<path fill-rule="evenodd" clip-rule="evenodd" d="M32.1634 68.4783V68.7592C31.8008 68.7592 32.1482 69.3079 32.3039 69.6018C33.9643 69.6018 33.1356 68.3379 32.8656 68.3379C32.6443 68.3379 32.3334 68.4122 32.1634 68.4783Z" fill="#00004D"/>
</svg>
