<?xml version="1.0" encoding="UTF-8"?>
<!DOCTYPE svg PUBLIC "-//W3C//DTD SVG 1.1//EN" "http://www.w3.org/Graphics/SVG/1.1/DTD/svg11.dtd">
<!-- Creator: CorelDRAW Standard 2021 (64-Bit Evaluation Version) -->
<svg xmlns="http://www.w3.org/2000/svg" xml:space="preserve" width="8.5in" height="11in" version="1.1" style="shape-rendering:geometricPrecision; text-rendering:geometricPrecision; image-rendering:optimizeQuality; fill-rule:evenodd; clip-rule:evenodd"
viewBox="0 0 8500 11000"
 xmlns:xlink="http://www.w3.org/1999/xlink"
 xmlns:xodm="http://www.corel.com/coreldraw/odm/2003">
 <defs>
  <style type="text/css">
   <![CDATA[
    .fil1 {fill:#00004D}
    .fil0 {fill:#99E6FF}
    .fil2 {fill:white}
   ]]>
  </style>
 </defs>
 <g id="Layer_x0020_1">
  <metadata id="CorelCorpID_0Corel-Layer"/>
  <path class="fil0" d="M5858.1 2577.32c199.9,0 361.96,162.06 361.96,361.96 0,199.91 -162.06,361.96 -361.96,361.96 -199.9,0 -361.96,-162.05 -361.96,-361.96 0,-199.9 162.06,-361.96 361.96,-361.96z"/>
  <g id="_1851411759456">
   <path class="fil1" d="M5858.1 2763.47c14.43,0 36.83,2.27 49.94,4.72 14.97,2.79 29.16,6.35 41.91,11.02 11.98,4.39 25.85,10.22 35.57,16.01 27.77,16.53 22.01,13.65 43.77,31.54 4.28,3.52 8.44,8.54 12.18,12.41 24.94,25.87 40.4,66.59 40.4,100.11 0,40.07 -18.55,79.91 -50.6,110.82l-18.55 15.54c-6.72,5.29 -12.98,9.32 -20.69,13.87l-23.03 12.02c-30.19,13.65 -51.98,18.15 -86.6,22.3 -5.53,0.67 -12.62,0.52 -17.33,1.04 -7.88,0.86 -11.93,-0.48 -18.33,-0.61 -25.94,-0.53 -44.15,-4.59 -64.14,-9.84 -12.79,-3.35 -27.73,-9.26 -39.43,-14.6 -15.58,-7.12 -17.72,-3.64 -34.91,0.33 -7.69,1.78 -13.07,3.17 -20.45,5.1l-41.05 10.07c0.6,-5.63 24.86,-57.57 24.86,-64.3 0,-6.95 -6.79,-13.03 -11.74,-20.89 -13.25,-21.02 -24.25,-45.44 -24.48,-71.11 -0.04,-5.1 -1.67,-7.85 -1.02,-13.76 3.39,-30.87 8.65,-54.9 29.55,-82.6l6.98 -9.17c12.56,-16.41 36.41,-34.5 56.22,-46.18 12.94,-7.62 21.04,-10.96 36.35,-17.02 26.42,-10.46 65.5,-16.81 94.63,-16.81zm-11.41 -32.56l26.11 0c33.44,1.3 66.65,7.6 97.54,19.25 29.32,11.06 53.87,24.58 75.52,41.59 21.29,16.72 39.77,37 53.27,59.89 17.65,29.91 24.17,55.68 24.17,93.33 0,78.3 -64.99,151.37 -153.66,183.68 -39.63,14.44 -71.96,18.99 -120.87,18.99 -34.65,0 -77.74,-9.26 -107.74,-21.16 -12.59,-4.99 -12.51,-7 -19,-5.26l-50.28 12.68c-9.85,2.46 -50.44,13.74 -58.13,13.74 -11.73,0 -20.72,-7.07 -20.72,-16.28 0,-5.87 26.72,-69.17 31.72,-80.89 2.83,-6.63 4.17,-6.65 1.47,-10.23 -9.91,-13.19 -16.46,-26.6 -22.71,-42.46 -9.13,-23.19 -10.49,-39.38 -10.49,-64.2 0,-30.04 11.91,-61.89 24.5,-82.49 14.08,-23.04 31.28,-42.33 52.93,-59.33 47.37,-37.22 111.29,-58.35 176.36,-60.84z"/>
   <g>
    <path class="fil2" d="M5728.61 2937.15c0,37.45 51.8,37.45 51.8,0 0,-12.85 -11.24,-23.82 -27.97,-23.82 -11.81,0 -23.83,12.02 -23.83,23.82z"/>
    <path class="fil2" d="M5935.8 2937.15c0,37.45 51.8,37.45 51.8,0 0,-12.85 -11.24,-23.82 -27.97,-23.82 -11.81,0 -23.83,12.02 -23.83,23.82z"/>
    <path class="fil2" d="M5832.2 2937.15c0,37.45 51.8,37.45 51.8,0 0,-12.85 -11.24,-23.82 -27.97,-23.82 -11.81,0 -23.83,12.02 -23.83,23.82z"/>
   </g>
  </g>
 </g>
</svg>
