<svg width="60" height="60" viewBox="0 0 60 60" fill="none" xmlns="http://www.w3.org/2000/svg">
<rect width="60" height="60" rx="8" fill="#99E6FF"/>
<path d="M21.27 30C20.48 29.05 20 27.83 20 26.5C20 23.48 22.47 21 25.5 21H30.5C33.52 21 36 23.48 36 26.5C36 29.52 33.53 32 30.5 32H28" stroke="#00004D" stroke-width="1.5" stroke-linecap="round" stroke-linejoin="round"/>
<path d="M38.73 30C39.52 30.95 40 32.17 40 33.5C40 36.52 37.53 39 34.5 39H29.5C26.48 39 24 36.52 24 33.5C24 30.48 26.47 28 29.5 28H32" stroke="#00004D" stroke-width="1.5" stroke-linecap="round" stroke-linejoin="round"/>
</svg>
