<svg width="27" height="27" viewBox="0 0 27 27" fill="none" xmlns="http://www.w3.org/2000/svg">
<path d="M13.25 26.5C20.5678 26.5 26.5 20.5678 26.5 13.25C26.5 5.93223 20.5678 0 13.25 0C5.93223 0 0 5.93223 0 13.25C0 20.5678 5.93223 26.5 13.25 26.5Z" fill="#EBF3B8"/>
<path fill-rule="evenodd" clip-rule="evenodd" d="M9.03428 16.6617C8.67939 16.6617 8.66604 16.5184 8.6684 16.2154C8.67042 15.9522 8.62818 15.82 8.62818 15.5246C8.62818 14.881 8.75378 14.3123 8.91718 13.8237C9.16255 13.0902 9.5405 12.7399 9.56221 12.4788C9.31785 12.1977 9.22781 12.357 8.79063 12.357C8.27167 12.357 7.35962 12.3877 6.90527 12.1712C6.59525 12.0234 6.65238 11.6875 7.09024 11.6312C8.14559 11.4957 8.49068 11.8779 9.67983 11.5C10.7869 11.1481 10.2329 10.8651 9.92793 10.6511C9.47423 10.3326 9.35395 10.2165 9.02343 9.85C8.7311 9.52588 8.71421 9.35484 8.7906 9.02694C9.09068 9.02694 9.20917 9.14796 9.38871 9.28168C9.91589 9.6744 10.3803 10.2047 11.146 10.2047C11.8085 10.2047 12.212 9.64686 12.4178 9.16168C12.6463 8.62293 12.5673 7.73569 12.5673 6.99646L12.5667 2.97539C12.5603 2.41922 12.4603 2.52938 13.7856 2.52938C14.0328 2.52938 13.9481 3.08559 13.9481 3.504V6.99646C13.9481 7.73559 13.8681 8.62138 14.0977 9.16168C14.3385 9.72868 14.7227 10.2047 15.4507 10.2047C16.3854 10.2047 17.1397 9.02694 17.6436 9.02694C17.8029 9.02694 17.8545 9.44824 17.512 9.8293C17.2055 10.1702 17.031 10.3478 16.6121 10.6351C16.4086 10.7747 16.1817 10.8929 16.1817 11.0574C16.1817 11.3554 17.2648 11.6666 17.6436 11.6666C18.5675 11.6666 18.6044 11.5421 19.3881 11.6277C19.8687 11.6803 20.0749 12.1079 19.2659 12.2736C18.8928 12.35 17.8146 12.4025 17.4156 12.3384C17.3514 12.328 17.3225 12.3024 17.2062 12.3232C16.4046 12.4668 17.8873 13.1458 17.8873 15.4839L17.8197 16.5128C17.7312 16.7002 17.2645 16.8146 17.2005 16.2519C17.131 15.6397 17.3253 15.3749 16.9791 14.321C16.5491 13.0122 16.1744 12.5736 15.201 11.7945L14.6851 11.2545C14.6223 11.1766 14.5738 11.1413 14.5106 11.0635C14.1837 10.6611 13.896 10.232 13.6309 9.79087C13.3184 9.27076 13.2206 9.23142 12.8999 9.76555L12.1784 10.8309C11.9332 11.1442 11.6376 11.5248 11.3371 11.7764C10.6598 12.3436 10.3121 12.5402 9.854 13.5015C9.80759 13.599 9.78382 13.6535 9.73798 13.751C9.55517 14.1399 9.3223 15.0256 9.31694 15.4823C9.31421 15.7164 9.41426 16.6616 9.03428 16.6616V16.6617ZM15.4507 9.75797L15.1664 9.71735C15.1664 9.3605 15.219 9.08529 15.2514 8.74644C15.2793 8.45502 15.3171 8.0626 15.379 7.77766C15.4698 7.35962 15.5969 6.9696 15.9471 6.72136C16.5771 6.27491 18.2645 7.25279 18.8515 7.77853C19.7779 8.60806 20.3633 9.30221 20.9334 10.448C22.0594 12.7113 22.5168 15.2718 22.5168 17.9206C22.5168 19.925 21.6288 21.597 19.686 20.8327C19.156 20.6243 18.7296 20.4534 18.2392 20.2083C16.9419 19.5599 15.986 18.7765 15.1258 17.677C15.0423 17.5703 14.9765 17.5078 14.8978 17.3771C14.3829 16.5212 14.5686 14.6558 14.7023 13.6798L14.8822 12.1134C15.1474 12.291 15.6402 12.7433 15.8453 13.0182C15.9923 13.2153 16.0933 13.3567 16.2092 13.5884C16.5946 14.3587 16.7525 14.9711 16.7501 15.9308C16.7487 16.5502 16.8355 17.1084 17.603 17.1084C18.4002 17.1084 18.334 16.1647 18.334 15.5652C18.334 13.8571 17.6921 13.0117 17.6436 12.8037C18.5356 12.8037 19.5694 12.8619 20.0317 12.4302C20.4498 12.0398 20.274 11.3876 19.6676 11.2264C18.7091 10.9715 18.2219 11.3687 17.2694 11.1474C17.0767 11.1026 16.9679 11.1071 16.872 10.9762C17.0759 10.9218 17.5132 10.4759 17.6741 10.3164C18.4762 9.52173 18.3404 8.58022 17.603 8.58022C17.2239 8.58022 16.7709 8.98504 16.5344 9.17664C16.2942 9.37115 15.8391 9.75794 15.4507 9.75794L15.4507 9.75797ZM8.30332 9.10821C8.30332 9.62458 8.40978 9.89015 8.82093 10.2962C8.98658 10.4599 9.43452 10.9205 9.64345 10.9763C9.35493 11.37 7.75837 11.1387 7.40988 11.1387C6.30956 11.1387 5.96127 11.9423 6.4838 12.4303C6.94603 12.8619 7.97987 12.8038 8.87184 12.8038C8.82545 13.0029 8.18146 13.8805 8.18146 15.5246C8.18146 15.757 8.19744 16.4172 8.2448 16.5984C8.39697 17.1805 9.77165 17.6048 9.76538 15.9715C9.76268 15.2649 9.83206 14.8157 10.0038 14.3012C10.2934 13.4334 10.6868 12.865 11.3668 12.3341C11.4794 12.2462 11.5342 12.1797 11.6333 12.1134C11.638 12.3238 11.6943 12.6301 11.7218 12.8777C11.7489 13.1214 11.7752 13.4024 11.8132 13.6798C11.9676 14.8065 12.1874 16.6986 11.4431 17.6086C11.1633 17.9507 11.0383 18.1305 10.7094 18.4587C9.53899 19.6273 8.41217 20.2246 6.85859 20.8213C5.63472 21.2913 4.77586 20.9614 4.29931 19.6911C3.68791 18.0612 4.11448 15.01 4.48589 13.5347C4.78011 12.366 5.09765 11.4228 5.58237 10.4484C5.91589 9.77786 6.24423 9.28054 6.70693 8.73023C7.24574 8.08937 7.82481 7.5813 8.55945 7.17152C10.6768 5.99046 11.0372 6.69995 11.2605 8.70949C11.299 9.05532 11.3491 9.36077 11.3491 9.71748C10.2899 9.96424 9.80465 8.58039 8.83122 8.58039C8.5822 8.58039 8.30329 8.8593 8.30329 9.10831L8.30332 9.10821ZM11.7958 9.35187C11.6585 8.76259 11.7155 7.98935 11.4767 7.27491C11.2625 6.63402 10.8239 6.14364 10.0496 6.14364C9.33723 6.14364 8.09813 6.89105 7.47939 7.35021C7.26371 7.51024 6.76899 7.95113 6.61486 8.15069C6.07217 8.8533 5.83158 8.96613 5.27106 10.0963C4.65521 11.338 4.47301 11.8456 4.08781 13.2584C4.00714 13.5541 3.95698 13.8447 3.89378 14.1608C3.54781 15.8907 3.21382 18.7924 4.11758 20.3602C4.86644 21.6592 5.85589 21.6738 7.09122 21.2162C7.44291 21.0859 8.38979 20.6836 8.6923 20.5026C8.86894 20.3968 9.00836 20.3274 9.18412 20.2228C9.51141 20.0279 10.2183 19.5374 10.5273 19.2511L11.6568 18.0659C11.9476 17.6983 12.0638 17.5985 12.2168 17.0828C12.7482 15.2915 11.9637 11.9999 12.0395 11.7073C12.0986 11.619 12.1178 11.614 12.1917 11.5346L12.6604 10.9476C12.7631 10.8111 13.1748 10.2416 13.2172 10.0829H13.2984C13.339 10.235 13.711 10.755 13.8375 10.9246C13.9445 11.068 14.0229 11.1798 14.1407 11.3117C14.2181 11.3984 14.2306 11.4313 14.3041 11.5137C14.3806 11.5995 14.4124 11.6122 14.4761 11.7073C14.4302 12.2575 14.3228 12.8504 14.2741 13.4141C14.1712 14.6068 13.9424 15.8201 14.2896 17.0513C14.4988 17.7932 14.9372 18.139 15.3793 18.6418L15.7659 19.0268C16.8439 20.0235 17.9999 20.704 19.3945 21.2054C19.7765 21.3428 20.1307 21.4943 20.6488 21.4943C22.2995 21.4943 22.9635 19.4536 22.9635 18.0831C22.9635 16.8505 22.9772 16.4089 22.7893 15.1303C22.699 14.5154 22.5748 13.8889 22.4274 13.2993C21.9671 11.4585 21.357 9.97263 20.1851 8.47545C20.0866 8.34968 20.0106 8.29577 19.9178 8.17422C19.2873 7.34867 17.3996 6.14371 16.344 6.14371C15.2467 6.14371 14.9413 7.4147 14.8487 8.26264C14.8105 8.61177 14.7904 9.04804 14.7196 9.3519C14.3112 8.88202 14.3948 8.21244 14.3948 7.64629C14.3948 7.11853 14.4217 2.72887 14.3801 2.54404C14.2427 1.93255 13.4668 2.08269 12.7298 2.08269C11.9295 2.08269 12.1206 3.09297 12.1206 3.50406C12.1206 4.11927 12.152 8.31438 12.1054 8.6057C12.0793 8.76876 12.0441 8.89062 11.9942 9.02239C11.972 9.08108 11.9501 9.13363 11.9176 9.18945L11.7958 9.3519L11.7958 9.35187Z" fill="#00004D"/>
</svg>
