<svg width="27" height="27" viewBox="0 0 27 27" fill="none" xmlns="http://www.w3.org/2000/svg">
<path fill-rule="evenodd" clip-rule="evenodd" d="M12.1077 2.70575C12.1077 1.81364 11.9472 0.899524 12.7776 0.477248C13.6754 0.0206556 14.4886 0.76093 14.4886 1.4119L14.4886 2.86104L12.263 2.86104C12.1437 2.86104 12.1077 2.825 12.1077 2.70575Z" fill="black"/>
<path fill-rule="evenodd" clip-rule="evenodd" d="M12.936 3.68945L14.1782 3.68945C14.1973 3.91748 14.4541 4.46749 14.5328 4.68055C14.6897 5.10508 15.6625 7.52597 15.6792 7.72657C15.3502 7.80316 14.93 8.06498 14.644 8.08883L13.7786 5.90047C13.6307 5.53292 13.4839 5.16192 13.3578 4.82034L12.936 3.68945Z" fill="black"/>
<path fill-rule="evenodd" clip-rule="evenodd" d="M12.0562 8.08983C11.6692 7.99959 11.3883 7.81303 11.021 7.72757C11.0467 7.41805 12.2376 4.67121 12.2632 4.36328C12.393 4.45842 12.6007 5.0646 12.6696 5.25089C13.0025 6.15215 13.0081 5.6354 12.4403 7.12827C12.3149 7.45806 12.2038 7.81078 12.0562 8.08983Z" fill="black"/>
<path fill-rule="evenodd" clip-rule="evenodd" d="M14.6958 8.96974L16.1968 8.40039C16.3025 8.6206 16.3935 8.89249 16.4928 9.13947C16.586 9.37187 16.712 9.66973 16.7661 9.90134C16.5666 9.91804 15.4485 10.3737 15.2652 10.4707C15.2514 10.3043 14.7851 9.15563 14.6958 8.96974Z" fill="black"/>
<path fill-rule="evenodd" clip-rule="evenodd" d="M11.435 10.4189C11.1422 10.3945 10.2187 9.92493 9.93408 9.90134C9.96071 9.58162 10.3534 8.82227 10.4516 8.40039C10.6928 8.4204 10.9766 8.55846 11.1907 8.64458C11.4226 8.73786 11.7214 8.86401 11.9526 8.91793C11.9318 9.16783 11.5355 9.9876 11.435 10.4189Z" fill="black"/>
<path fill-rule="evenodd" clip-rule="evenodd" d="M21.8379 6.38086L23.1319 6.38086L23.1319 9.48638L21.8379 9.48638L21.8379 6.38086Z" fill="black"/>
<path fill-rule="evenodd" clip-rule="evenodd" d="M5.68986 8.29688L8.64009 16.1122L7.44958 16.1122L6.14115 12.659C5.85085 11.9381 5.94452 11.4535 5.94876 10.4705C5.9534 9.40828 5.7728 9.9616 5.6937 9.53521C5.65355 9.31911 5.68986 8.56797 5.68986 8.297L5.68986 8.29688Z" fill="black"/>
<path fill-rule="evenodd" clip-rule="evenodd" d="M19.2504 16.1124L18.0601 16.1124C18.0775 15.9013 20.0823 10.687 20.2558 10.234C20.3882 9.88846 20.4934 9.60385 20.6259 9.25829L21.0102 8.29688C21.0102 8.62693 21.0447 9.18714 21.0116 9.48885C20.9594 9.96425 20.7442 9.41623 20.751 10.4186C20.7571 11.3274 20.8439 11.9559 20.5738 12.6222L19.5933 15.2131C19.4884 15.5072 19.3723 15.8582 19.2504 16.1124Z" fill="black"/>
<path fill-rule="evenodd" clip-rule="evenodd" d="M9.20945 15.3347C9.19157 15.1207 8.88483 14.4051 8.80308 14.1882C8.76731 14.0931 8.73524 14.0138 8.70198 13.9223C8.59877 13.6369 8.74637 13.5587 8.93121 13.0381L9.83048 10.7285C10.0642 10.7479 10.5696 11.0097 10.9174 11.0908L9.46876 14.8178C9.40211 14.986 9.34739 15.2338 9.20945 15.3349L9.20945 15.3347Z" fill="black"/>
<path fill-rule="evenodd" clip-rule="evenodd" d="M15.7827 11.0918C15.9611 11.077 16.7147 10.7598 16.8697 10.6777L17.749 13.0073C18.0547 13.7766 18.1016 13.6367 17.9111 14.1513C17.8192 14.3992 17.5092 15.1134 17.4908 15.3359C17.3051 15.1999 16.18 12.0834 16.0043 11.6466C15.9253 11.4499 15.8712 11.259 15.7827 11.0918Z" fill="black"/>
<path fill-rule="evenodd" clip-rule="evenodd" d="M3.30908 10.2637L5.17242 10.2637L5.17242 11.8681L3.30908 11.8681L3.30908 10.2637Z" fill="black"/>
<path fill-rule="evenodd" clip-rule="evenodd" d="M21.5273 10.2637L23.3907 10.2637L23.3907 11.8681L21.5273 11.8681L21.5273 10.2637Z" fill="black"/>
<path fill-rule="evenodd" clip-rule="evenodd" d="M3.56787 12.6953L4.86173 12.6953L4.86173 16.5771L3.56787 16.5771L3.56787 12.6953Z" fill="black"/>
<path fill-rule="evenodd" clip-rule="evenodd" d="M21.8379 12.6953L23.1319 12.6953L23.1319 16.5771L21.8379 16.5771L21.8379 12.6953Z" fill="black"/>
<path fill-rule="evenodd" clip-rule="evenodd" d="M0.876554 21.7012C0.876554 21.196 0.806329 20.9766 1.03184 20.9766L7.39804 20.9766C7.62793 20.9766 7.55333 21.2182 7.55333 21.7529C7.55333 21.8721 7.51729 21.9082 7.39804 21.9082L1.08365 21.9082C0.962412 21.9082 0.876554 21.8223 0.876554 21.7011L0.876554 21.7012Z" fill="black"/>
<path fill-rule="evenodd" clip-rule="evenodd" d="M26.4996 21.3841L26.4996 22.2562C26.4996 22.8625 26.0359 22.798 25.9485 23.2579C25.9132 23.4443 25.9189 23.5455 25.88 23.707C25.4978 25.301 24.1275 26.3688 22.6464 26.5003L22.028 26.5003C21.4161 26.4447 20.806 26.2231 20.2578 25.8065L19.8079 25.4283C19.1957 24.8166 18.7877 23.9397 18.7877 23.0325C18.0162 22.8527 18.1013 21.3031 18.5132 20.8947C18.8438 20.5669 18.8699 20.7546 19.1664 20.254C19.4966 19.6964 19.8096 19.1818 20.1363 18.636C20.6427 17.7896 20.9134 17.6188 20.91 16.8217C20.9063 15.9766 20.9099 15.1306 20.9099 14.2854C20.8306 14.3767 20.8494 14.3517 20.7983 14.4844L20.2448 15.9495C20.0832 16.3838 19.8993 17.3391 19.3054 17.3391C17.1656 17.3391 17.1682 17.5894 16.7539 16.5265C16.6106 16.1592 16.477 15.8367 16.3492 15.482L15.135 12.3487C14.5123 10.7111 15.0442 12.7177 14.1372 10.4481C13.4904 8.82989 13.9302 9.31444 13.7866 8.83599C13.6547 8.39688 13.4047 7.99952 13.3016 7.5571L13.1981 7.5571C13.1348 7.82873 12.6806 8.85096 12.6806 8.95444C12.6806 9.29178 12.7944 9.21109 12.6582 9.60435L12.2298 10.7294C11.9972 11.3235 12.1218 11.2359 11.6672 11.6678C11.4933 11.833 10.738 13.9672 10.5805 14.3595C10.4297 14.7353 10.2989 15.0627 10.1636 15.4436C10.0283 15.8248 9.89452 16.1449 9.74572 16.5266C9.33126 17.5896 9.33405 17.3393 7.19418 17.3393C6.82968 17.3393 6.6728 17.0525 6.56481 16.7783L5.92219 15.0918C5.82745 14.8424 5.76346 14.4852 5.58975 14.2855C5.58975 15.1477 5.59518 16.0118 5.58948 16.8738C5.58763 17.1434 5.55464 17.2816 5.66011 17.4759C6.17858 18.4313 6.80172 19.3539 7.35239 20.2866C7.43997 20.435 7.51854 20.5872 7.64919 20.6626C7.69371 20.6883 7.77599 20.7237 7.8474 20.775C8.47757 21.2277 8.441 22.8626 7.71186 23.0325C7.71186 23.4895 7.53789 24.084 7.38485 24.4134C7.28256 24.6335 7.19485 24.7774 7.06076 24.9692L6.43403 25.6364C5.65348 26.2938 4.9682 26.5001 3.88183 26.5001C2.27833 26.5001 0.941275 25.1418 0.609099 23.6654C0.581142 23.5416 0.579949 23.366 0.542717 23.2142C0.4872 22.9878 0.4766 23.05 0.324624 22.9148C0.137932 22.7487 1.28433e-07 22.5901 1.26534e-07 22.256L1.21622e-07 21.3922C0.0348475 21.1056 0.165357 20.9236 0.5875 20.6698C0.757099 20.5677 0.798174 20.4351 0.902319 20.2601C1.13433 19.8704 2.66019 17.48 2.69172 17.1842C2.74936 16.6434 2.69133 13.6843 2.69133 12.9914C2.54942 12.9535 2.61593 12.9824 2.53246 12.8915C2.52663 12.8852 2.46581 12.7895 2.45349 12.7634C2.29476 12.4249 2.38075 11.0002 2.38075 10.5587C2.38075 10.3526 2.47787 10.2554 2.57817 10.135C2.79269 9.87703 2.63422 9.35883 2.69477 9.00943C2.71915 8.86871 2.84025 8.6954 3.0019 8.6954C3.65857 8.6954 3.46777 9.38625 3.46777 9.93758L4.76163 9.93758L4.76163 6.83219L3.46777 6.83219L3.46777 7.50503C3.46777 8.03238 2.69146 8.05225 2.69146 7.50503C2.69146 6.81272 2.51179 6.00407 3.51958 6.00407C4.46774 6.00407 5.35708 5.80241 5.63559 6.52771C5.90642 7.2334 8.0496 12.7466 8.07438 13.043L8.17786 13.043C8.21734 12.569 9.03076 11.0265 9.02373 10.7228C9.01234 10.2267 8.76748 10.8406 9.25693 9.51571C9.39685 9.13715 9.53359 8.60146 9.72956 8.28028C9.86444 8.05914 9.98449 8.11731 10.1104 7.93645C10.155 7.87218 10.1253 7.9171 10.1626 7.83336C10.3561 7.39664 11.6242 4.19162 11.6456 3.93364C11.4805 3.88952 11.4526 3.84447 11.3671 3.69448C11.1185 3.25816 11.2314 2.28256 11.2314 1.75985C11.2314 1.28988 11.5868 0.806258 11.8386 0.555436C12.2284 0.167081 12.7251 6.402e-08 13.3534 6.7181e-08C14.322 7.20539e-08 15.2168 0.948295 15.2168 1.91501C15.2168 2.28124 15.3865 3.73966 14.8544 3.88183C14.8618 4.21613 15.144 4.76137 15.2679 5.07274C15.3988 5.40187 16.2489 7.74511 16.4075 7.97023C16.5406 8.15878 16.6189 8.0765 16.7719 8.38231C16.9414 8.72137 17.0838 9.17333 17.2278 9.53094C17.9193 11.2492 17.0073 9.63601 17.9008 11.8599C18.0301 12.182 18.2941 12.7044 18.3223 13.043L18.4258 13.043C18.4442 12.8224 18.6783 12.3207 18.7663 12.0895L20.5259 7.43123C20.7414 6.8685 20.8545 6.00407 21.6348 6.00407C22.4728 6.00407 23.7385 5.78479 23.8088 6.62497C23.8971 7.679 23.7457 8.7806 23.8047 9.83808C23.8278 10.2517 24.1191 10.1563 24.1191 10.5587L24.1191 12.4219C24.1191 12.6575 24.0441 12.9284 23.8085 12.9913C23.8085 13.9229 23.8085 14.8546 23.8085 15.7862C23.8085 16.6729 23.6265 16.9799 24.0449 17.6718C24.2833 18.066 25.6553 20.5149 25.9125 20.6695C26.3292 20.9201 26.4628 21.1074 26.5 21.3838L26.4996 21.3841Z" fill="#00004D"/>
<path fill-rule="evenodd" clip-rule="evenodd" d="M25.1112 22.3222C24.7951 23.023 24.9454 22.8161 25.2539 22.7363C25.2149 23.2033 24.9938 23.7879 24.6969 24.1461C24.5852 24.2808 24.5189 24.3931 24.3874 24.5094C24.1444 24.7243 23.8937 24.8679 23.5985 25.0146C22.9334 25.3449 22.1329 25.3338 21.4449 25.0442C20.5253 24.6569 19.7157 23.7177 19.7157 22.7363L24.9044 22.8427C25.1078 22.8427 25.2253 21.8962 24.9578 21.8981L19.6105 21.91C19.0684 21.919 19.1465 22.0119 19.1465 21.1319C19.1465 21.0126 19.1825 20.9766 19.3018 20.9766L25.668 20.9766C25.8935 20.9766 25.8232 21.196 25.8232 21.7012C25.8232 22.2584 25.1112 21.47 25.1112 22.3222Z" fill="white"/>
<path fill-rule="evenodd" clip-rule="evenodd" d="M1.4458 22.7363L6.98388 22.7363C6.98388 23.3854 6.54212 24.1031 6.11813 24.5101C4.56855 25.9978 1.76274 25.207 1.4458 22.7363Z" fill="white"/>
<path fill-rule="evenodd" clip-rule="evenodd" d="M3.51607 17.3536C5.31859 17.3536 4.9105 17.1686 5.40869 17.9971C5.56398 18.2554 5.68376 18.4577 5.83534 18.709L6.67327 20.1485L1.75635 20.1485C2.17041 19.366 2.78096 18.45 3.24008 17.6469C3.30924 17.5261 3.37377 17.3537 3.51607 17.3537L3.51607 17.3536Z" fill="white"/>
<path fill-rule="evenodd" clip-rule="evenodd" d="M21.7866 17.3543C23.2363 17.3543 23.2108 17.2118 23.46 17.6476C23.9193 18.4506 24.5297 19.3666 24.9438 20.1491L20.0269 20.1491C20.0767 19.9627 21.2792 18.0341 21.5045 17.6415C21.5791 17.5115 21.6215 17.3542 21.7866 17.3542L21.7866 17.3543Z" fill="white"/>
<path fill-rule="evenodd" clip-rule="evenodd" d="M24.5949 21.9004L25.3159 21.9004C25.3944 21.9004 25.4585 21.9645 25.4585 22.043L25.4585 22.5594C25.4585 22.6379 25.3944 22.702 25.3159 22.702L25.0423 22.702L25.0423 22.8332L24.688 22.8332L24.688 22.702L24.5947 22.702C24.5163 22.702 24.4521 22.6379 24.4521 22.5594L24.4521 22.043C24.4521 21.9645 24.5163 21.9004 24.5947 21.9004L24.5949 21.9004Z" fill="#00004D"/>
<path d="M25.8268 20.6172L18.8833 20.6172L18.8833 22.1309L25.8268 22.1309L25.8268 20.6172Z" fill="#00004D"/>
</svg>
