<svg width="27" height="27" viewBox="0 0 27 27" fill="none" xmlns="http://www.w3.org/2000/svg">
<path d="M13.25 26.5C20.5678 26.5 26.5 20.5678 26.5 13.25C26.5 5.93224 20.5678 0 13.25 0C5.93222 0 0 5.93224 0 13.25C0 20.5678 5.93222 26.5 13.25 26.5Z" fill="#99E6FF"/>
<path d="M21.0609 16.6335C21.0609 17.7674 20.7668 18.7862 20.1785 19.6899C19.5988 20.5936 18.7462 21.3013 17.6208 21.8128C16.4955 22.3243 15.1612 22.5801 13.6181 22.5801C11.768 22.5801 10.2419 22.2305 9.03982 21.5314C8.18725 21.0284 7.49242 20.3592 6.95531 19.5237C6.42672 18.6796 6.16242 17.8612 6.16242 17.0683C6.16242 16.6079 6.32015 16.2157 6.63559 15.8918C6.95957 15.5593 7.3688 15.393 7.86328 15.393C8.26399 15.393 8.60075 15.5209 8.87357 15.7767C9.15491 16.0324 9.39363 16.4118 9.58972 16.9148C9.82843 17.5116 10.0842 18.0104 10.357 18.4111C10.6384 18.8118 11.0305 19.1443 11.5336 19.4086C12.0366 19.6643 12.6973 19.7922 13.5158 19.7922C14.6411 19.7922 15.5534 19.5322 16.2525 19.0121C16.9601 18.4835 17.3139 17.8271 17.3139 17.0427C17.3139 16.4203 17.1221 15.9173 16.7384 15.5337C16.3633 15.1415 15.8731 14.8431 15.2678 14.6385C14.671 14.4339 13.8696 14.2165 12.8636 13.9863C11.5165 13.6708 10.3869 13.3042 9.47462 12.8865C8.57091 12.4602 7.85049 11.8847 7.31338 11.16C6.78479 10.4268 6.5205 9.51886 6.5205 8.43611C6.5205 7.40451 6.80184 6.48801 7.36453 5.6866C7.92722 4.88519 8.74142 4.27135 9.80712 3.84507C10.8728 3.41026 12.1261 3.19286 13.5669 3.19286C14.7179 3.19286 15.7111 3.3378 16.5466 3.62767C17.3906 3.90901 18.0897 4.2884 18.6439 4.76583C19.1981 5.23474 19.603 5.72923 19.8588 6.24929C20.1146 6.76935 20.2425 7.27663 20.2425 7.77111C20.2425 8.22297 20.0805 8.6322 19.7565 8.9988C19.4411 9.35688 19.0446 9.53591 18.5672 9.53591C18.1324 9.53591 17.7999 9.42934 17.5697 9.2162C17.348 8.99454 17.105 8.63646 16.8407 8.14198C16.4997 7.43435 16.0905 6.88445 15.6131 6.49227C15.1356 6.09157 14.3683 5.89121 13.3111 5.89121C12.3307 5.89121 11.5378 6.10862 10.9325 6.54342C10.3357 6.9697 10.0373 7.4855 10.0373 8.09082C10.0373 8.46595 10.1396 8.78992 10.3442 9.06274C10.5488 9.33556 10.8302 9.57001 11.1883 9.7661C11.5463 9.96219 11.9087 10.1157 12.2753 10.2265C12.6419 10.3373 13.2472 10.4993 14.0912 10.7124C15.1484 10.9597 16.1033 11.2325 16.9558 11.5309C17.8169 11.8293 18.5459 12.1916 19.1427 12.6179C19.748 13.0442 20.2169 13.5856 20.5494 14.242C20.8904 14.89 21.0609 15.6871 21.0609 16.6335Z" fill="#00004D"/>
</svg>
