<svg width="27" height="27" viewBox="0 0 27 27" fill="none" xmlns="http://www.w3.org/2000/svg">
<path fill-rule="evenodd" clip-rule="evenodd" d="M1.29541 14.4955C1.29541 15.0053 1.3214 15.343 1.59971 15.7811C2.01792 16.4392 7.84533 22.1349 8.73013 23.0197C9.17632 23.4659 9.57954 23.8689 10.0257 24.3153C10.2833 24.5731 10.3929 24.7163 10.7366 24.8999C11.4709 25.2923 12.2479 25.3362 12.9962 24.9596C13.1632 24.8757 13.2571 24.8281 13.4029 24.7184L13.7153 24.4418C14.5684 23.5428 14.9235 22.5607 14.311 21.3843C13.9814 20.751 10.3963 17.3245 9.81966 16.7479L5.90361 12.8318C5.21955 12.1475 4.91936 11.9043 3.88658 11.9043C2.65291 11.9043 1.29554 13.2686 1.29554 14.4955H1.29541Z" fill="#00004D"/>
<path fill-rule="evenodd" clip-rule="evenodd" d="M11.8958 3.89612C11.8958 4.86738 12.1359 5.22618 12.7938 5.88372C13.2403 6.32977 13.6431 6.73298 14.0893 7.17916L20.626 13.7158C20.8836 13.9736 20.9931 14.1168 21.3368 14.3004C23.8373 15.6365 26.6025 12.318 24.3948 10.1234L17.8286 3.55734C17.3746 3.10333 16.2955 1.95268 15.8076 1.63273C14.2044 0.581911 11.8955 2.18034 11.8955 3.89586L11.8958 3.89612Z" fill="#00004D"/>
<path fill-rule="evenodd" clip-rule="evenodd" d="M16.9014 1.30501L25.19 9.62308C25.651 9.30459 26.5002 8.43688 26.5002 7.72392C26.5002 6.43643 25.9065 6.15864 24.9838 5.23578C24.3511 4.60303 23.7616 4.01352 23.1288 3.38078L20.3907 0.642161C19.6052 -0.15301 18.4391 -0.218242 17.6806 0.49419C17.4682 0.693745 17.0448 1.0906 16.9014 1.30501Z" fill="#00004D"/>
<path fill-rule="evenodd" clip-rule="evenodd" d="M0 18.7956C0 20.0831 0.593625 20.3609 1.51635 21.2838L6.10944 25.8774C6.89493 26.6726 8.0611 26.7378 8.81968 26.0254C9.03209 25.8258 9.45534 25.429 9.59894 25.2146L1.3103 16.8965C1.08131 17.0547 0.684452 17.4779 0.484897 17.6905C0.277916 17.9107 0.000132724 18.3944 0.000132724 18.7956H0Z" fill="#00004D"/>
<path fill-rule="evenodd" clip-rule="evenodd" d="M9.17236 14.8355L11.675 17.3089L17.2992 11.7145L14.8262 9.21094L9.17236 14.8355Z" fill="#00004D"/>
<path fill-rule="evenodd" clip-rule="evenodd" d="M0.412109 24.1534C0.412109 26.0166 2.66622 26.9471 3.9455 25.0367L1.48666 22.5488C1.05413 22.848 0.412109 23.5237 0.412109 24.1534Z" fill="#00004D"/>
<path fill-rule="evenodd" clip-rule="evenodd" d="M22.5547 1.48235L25.0135 3.97022C25.2297 3.82079 25.5147 3.51848 25.6907 3.32277C27.1728 1.67462 24.2739 -1.08522 22.5547 1.48235Z" fill="#00004D"/>
</svg>
