<svg width="27" height="27" viewBox="0 0 27 27" fill="none" xmlns="http://www.w3.org/2000/svg">
<path d="M13.25 26.5001C20.5678 26.5001 26.5 20.5678 26.5 13.25C26.5 5.93224 20.5678 0 13.25 0C5.93223 0 0 5.93224 0 13.25C0 20.5678 5.93223 26.5001 13.25 26.5001Z" fill="#EBF3B8"/>
<path fill-rule="evenodd" clip-rule="evenodd" d="M8.3388 17.7619C7.19833 17.7619 7.19833 15.9503 8.3388 15.9503C9.58252 15.9503 9.58334 17.7619 8.3388 17.7619ZM24.47 11.4999V12.0229C24.4451 12.4267 24.3622 12.8351 24.2168 13.2386C23.999 13.8428 23.9565 13.7668 23.7368 14.182C24.179 14.8424 24.4218 15.5714 24.47 16.3067V16.853C24.4156 17.6873 24.1118 18.5099 23.5651 19.2292C23.3544 19.5065 23.0229 19.8215 22.733 20.0361C22.0881 20.5135 22.5733 19.972 22.0974 21.0394C21.6349 22.0765 20.6452 23.0141 19.5785 23.4376C18.9813 23.6747 18.6246 23.7412 18.2071 23.7572H17.2671C16.55 23.7572 15.4891 23.2884 14.9252 22.8642C14.5887 22.611 14.3381 22.3948 14.0809 22.0695C13.9536 21.9083 13.8369 21.7741 13.7321 21.5988C13.6412 21.4468 13.515 21.2697 13.4715 21.083C13.3056 21.1941 13.2692 21.3855 13.1445 21.5755C13.0222 21.7618 12.9308 21.8772 12.795 22.0455C12.3191 22.6352 11.6331 23.1483 10.9093 23.4378C10.3062 23.679 9.92694 23.7428 9.48576 23.7572H8.59765C7.78463 23.7572 6.69211 23.1944 6.20628 22.8274C5.87106 22.5742 5.64455 22.3345 5.37593 22.0188C4.48098 20.9668 4.74129 20.442 4.32927 20.1756C3.15642 19.4172 2.45175 18.1565 2.38672 16.8042V16.3924C2.40651 15.9815 2.48552 15.5661 2.62878 15.1573C2.84406 14.543 2.89533 14.6065 3.11995 14.182C3.02903 14.0101 2.92777 13.8726 2.83168 13.6939C2.46719 13.0159 2.38672 12.3317 2.38672 11.5509C2.38672 10.2001 3.26738 8.89666 4.32763 8.18668C4.20462 7.93036 4.3886 7.04257 4.45648 6.80593C4.57254 6.40143 4.76774 6.05398 4.98224 5.73581C5.17121 5.45549 5.51534 5.13475 5.79337 4.95109C5.95713 4.84292 6.12407 4.75417 6.32936 4.66761C7.07397 4.35363 7.02441 4.65085 7.11646 4.24699C7.14973 4.10102 7.15494 4.07182 7.204 3.94632C7.42901 3.37068 7.73189 2.9587 8.17657 2.54668C8.65758 2.101 9.5387 1.67383 10.4523 1.67383C12.432 1.67383 13.3074 3.26732 13.4284 3.35596C13.5242 3.28575 13.6039 3.13373 13.6969 3.02063C13.8018 2.89302 13.8365 2.83879 13.9562 2.71932C15.581 1.09844 18.154 1.38735 19.416 3.44984C19.5073 3.59908 19.6189 3.84891 19.6772 4.00814C19.9131 4.65277 19.5399 4.33759 20.3035 4.58956C20.983 4.81382 21.46 5.1832 21.889 5.7644C22.1224 6.08047 22.275 6.42454 22.4054 6.84387C22.4737 7.06353 22.6504 7.93378 22.5291 8.18668C23.6911 8.96479 24.3882 10.1844 24.47 11.5V11.4999ZM18.3453 9.52375H18.561C18.9871 9.52375 19.3805 9.91712 19.3805 10.3433C19.3805 10.7551 19.252 11.1091 18.7938 11.2665C18.0785 11.512 17.393 10.8893 17.6375 10.1102C17.7383 9.7888 18.1023 9.52378 18.3453 9.52378V9.52375ZM7.47618 10.5589C7.47618 9.81015 7.76259 9.52375 8.51133 9.52375C9.01224 9.52375 9.64848 10.4086 9.00475 11.0523C8.77628 11.2808 8.44879 11.3989 8.06287 11.2664C7.80891 11.1792 7.47618 10.8584 7.47618 10.5589ZM21.5371 8.66109C21.5371 8.71803 22.064 8.98241 22.258 9.14781C22.467 9.32597 22.6902 9.53605 22.8569 9.75667C23.8131 11.0228 23.7351 12.656 22.745 13.9233C22.3451 14.4351 22.7311 14.1255 23.2056 15.1444C23.714 16.2363 23.6187 17.4499 22.9611 18.4526C22.7201 18.82 22.571 18.95 22.2576 19.2156C22.1284 19.3251 21.9697 19.4151 21.8144 19.5056C21.3738 19.7624 21.6655 19.574 21.3095 20.4672C20.2996 23.0011 16.9604 23.6562 15.0563 21.7409C14.4666 21.1479 13.9027 20.2197 13.9027 19.0558V15.4759H18.9491V12.1979C19.5426 12.1485 20.3293 11.3258 20.3293 10.5589C20.3293 9.96839 20.2337 9.5323 19.8028 9.10138C18.8634 8.16197 16.9251 8.4201 16.6485 10.2443C16.51 11.1578 17.2634 12.0262 18.0002 12.1979V14.527H13.9027V5.12426C13.9027 3.11194 16.4102 1.63393 18.2269 3.43115C18.675 3.87451 18.9491 4.51287 18.9491 5.38308C19.9155 5.38308 20.3247 5.43759 20.9661 6.12654C21.3265 6.5136 21.6233 7.30809 21.6233 7.84158C21.6233 8.12956 21.537 8.33625 21.537 8.66109H21.5371ZM5.23332 7.88472C5.23332 6.62142 6.12235 5.38308 7.56243 5.38308H7.90749C7.90749 4.67784 8.12505 3.9296 8.60799 3.45255C10.4879 1.59553 12.9539 3.15808 12.9539 5.12426V9.95498H10.1504C10.101 9.36155 9.27829 8.57477 8.51133 8.57477H8.25255C7.37346 8.57477 6.52728 9.42095 6.52728 10.3C6.52728 10.9603 6.62822 11.2937 7.09778 11.7567C8.14587 12.7902 9.86091 12.1462 10.1503 10.9039H12.9538V16.3816H10.1503C9.76051 14.7085 7.44812 14.5551 6.72127 16.0149C6.47284 16.5139 6.44923 17.1869 6.70159 17.6738C7.50695 19.2272 9.77295 18.9502 10.1503 17.3305H12.9538C12.9538 19.1129 13.1439 20.397 11.8217 21.7192C9.67683 23.864 6.06085 22.7995 5.3631 19.918C5.2356 19.3914 5.16967 19.6992 4.59903 19.2156C3.35273 18.1594 2.97341 16.5997 3.65105 15.1444C3.72814 14.9788 3.84359 14.7968 3.94495 14.662C4.59557 13.797 4.21129 14.4226 3.65105 13.2194C3.11966 12.0782 3.25329 10.7991 3.98175 9.78174C4.14707 9.55081 4.35918 9.36305 4.57585 9.16816C4.67433 9.07956 4.82568 8.98633 4.93332 8.9218C4.99743 8.88336 5.31956 8.71775 5.31956 8.66106C5.31956 8.35404 5.23328 8.13426 5.23328 7.88469L5.23332 7.88472Z" fill="#00004D"/>
</svg>
