<svg width="29" height="30" viewBox="0 0 29 30" fill="none" xmlns="http://www.w3.org/2000/svg">
<path d="M25.9527 0H3.42109C1.22144 0 0 1.55983 0 3.78979L0 25.3112C0 27.5412 1.78785 29.3537 3.9875 29.3537H25.0125C27.2121 29.3537 29 27.5412 29 25.3112V3.78979C29 1.55983 28.1524 0 25.9527 0ZM4.35 6.93647C4.35 6.3279 4.8372 5.83398 5.4375 5.83398H13.4125C14.0128 5.83398 14.5 6.3279 14.5 6.93647V8.40645C14.5 9.01502 14.0128 9.50893 13.4125 9.50893C12.8122 9.50893 12.325 9.01502 12.325 8.40645V8.03895H10.5125V13.9189C11.1128 13.9189 11.6 14.4128 11.6 15.0214C11.6 15.6299 11.1128 16.1238 10.5125 16.1238H8.3375C7.7372 16.1238 7.25 15.6299 7.25 15.0214C7.25 14.4128 7.7372 13.9189 8.3375 13.9189V8.03895H6.525V8.40645C6.525 9.01502 6.0378 9.50893 5.4375 9.50893C4.8372 9.50893 4.35 9.01502 4.35 8.40645V6.93647ZM23.5625 24.9437H5.4375C4.8372 24.9437 4.35 24.4498 4.35 23.8412C4.35 23.2327 4.8372 22.7387 5.4375 22.7387H23.5625C24.1628 22.7387 24.65 23.2327 24.65 23.8412C24.65 24.4498 24.1628 24.9437 23.5625 24.9437ZM23.5625 20.5338H5.4375C4.8372 20.5338 4.35 20.0399 4.35 19.4313C4.35 18.8227 4.8372 18.3288 5.4375 18.3288H23.5625C24.1628 18.3288 24.65 18.8227 24.65 19.4313C24.65 20.0399 24.1628 20.5338 23.5625 20.5338ZM23.5625 16.1238H18.4875C17.8872 16.1238 17.4 15.6299 17.4 15.0214C17.4 14.4128 17.8872 13.9189 18.4875 13.9189H23.5625C24.1628 13.9189 24.65 14.4128 24.65 15.0214C24.65 15.6299 24.1628 16.1238 23.5625 16.1238ZM23.5625 12.0814H18.4875C17.8872 12.0814 17.4 11.5875 17.4 10.9789C17.4 10.3703 17.8872 9.87643 18.4875 9.87643H23.5625C24.1628 9.87643 24.65 10.3703 24.65 10.9789C24.65 11.5875 24.1628 12.0814 23.5625 12.0814ZM23.5625 8.03895H18.4875C17.8872 8.03895 17.4 7.54504 17.4 6.93647C17.4 6.3279 17.8872 5.83398 18.4875 5.83398H23.5625C24.1628 5.83398 24.65 6.3279 24.65 6.93647C24.65 7.54504 24.1628 8.03895 23.5625 8.03895Z" fill="#C8DDF7"/>
</svg>
