<svg width="29" height="29" viewBox="0 0 29 29" fill="none" xmlns="http://www.w3.org/2000/svg">
<path d="M23.6591 16.0705C22.7791 16.0705 22.0659 16.7838 22.0659 17.6637V17.1221C22.0659 16.2422 21.3526 15.5289 20.4727 15.5289C19.5928 15.5289 18.8795 16.2421 18.8795 17.1221V16.375C18.8795 15.4951 18.1662 14.7818 17.2863 14.7818C16.4064 14.7818 15.6931 15.4951 15.6931 16.375V11.0253C15.6931 10.2017 15.0474 9.50555 14.2241 9.48301C13.3699 9.45956 12.6701 10.145 12.6701 10.9939V20.3407L11.3874 18.2848C10.6814 17.1531 9.19091 16.8091 8.06036 17.517C7.68675 17.751 7.55965 18.235 7.77075 18.622C8.61028 20.1614 10.6364 23.9087 11.5901 25.9523C11.6091 25.9931 11.6283 26.0335 11.6475 26.0733C12.5136 27.8652 14.3431 28.9907 16.3335 28.9907H19.8853C22.8046 28.9907 25.1789 26.6387 25.2064 23.7194L25.2523 18.8404V17.6637C25.2523 16.7838 24.539 16.0705 23.6591 16.0705Z" fill="#C8DDF7"/>
<path d="M23.1092 0C19.856 0 17.2188 2.63721 17.2188 5.89044C17.2188 9.14367 19.856 11.7809 23.1092 11.7809C26.3624 11.7809 28.9996 9.14362 28.9996 5.89044C28.9996 2.63726 26.3624 0 23.1092 0ZM25.3046 6.88426C25.6364 7.21601 25.6364 7.75399 25.3046 8.08579C25.1387 8.25169 24.9212 8.33467 24.7039 8.33467C24.4865 8.33467 24.269 8.25169 24.1031 8.08579L23.1092 7.09191L22.1154 8.08579C21.9495 8.25169 21.732 8.33467 21.5146 8.33467C21.2972 8.33467 21.0798 8.25175 20.9139 8.08579C20.5821 7.75404 20.5821 7.21607 20.9139 6.88426L21.9078 5.89038L20.9139 4.8965C20.5821 4.56476 20.5821 4.02678 20.9139 3.69498C21.2456 3.36323 21.7836 3.36323 22.1154 3.69498L23.1093 4.68886L24.1032 3.69498C24.435 3.36317 24.9729 3.36317 25.3047 3.69498C25.6365 4.02672 25.6365 4.5647 25.3047 4.8965L24.3108 5.89038L25.3046 6.88426Z" fill="#C8DDF7"/>
<path d="M11.7809 5.89044C11.7809 2.63726 9.14367 0 5.89044 0C2.63721 0 0 2.63721 0 5.89044C0 9.14367 2.63721 11.7809 5.89044 11.7809C9.14367 11.7809 11.7809 9.14362 11.7809 5.89044ZM8.42626 5.21692L5.87622 7.76577C5.71083 7.93105 5.49333 8.01448 5.27549 8.01448C5.07339 8.01448 4.8709 7.94271 4.70919 7.79811L3.38883 6.61709C3.03913 6.30432 3.00917 5.76713 3.322 5.41743C3.63482 5.06767 4.17189 5.03777 4.52171 5.35059L5.2432 5.99596L7.22502 4.01506C7.55693 3.68342 8.09485 3.68348 8.42654 4.01534C8.75823 4.3472 8.75812 4.88518 8.42626 5.21692Z" fill="#C8DDF7"/>
</svg>
