<svg width="27" height="34" viewBox="0 0 27 34" fill="none" xmlns="http://www.w3.org/2000/svg">
<path fill-rule="evenodd" clip-rule="evenodd" d="M2.69806 21.4345C2.69806 20.9078 2.87008 19.7857 3.52245 19.7857C4.40519 19.7857 4.00446 20.7025 3.88016 21.2676C3.64219 22.349 2.69806 21.9396 2.69806 21.4345ZM4.79648 18.3618C4.2549 18.3618 4.19685 18.1447 4.19685 17.6873C4.19685 17.3331 6.85904 14.1648 8.09403 14.1648C8.79472 14.1648 8.766 14.9476 8.27152 15.2418C8.02793 15.3867 7.90241 15.4565 7.67583 15.6203C7.30642 15.8873 6.96192 16.1544 6.65101 16.4692C5.95564 17.1727 5.93801 17.1694 5.36527 17.9564C5.20876 18.1716 5.13961 18.3618 4.79648 18.3618ZM0 23.4581C0 24.6326 0.231739 25.9839 0.50846 27.0716C1.20505 29.8092 3.34435 33.5757 6.59509 33.5757H19.9353C21.0788 33.5757 22.2546 32.9631 22.9097 32.4282C23.8308 31.6762 24.1575 31.0859 24.7644 30.086C25.2356 29.3097 25.7389 28.1175 25.9909 27.1906C26.7998 24.2138 26.6847 20.8678 25.3572 18.1112C24.9981 17.3656 24.6418 16.6354 24.1754 15.9955C22.1318 13.1914 19.8372 11.4242 16.2929 10.6129C10.5559 9.29966 4.57022 11.854 1.7749 16.9143C1.65941 17.1234 1.59923 17.2496 1.48359 17.4473C1.10323 18.0971 0.566203 19.666 0.373821 20.4595C0.208336 21.1423 0.000152109 22.7125 0.000152109 23.4583L0 23.4581Z" fill="#00004D"/>
<path fill-rule="evenodd" clip-rule="evenodd" d="M2.09863 5.09585C2.09863 6.54343 2.38067 7.97323 2.59084 9.40014C2.69083 10.0794 2.76696 10.6365 2.86102 11.3033C2.9405 11.8665 3.02058 12.6436 3.14792 13.1899L4.02975 12.4229C4.94318 11.6066 6.12985 10.9805 7.19494 10.4171L6.67447 6.81559C6.48543 5.45159 6.0607 4.34668 7.86934 4.34668H18.6613C20.4699 4.34668 20.0452 5.45174 19.8561 6.81559L19.3357 10.4171C21.0449 11.3215 21.4931 11.5685 22.9109 12.7626C23.1072 12.9279 23.1737 13.0501 23.3827 13.19L24.203 7.56506C24.5253 5.23824 24.7947 3.4837 22.8396 1.51733C22.0793 0.752662 20.8281 0 19.3358 0H7.11987C5.74265 0 4.36285 0.844598 3.65304 1.55441C2.90281 2.30464 2.09863 3.62639 2.09863 5.09616V5.09585Z" fill="#00004D"/>
</svg>
