<svg width="42" height="28" viewBox="0 0 42 28" fill="none" xmlns="http://www.w3.org/2000/svg">
    <path
        d="M17.1917 19.2376C17.1917 24.077 13.3432 28 8.59587 28C3.8485 28 0 24.077 0 19.2376C0 16.6862 1.06979 14.3894 2.77709 12.788C4.30799 11.3521 6.35148 10.4753 8.59587 10.4753C13.3432 10.4753 17.1917 14.3983 17.1917 19.2376Z"
        fill="#3266DC" />
    <path
        d="M42 19.2376C42 24.077 38.1515 28 33.4041 28C28.6568 28 24.8083 24.077 24.8083 19.2376C24.8083 18.6195 24.8711 18.0163 24.9905 17.4343C25.8061 13.4601 29.2632 10.4753 33.4041 10.4753C38.1515 10.4753 42 14.3983 42 19.2376Z"
        fill="#3266DC" />
    <path
        d="M32.3466 8.76237C32.3466 13.1725 29.1504 16.8217 24.9905 17.4343C24.5857 17.4939 24.1717 17.5247 23.7507 17.5247C19.5784 17.5247 16.1004 14.4945 15.319 10.4753C15.2113 9.92131 15.1549 9.34856 15.1549 8.76237C15.1549 7.9925 15.2523 7.24582 15.4352 6.53443C16.4021 2.77413 19.7586 0 23.7507 0C28.4981 0 32.3466 3.92305 32.3466 8.76237Z"
        fill="#3266DC" />
    <path
        d="M17.1917 19.2376C17.1917 24.077 13.3432 28 8.59587 28H33.4041C28.6568 28 24.8083 24.077 24.8083 19.2376C24.8083 18.6195 24.8711 18.0163 24.9905 17.4343C24.5857 17.4939 24.1717 17.5247 23.7507 17.5247C19.5784 17.5247 16.1004 14.4945 15.319 10.4753H9.71189H8.59587C13.3432 10.4753 17.1917 14.3983 17.1917 19.2376Z"
        fill="#3266DC" />
    <path
        d="M15.319 10.4753C15.2113 9.92131 15.1549 9.34856 15.1549 8.76237C15.1549 7.9925 15.2523 7.24582 15.4352 6.53443C14.7169 7.84804 12.5666 10.4753 9.71189 10.4753H15.319Z"
        fill="#3266DC" />
</svg>