<svg width="512" height="512" viewBox="0 0 512 512" fill="none" xmlns="http://www.w3.org/2000/svg">
<path d="M72.5334 327.466L248.533 503.466C252.8 507.733 259.2 507.733 263.467 503.466L439.467 327.467C442.667 324.267 443.733 320 441.6 315.733C440.533 312.533 436.267 309.333 432 309.333L334.933 309.333L334.933 15.9998C334.933 9.59981 330.667 5.33315 324.267 5.33315L188.8 5.33313C182.4 5.33313 178.133 9.5998 178.133 15.9998L178.133 309.333L81.0667 309.333C76.8001 309.333 72.5334 311.466 71.4668 315.733C68.2668 320 69.3334 324.266 72.5334 327.466Z"/>
</svg>
