<svg width="100" height="100" viewBox="0 0 100 100" fill="none" xmlns="http://www.w3.org/2000/svg">
<path fill-rule="evenodd" clip-rule="evenodd" d="M50 0C77.6135 0 99.9986 22.3851 99.9986 50C99.9986 77.6135 77.6135 100 50 100C22.3851 100 0 77.6135 0 50C0 22.3851 22.3851 0 50 0Z" fill="#FF5963"/>
<path fill-rule="evenodd" clip-rule="evenodd" d="M82.9546 49.9995C82.9546 76.653 52.563 91.9627 31.4571 77.1227C23.9079 71.8141 18.3631 63.3422 17.4307 54.0718C16.682 46.6263 17.9957 40.2733 21.3855 34.0889C23.6178 30.0125 26.2853 26.8837 29.8824 24.0478C33.3026 21.3513 38.0421 19.1881 42.4349 18.0623C62.2755 12.9775 82.9532 28.4861 82.9532 49.9995H82.9546ZM11.5488 48.2825C11.5488 60.1664 14.5879 69.0113 22.7918 77.2056C34.3594 88.7579 51.6942 91.7293 66.3643 84.9026C78.722 79.1519 88.4483 65.5883 88.4483 51.7152C88.4483 39.776 85.3747 30.9629 77.2053 22.7935C62.1387 7.7269 37.9192 7.68684 22.7932 22.7935C16.4596 29.1188 11.5502 38.6392 11.5502 48.2825H11.5488Z" fill="white"/>
<path fill-rule="evenodd" clip-rule="evenodd" d="M35.582 38.3254C35.582 40.9915 43.5098 46.4563 45.8817 49.9982C44.8525 51.5356 41.9709 54.0802 40.4749 55.5776C37.4745 58.578 35.5834 59.5491 35.5834 62.3575C35.5834 63.8024 37.8102 65.1188 39.5383 64.2859C41.4129 63.3824 46.7699 56.2835 50.0023 54.1189C52.8922 56.0542 59.1278 63.8604 60.9388 64.5083C63.3686 65.3771 67.1964 61.8919 62.5633 58.3804C61.2869 57.4135 60.7896 56.8388 59.7011 55.7503C58.2009 54.2487 55.1383 51.5177 54.1216 49.9996C56.2863 46.7671 63.3852 41.4101 64.29 39.5369C64.8577 38.3572 64.6602 35.582 61.6751 35.582C59.009 35.582 53.5442 43.5098 50.0023 45.8817C47.7355 44.3649 40.7346 35.582 38.6736 35.582C37.143 35.582 35.5834 36.9717 35.5834 38.3282L35.582 38.3254Z" fill="#00004D"/>
</svg>
