<svg width="100" height="100" viewBox="0 0 100 100" fill="none" xmlns="http://www.w3.org/2000/svg">
<path fill-rule="evenodd" clip-rule="evenodd" d="M50 0C77.6135 0 100 22.3864 100 50C100 77.6149 77.6135 100 50 100C22.3864 100 0 77.6149 0 50C0 22.3864 22.3864 0 50 0Z" fill="#FF5963"/>
<path fill-rule="evenodd" clip-rule="evenodd" d="M50.0206 84.8252C47.1957 84.8252 44.6222 84.3956 42.2987 83.9135C37.5814 82.9355 32.6955 80.4863 28.9423 77.689C28.4492 77.3216 28.2199 77.084 27.753 76.7193C20.9594 71.4011 15.1756 61.2356 15.1756 49.9802C15.1756 39.3837 20.0657 30.6742 25.3895 25.3504C28.7075 22.0323 32.8419 19.3346 37.2209 17.6009C42.5516 15.4902 48.3022 14.7636 54.0418 15.4308C59.0092 16.0095 62.8452 17.4047 67.0832 19.6578C70.8516 21.6621 74.9833 25.2661 77.5748 28.7472C79.6109 31.4823 79.383 31.4201 80.9453 34.0102C81.9813 35.7272 83.3406 39.8852 83.8793 42.0235C84.8339 45.8126 85.0728 50.0175 84.5852 53.8632C84.1307 57.4451 83.2688 61.1029 81.7811 64.1641C81.5379 64.6641 81.3846 65.1213 81.1166 65.6573C80.4397 67.0097 78.7227 69.7862 77.7958 70.9701C76.3896 72.7686 74.2429 75.2054 72.465 76.5867C69.8377 78.6311 67.756 80.2681 64.4241 81.6508L61.334 82.8775C57.6458 84.1055 54.2351 84.8238 50.0206 84.8238V84.8252ZM10.5508 48.7466C10.5508 54.6174 10.9127 57.872 12.8038 63.2993C13.7224 65.9364 14.5609 67.4448 15.8455 69.818C17.2753 72.4578 20.0684 75.9182 22.0755 77.9267C28.7848 84.636 38.8882 89.4514 48.6337 89.4514H48.8423C53.195 89.4514 55.2781 89.4114 59.675 88.3132C61.0025 87.9817 62.1007 87.6308 63.3411 87.1998C70.8765 84.5738 77.688 79.2652 82.2465 72.8018C86.2939 67.0636 89.4918 59.2174 89.4918 51.3699C89.4918 44.2503 88.652 39.1227 85.845 33.2767C81.5752 24.3835 75.5442 18.6107 66.8277 14.2111C62.6588 12.1059 56.1373 10.5117 51.4089 10.5117C45.4662 10.5117 42.2228 10.8405 36.7014 12.7647C35.6019 13.1488 34.3144 13.6571 33.3171 14.1599C31.2823 15.1863 29.1191 16.3287 27.2667 17.67C23.305 20.5364 20.574 23.2673 17.7077 27.229C15.0168 30.9477 12.8052 35.8654 11.689 40.3286C11.0702 42.8054 10.5508 45.7573 10.5508 48.7494V48.7466Z" fill="white"/>
<path fill-rule="evenodd" clip-rule="evenodd" d="M28.4355 37.4914C28.4355 45.7976 33.6157 54.8787 39.2669 60.581C39.7062 61.0244 39.8539 61.1404 40.3305 61.5217C40.7325 61.8435 40.9618 62.1696 41.3638 62.4928C44.7868 65.25 47.555 67.0969 51.6287 68.7255C56.2079 70.5572 63.6535 73.0478 68.1098 69.4577L69.1182 68.4603C69.3005 68.2296 69.4221 68.1177 69.6417 67.9036C71.8782 65.7197 72.2815 62.4721 70.6198 60.0657C69.9346 59.0725 67.0033 56.3954 66.361 55.999C61.884 53.2418 57.4912 57.2906 56.0836 60.6666C55.4952 62.0756 54.9178 62.0259 52.2324 60.5686L49.6105 59.0283C48.7057 58.4965 47.9943 57.9329 47.1821 57.2933C46.0742 56.4203 43.7508 54.2819 42.9303 53.2196C42.3211 52.4323 41.7298 51.7305 41.1427 50.8451C40.2752 49.5397 38.3068 46.7563 38.3068 45.2008C38.3068 44.5157 39.5818 44.4701 40.6717 43.8651C41.6387 43.3277 43.9897 40.9794 44.5257 40.0096C45.6004 38.0633 45.7331 35.8545 44.5105 33.9095C44.0243 33.1359 43.1678 32.408 42.5089 31.7477C40.6551 29.8939 39.5859 28.7031 36.6119 28.7031C34.0204 28.7031 32.6156 30.6219 31.3309 31.9024C29.9647 33.263 28.4397 34.8392 28.4397 37.4914H28.4355Z" fill="#00004D"/>
<path d="M76.0191 20.6234L20.6133 76.0293L23.9692 79.3853L79.3751 23.9794L76.0191 20.6234Z" fill="white"/>
</svg>
