<svg width="11" height="12" viewBox="0 0 11 12" fill="none" xmlns="http://www.w3.org/2000/svg">
<path d="M5.12842 8.16016L3.68858 6.72032L5.87091 4.53799L7.31075 5.97783L5.12842 8.16016Z" fill="#00004D"/>
<path d="M0.29769 7.64866C-0.0992337 8.04563 -0.0992336 8.69158 0.297712 9.08863L0.80803 9.59895L0.543751 9.86321C0.351444 10.0556 0.245505 10.3112 0.245505 10.5832C0.245505 10.8552 0.351466 11.1109 0.543772 11.3032C0.736057 11.4955 0.991786 11.6015 1.2638 11.6015C1.53369 11.6015 1.7875 11.4972 1.97929 11.3077C1.98084 11.3062 1.98237 11.3047 1.98387 11.3032L2.24808 11.039L2.75845 11.5494C2.95073 11.7417 3.20644 11.8475 3.47845 11.8476C3.75049 11.8476 4.00626 11.7416 4.19865 11.5493C4.29187 11.456 4.36281 11.3489 4.41221 11.2346L0.6122 7.43457C0.496356 7.48489 0.389665 7.55662 0.29769 7.64866Z" fill="#00004D"/>
<path d="M10.7013 3.60668L10.191 3.09632L10.4515 2.83578C10.4528 2.83453 10.454 2.83331 10.4553 2.83204C10.8523 2.43507 10.8523 1.78908 10.4553 1.39196C10.263 1.19966 10.0073 1.09374 9.73534 1.09374C9.46337 1.09374 9.20764 1.19963 9.01525 1.39192C9.01362 1.39357 9.01198 1.39523 9.01035 1.39693L8.75097 1.65629L8.24059 1.14588C8.0483 0.953596 7.7926 0.847656 7.52062 0.847656C7.24861 0.847656 6.9929 0.953596 6.80062 1.14592C6.70731 1.23925 6.63635 1.34648 6.58691 1.46082L10.3868 5.26068C10.5026 5.21038 10.6093 5.13862 10.7013 5.04665C10.8937 4.85432 10.9996 4.59861 10.9996 4.32662C10.9996 4.05463 10.8937 3.79894 10.7013 3.60668Z" fill="#00004D"/>
<path d="M4.67217 8.61474L3.23214 7.17471L2.22966 6.17225C2.03735 5.97994 1.78164 5.87402 1.5097 5.87402C1.23772 5.87402 0.981975 5.97994 0.789539 6.17231C0.696275 6.26558 0.625098 6.37263 0.575684 6.48693L5.36032 11.2715C5.47616 11.2212 5.58275 11.1493 5.67474 11.0573C5.86705 10.865 5.97295 10.6092 5.97295 10.3372C5.97295 10.0652 5.86703 9.80951 5.67472 9.61725L4.67217 8.61474Z" fill="#00004D"/>
<path d="M5.32406 1.63809C4.92713 2.0351 4.92713 2.68109 5.32408 3.0781L6.32656 4.08056L7.76666 5.52064L7.76668 5.52062L8.7691 6.52302L8.76914 6.52306L8.76918 6.5231C8.96153 6.71539 9.21722 6.82128 9.48917 6.82128H9.48921C9.76114 6.82128 10.0169 6.71534 10.2092 6.52308C10.3011 6.43115 10.3731 6.32461 10.4234 6.20883L5.63842 1.42383C5.52262 1.47414 5.41605 1.54612 5.32406 1.63809Z" fill="#00004D"/>
</svg>
