<svg width="27" height="27" viewBox="0 0 27 27" fill="none" xmlns="http://www.w3.org/2000/svg">
<path fill-rule="evenodd" clip-rule="evenodd" d="M13.25 0C20.5676 0 26.5 5.93241 26.5 13.25C26.5 20.568 20.5676 26.5 13.25 26.5C5.93241 26.5 0 20.568 0 13.25C0 5.93241 5.93241 0 13.25 0Z" fill="#99E6FF"/>
<path fill-rule="evenodd" clip-rule="evenodd" d="M14.7389 15.7605H13.9727V14.4833C14.1704 14.588 14.3146 14.6842 14.513 14.7944C14.7122 14.9053 14.9047 15.0049 15.0797 15.1217C14.9944 15.2828 14.7777 15.5946 14.7389 15.7601V15.7605ZM11.418 15.122L12.525 14.4833V15.7605H11.7588C11.72 15.595 11.5033 15.2828 11.418 15.122ZM14.6964 13.2061C14.8359 13.1687 15.1174 12.9839 15.2474 12.9055C15.3685 12.8327 15.6643 12.6423 15.8034 12.6101C16.2438 13.4425 16.2548 13.034 15.8034 13.8873L14.6964 13.2061ZM10.6943 13.8873C10.2477 13.0432 10.24 13.4685 10.6943 12.6101C10.9344 12.6661 11.5659 13.1435 11.8012 13.2061V13.2914C11.6076 13.3364 11.4055 13.4956 11.2456 13.5871C11.057 13.6951 10.8868 13.7856 10.6943 13.8873ZM13.9727 12.0142V10.737H14.7389C14.7762 10.8768 14.9992 11.2235 15.0797 11.3754C14.8945 11.4735 14.7177 11.5698 14.5339 11.6811C14.3439 11.796 14.147 11.897 13.9727 12.0138V12.0142ZM11.7588 10.737H12.525V12.0142L11.418 11.3754C11.4985 11.2231 11.7211 10.8768 11.7588 10.737ZM10.3538 4.26574C10.3538 4.86938 10.7693 5.00409 11.3353 5.32805L12.5253 6.01149V6.86294L11.6131 6.3274C11.1881 6.07591 10.5006 5.5411 10.0482 6.0459C9.33874 6.83806 10.5189 7.34725 11.0633 7.6434C11.3301 7.78873 11.5461 7.93515 11.8163 8.08267C12.637 8.53073 12.5253 8.32793 12.5253 9.28921C11.0051 9.28921 11.1343 9.06665 10.4366 10.2234C10.3524 10.3632 10.2748 10.5151 10.1836 10.6517C9.94384 10.525 9.74214 10.3954 9.50237 10.2688C9.50237 9.83501 9.57778 7.6141 9.44454 7.30368C9.40244 7.20558 9.31019 7.06575 9.23039 7.00681C8.91411 6.77326 8.46788 6.84611 8.23543 7.12871C8.06851 7.33115 8.09559 7.45743 8.09706 7.79933C8.09925 8.33854 8.09706 8.87813 8.09706 9.41734C7.81665 9.35218 7.60471 9.09813 7.33089 9.03444C7.33089 8.62079 7.41728 6.78534 7.22986 6.49579C6.97471 6.10227 6.31653 6.10154 6.05919 6.48517C5.90252 6.71835 5.92521 6.87686 5.92631 7.24622C5.92777 7.84217 5.92631 8.43849 5.92631 9.03444C5.59722 9.20868 4.11613 9.97887 3.89832 10.2421C3.5286 10.6898 3.85513 11.4644 4.50086 11.3948C4.68426 11.375 4.78383 11.3172 4.9028 11.2465C5.21358 11.062 6.46003 10.2692 6.65001 10.2692C6.75654 10.2692 7.20533 10.6074 7.37372 10.6521C6.83048 11.1243 5.25715 11.5076 5.39955 12.3246C5.50607 12.9352 6.14375 13.0205 6.58339 12.7569C6.73311 12.6669 6.84879 12.6072 6.98789 12.523C7.24377 12.3685 7.53296 12.2009 7.79945 12.057C8.48508 11.6862 8.64396 11.3802 9.03674 11.628C9.17035 11.7122 9.29335 11.8055 9.45991 11.8443C9.4266 12.247 8.8215 12.6625 8.8215 13.3342C8.8215 13.7208 9.37095 14.2285 9.45991 14.6114C8.62162 15.0551 9.18756 15.2765 6.99924 13.9642C6.82243 13.858 6.31836 13.5469 6.09689 13.5469C5.36953 13.5469 5.11218 14.503 5.80038 14.9075L6.57973 15.3629C6.73348 15.4467 6.84549 15.5104 6.98862 15.5924C7.09844 15.6554 7.3049 15.7513 7.37408 15.8458C7.09844 15.9098 6.89088 16.1631 6.60792 16.2287C6.4571 16.1276 6.26016 16.0189 6.09689 15.9307C5.908 15.8285 5.76012 15.7282 5.55805 15.6181C5.37282 15.517 5.22896 15.4241 5.04556 15.3216C4.66412 15.1081 4.33906 14.9339 3.95543 15.2794C3.82804 15.394 3.76215 15.5218 3.74238 15.7451C3.71163 16.0892 3.95433 16.3392 4.25121 16.4992C4.82995 16.8111 5.35818 17.1625 5.92668 17.4634C5.92668 18.0454 5.92741 18.6271 5.92668 19.2091C5.92631 19.5481 5.89263 19.7747 6.04565 19.9841C6.33703 20.3835 6.91614 20.4201 7.2068 20.0211C7.4268 19.7191 7.33162 17.9023 7.33162 17.4634C7.59775 17.3224 7.84008 17.1742 8.09779 17.0377C8.09779 17.5769 8.09926 18.1164 8.09779 18.6556C8.09706 18.984 8.06338 19.1447 8.21676 19.3457C8.53524 19.7641 9.18061 19.6934 9.41745 19.2512C9.53386 19.0342 9.50311 18.6487 9.50311 18.3152C9.50311 17.6197 9.50311 16.9246 9.50311 16.229C9.67149 16.1163 10.0244 15.8626 10.2268 15.8461C10.2923 16.1276 10.5585 16.4724 10.7082 16.7269C11.0911 17.377 11.7441 17.2082 12.5257 17.2082V18.0172C12.2866 18.0729 12.0209 18.2819 11.81 18.4086C11.4608 18.6183 10.2316 19.2399 10.024 19.4753C9.64623 19.9036 9.95739 20.6569 10.5244 20.6569C10.9209 20.6569 12.1168 19.8516 12.5253 19.6352V20.4867C12.1863 20.6661 10.6438 21.4992 10.4874 21.7269C10.3011 21.9989 10.307 22.3617 10.5328 22.6066C10.9238 23.0301 11.3202 22.7973 11.7456 22.5597C11.9341 22.4543 13.1615 21.7214 13.2487 21.7214C13.3266 21.7214 14.5661 22.4558 14.7521 22.5597C15.1595 22.7874 15.5666 23.0224 15.944 22.6282C16.2815 22.276 16.1654 21.7474 15.7595 21.5095L13.9727 20.4863V19.6349C14.3626 19.841 15.5655 20.6565 15.9312 20.6565C16.1632 20.6565 16.2859 20.5789 16.4125 20.4567C16.8324 20.0503 16.6648 19.5536 16.2006 19.2805C15.9246 19.118 14.2008 18.0703 13.9727 18.0172V17.2082C14.6752 17.2082 15.3952 17.373 15.7749 16.754C15.8697 16.5995 15.933 16.4743 16.0245 16.3224C16.0959 16.2038 16.2427 15.9709 16.2716 15.8458C16.4253 15.8816 16.522 15.9483 16.6468 16.024C16.7764 16.1027 16.876 16.1485 16.9953 16.2287C16.9953 16.6569 16.9159 18.9254 17.066 19.2238C17.2915 19.6718 17.9635 19.7824 18.282 19.3457C18.4918 19.0579 18.4006 17.4476 18.4006 17.0373C18.6587 17.1738 18.9007 17.3221 19.1668 17.463C19.1668 18.0451 19.1672 18.6267 19.1668 19.2088C19.1668 19.6543 19.1276 19.9819 19.4962 20.1993C19.8275 20.3945 20.2137 20.2806 20.4341 20.0079C20.601 19.8011 20.5728 19.5997 20.5717 19.2516C20.5703 18.6557 20.5717 18.0593 20.5717 17.4634L22.3526 16.4344C23.0668 15.9735 22.7231 15.0792 22.062 15.0792C21.6835 15.0792 20.8031 15.7125 20.4297 15.916C20.2408 16.0189 20.0541 16.1196 19.8909 16.2287C19.6105 16.1635 19.3985 15.9095 19.1247 15.8458C19.2444 15.6821 19.7049 15.4779 19.8909 15.3772C20.1577 15.233 20.433 15.0631 20.6984 14.9072C21.1186 14.6601 21.2801 14.074 20.8606 13.7266C20.4004 13.3463 19.9531 13.7069 19.5325 13.9543C19.2382 14.1275 18.9775 14.26 18.6909 14.4324C17.637 15.066 17.8098 15.1272 17.0389 14.611C17.1758 14.0224 17.9515 13.4942 17.5752 12.84C17.4232 12.5761 17.0623 12.1255 17.0389 11.8436C17.7501 11.6778 17.2816 11.2367 18.2714 11.803C18.4028 11.8784 18.5229 11.9607 18.6715 12.0416C19.0043 12.2228 19.9912 12.9077 20.3598 12.9077C21.2014 12.9077 21.3536 11.9574 20.6834 11.5624C20.4055 11.3985 20.1702 11.2733 19.9 11.1111C19.6526 10.9629 19.3443 10.8421 19.1251 10.6513C19.2891 10.6078 19.6837 10.2684 19.8063 10.2684C20.2511 10.2684 21.5429 11.4556 22.1275 11.3944C22.8377 11.3205 22.9625 10.4482 22.387 10.0719C21.8182 9.69957 21.171 9.35071 20.5725 9.03406C20.5725 8.43811 20.571 7.84179 20.5725 7.24584C20.5739 6.70773 20.4985 6.1817 19.8488 6.1817C19.2005 6.1817 19.1668 6.72603 19.1675 7.24584C19.1683 7.84179 19.1675 8.43811 19.1675 9.03406C18.8922 9.09812 18.6843 9.35144 18.4014 9.41696C18.4014 8.87775 18.3992 8.33819 18.4014 7.79898C18.4028 7.45707 18.4295 7.33077 18.263 7.12834C17.9383 6.73372 17.2977 6.79339 17.0674 7.27403C16.9217 7.57859 16.9964 9.83501 16.9964 10.2684C16.7618 10.3925 16.5454 10.5298 16.3152 10.6513C16.1409 10.3918 16 10.103 15.8294 9.81743C15.404 9.10581 14.9139 9.28921 13.9735 9.28921C13.9735 8.3067 13.8347 8.54135 14.6547 8.09731C14.9706 7.926 16.2745 7.22681 16.481 6.98558C16.5337 6.92408 16.5608 6.89553 16.5956 6.80219C16.6962 6.5335 16.6318 6.26627 16.4704 6.0686C16.0234 5.52243 15.3133 6.07555 14.8857 6.32704L13.9738 6.86258V6.01111C14.5434 5.62968 15.2086 5.35257 15.7807 4.96564C16.3767 4.5626 16.1999 3.62695 15.4641 3.62695C15.079 3.62695 14.1506 4.28111 13.7743 4.4916C13.6004 4.5886 13.3954 4.73282 13.2077 4.77639C12.9825 4.62593 11.3568 3.62695 11.079 3.62695C10.7192 3.62695 10.3553 3.8843 10.3553 4.26574H10.3538Z" fill="white"/>
<path fill-rule="evenodd" clip-rule="evenodd" d="M3.66943 18.1877C3.66943 19.5069 5.5455 19.4674 5.57918 18.2265C5.61176 17.021 3.66943 16.9873 3.66943 18.1877Z" fill="white"/>
<path fill-rule="evenodd" clip-rule="evenodd" d="M3.66943 8.22382C3.66943 9.54311 5.5455 9.50358 5.57918 8.26263C5.61176 7.06048 3.66943 7.01252 3.66943 8.22382Z" fill="white"/>
<path fill-rule="evenodd" clip-rule="evenodd" d="M21.8065 9.20517C23.1408 9.20517 23.203 7.33203 21.8065 7.33203C21.3273 7.33203 20.9056 7.78705 20.9188 8.26476C20.9312 8.72819 21.3207 9.20517 21.8065 9.20517Z" fill="white"/>
<path fill-rule="evenodd" clip-rule="evenodd" d="M21.8065 19.1661C23.1408 19.1661 23.203 17.293 21.8065 17.293C21.3273 17.293 20.9056 17.748 20.9188 18.2257C20.9312 18.6888 21.3207 19.1661 21.8065 19.1661Z" fill="white"/>
<path fill-rule="evenodd" clip-rule="evenodd" d="M12.312 3.20106C12.312 4.67263 14.1852 4.40579 14.1852 3.3713C14.1852 2.70213 13.7953 2.39097 13.3714 2.34961H13.1712C12.7301 2.39171 12.312 2.70834 12.312 3.20106Z" fill="white"/>
<path fill-rule="evenodd" clip-rule="evenodd" d="M12.312 23.1261C12.312 23.8081 12.718 24.117 13.1518 24.1478H13.2993C13.7499 24.1159 14.1852 23.7975 14.1852 23.2963C14.1852 21.8291 12.312 22.0828 12.312 23.1261Z" fill="white"/>
</svg>
