<svg width="29" height="28" viewBox="0 0 29 28" fill="none" xmlns="http://www.w3.org/2000/svg">
<path d="M25.7217 0H3.27997C1.47102 0 0 1.47054 0 3.28162V23.9069C0 25.7159 1.47102 27.1848 3.27997 27.1848H25.7216C27.5305 27.1848 29 25.7159 29 23.9069V3.28162C29.0001 1.47054 27.5306 0 25.7217 0ZM18.7529 4.8804C20.5023 4.8804 21.921 6.29919 21.921 8.04844C21.921 9.79769 20.5022 11.2165 18.7529 11.2165C17.0031 11.2165 15.5849 9.79769 15.5849 8.04844C15.5849 6.29919 17.0031 4.8804 18.7529 4.8804ZM24.693 24.1529H14.4998H4.76061C3.88564 24.1529 3.49597 23.5198 3.8904 22.7389L9.32735 11.97C9.72129 11.1891 10.4721 11.1194 11.0038 11.8142L16.4708 18.9587C17.0025 19.6536 17.9319 19.7127 18.5469 19.0902L19.8844 17.7358C20.499 17.1133 21.4045 17.1904 21.9061 17.9069L25.3694 22.8539C25.87 23.5715 25.568 24.1529 24.693 24.1529Z" fill="#C8DDF7"/>
</svg>
