<?xml version="1.0" standalone="no"?>
<!DOCTYPE svg PUBLIC "-//W3C//DTD SVG 20010904//EN"
 "http://www.w3.org/TR/2001/REC-SVG-20010904/DTD/svg10.dtd">
<svg version="1.0" xmlns="http://www.w3.org/2000/svg"
 width="217.000000pt" height="217.000000pt" viewBox="0 0 217.000000 217.000000"
 preserveAspectRatio="xMidYMid meet">

<g transform="translate(0.000000,217.000000) scale(0.100000,-0.100000)"
fill="#D9D9D9" stroke="none">
<path d="M935 2159 c-419 -61 -773 -367 -889 -770 -60 -211 -60 -397 0 -608
101 -350 385 -634 735 -735 211 -60 397 -60 608 0 350 101 634 385 735 735 60
211 60 397 0 608 -101 350 -385 634 -735 735 -153 44 -309 56 -454 35z m103
-387 c11 -26 30 -74 43 -106 20 -56 21 -60 4 -72 -9 -7 -23 -10 -29 -8 -15 6
-86 180 -86 211 0 22 16 33 37 26 6 -3 20 -26 31 -51z m615 -72 c42 -63 77
-122 77 -131 0 -10 -43 -68 -95 -130 -122 -144 -134 -178 -111 -294 9 -44 25
-114 37 -155 50 -182 -20 -399 -169 -524 -65 -53 -177 -105 -252 -115 -130
-17 -277 16 -372 84 l-51 37 -24 -31 c-66 -84 -177 -81 -234 5 -23 35 -24 94
-4 135 18 34 69 69 103 69 12 0 22 1 22 3 0 1 -9 31 -21 67 -53 170 -5 379
117 502 24 25 94 80 154 122 115 80 142 88 190 61 37 -21 66 -18 109 11 l39
25 -25 45 c-15 27 -22 49 -16 55 35 35 412 278 428 276 13 -1 47 -42 98 -117z
m-759 9 c77 -80 90 -110 52 -117 -12 -3 -39 16 -78 55 -84 82 -103 110 -88
128 7 8 18 15 25 15 7 0 47 -36 89 -81z m-69 -138 c99 -43 119 -61 94 -87 -15
-14 -24 -13 -105 21 -107 44 -127 60 -113 86 13 26 20 24 124 -20z"/>
<path d="M984 1210 c-99 -21 -196 -96 -245 -192 -17 -33 -24 -65 -27 -135 -4
-86 -2 -96 26 -156 34 -73 90 -132 165 -173 47 -26 61 -29 147 -29 82 0 103 4
152 27 181 85 252 291 163 474 -66 135 -233 216 -381 184z m165 -160 c44 -22
58 -47 38 -68 -12 -12 -20 -11 -57 8 -32 16 -56 21 -98 18 -44 -2 -57 0 -66
15 -28 46 107 66 183 27z"/>
<path d="M543 580 c-46 -19 -57 -83 -20 -118 31 -29 72 -28 102 3 31 30 32 57
3 89 -27 29 -55 38 -85 26z"/>
</g>
</svg>
