<svg width="100" height="100" viewBox="0 0 100 100" fill="none" xmlns="http://www.w3.org/2000/svg">
<path fill-rule="evenodd" clip-rule="evenodd" d="M50 0C77.6149 0 100 22.3851 100 50C100 77.6135 77.6149 100 50 100C22.3864 100 0 77.6135 0 50C0 22.3851 22.3864 0 50 0Z" fill="#F6F6F6"/>
<path fill-rule="evenodd" clip-rule="evenodd" d="M33.6781 25.6728C34.2444 25.1382 33.4336 25.326 35.0498 25.2127L45.0633 25.3606L45.189 28.343C45.7734 31.2383 50.4286 32.4994 50.2739 25.4158L61.7945 25.4268C61.8152 28.1454 61.59 30.5531 64.3306 30.502C66.9649 30.4523 66.8226 28.0653 66.8406 25.4228C75.7283 25.3606 75.2697 27.8 75.2697 35.9197C75.2697 38.134 74.9921 43.7162 75.3429 45.5479C75.8927 48.4225 79.9042 48.2098 80.2868 45.1625C80.675 42.0696 80.5327 28.9549 79.6362 26.6964C77.1843 20.5134 71.8812 20.2827 66.835 20.2909C66.8267 17.6512 67.0451 15.2448 64.3293 15.2572C61.6121 15.2696 61.8027 17.8197 61.8 20.2398L50.3014 20.2909C50.2697 17.9551 50.3346 15.539 47.8702 15.2917C44.9901 15.003 44.9542 17.4978 44.9335 20.1265L33.6615 20.2978C33.6739 17.7824 33.7513 15.336 31.1322 15.2558C28.375 15.1716 28.3184 17.8625 28.3184 20.2951C20.4681 20.1639 15.1263 22.8976 15.0918 31.6348L15.0931 68.3943C15.0862 72.8285 15.7852 75.3012 18.291 77.6868C20.8673 80.1401 23.2985 80.4109 27.5849 80.4068C29.5602 80.404 44.6019 80.6567 45.812 80.1801C47.2058 79.6304 47.8633 77.9659 46.9461 76.5403C45.044 73.5855 29.1389 76.5348 23.9974 75.152C20.1821 74.1257 20.1711 71.0204 20.178 66.611L20.2622 30.0254C20.888 25.6976 23.8814 25.4379 28.3308 25.4158C28.3115 27.7696 28.3432 30.2741 30.8476 30.4883C33.6048 30.7245 33.6353 28.0639 33.6781 25.6741V25.6728Z" fill="white"/>
<path fill-rule="evenodd" clip-rule="evenodd" d="M28.3641 64.1122C28.2854 67.1622 33.6672 67.8364 33.6037 64.1163C33.5443 60.6187 28.4429 61.0787 28.3641 64.1122Z" fill="white"/>
<path fill-rule="evenodd" clip-rule="evenodd" d="M28.4182 53.4057C28.9252 56.3287 33.9699 56.3549 33.5803 52.7592C33.1742 49.017 27.903 50.4372 28.4182 53.4057Z" fill="white"/>
<path fill-rule="evenodd" clip-rule="evenodd" d="M50.5996 42.3438C51.0265 45.2253 56.0892 45.3523 55.7494 41.6793C55.4275 38.2065 50.1313 39.1708 50.5996 42.3438Z" fill="white"/>
<path fill-rule="evenodd" clip-rule="evenodd" d="M28.3672 41.9898C28.3769 44.9418 33.5266 45.6076 33.5819 41.9925C33.6371 38.4175 28.3562 38.9315 28.3672 41.9898Z" fill="white"/>
<path fill-rule="evenodd" clip-rule="evenodd" d="M44.3189 43.4636C46.1713 40.5102 41.7274 37.8318 40.0311 40.5503C37.9535 43.8794 42.9361 45.6697 44.3189 43.4636Z" fill="white"/>
<path fill-rule="evenodd" clip-rule="evenodd" d="M39.6991 51.8607C39.3124 56.9359 43.846 56.2603 44.527 53.9231C44.9994 52.3027 44.1333 51.0872 43.0821 50.6963C41.3968 50.0705 40.6109 51.0899 39.6991 51.8607Z" fill="white"/>
<path fill-rule="evenodd" clip-rule="evenodd" d="M61.8606 43.1449C62.8123 43.8936 63.2779 44.7225 64.959 44.4103C67.5642 43.9268 67.5145 39.7523 64.6565 39.5133C63.1011 39.3835 62.7654 40.1046 61.8398 40.8187L61.8606 43.1449Z" fill="white"/>
<path fill-rule="evenodd" clip-rule="evenodd" d="M39.6783 62.9064C39.3993 68.1128 43.9509 67.168 44.5476 65.0048C44.9966 63.3789 44.136 62.1812 43.0669 61.8124C41.3719 61.2281 40.7102 62.2143 39.677 62.9078L39.6783 62.9064Z" fill="white"/>
<path fill-rule="evenodd" clip-rule="evenodd" d="M45.1867 28.345L45.061 25.3627L35.0475 25.2148C33.4313 25.3267 34.2421 25.1403 33.6758 25.6749L44.8234 25.5907C44.8207 26.0065 44.7723 26.6584 44.7971 27.0327C44.8938 28.4473 44.7544 27.7317 45.1867 28.3464V28.345Z" fill="#787878"/>
<path fill-rule="evenodd" clip-rule="evenodd" d="M49.2541 67.2451C49.2541 64.2572 49.7984 62.2458 50.8537 59.7027C51.5651 57.9885 52.6882 56.4594 53.9287 55.1181C54.1442 54.8846 54.2201 54.7381 54.4619 54.4978C56.6555 52.3042 59.9059 50.3993 62.9186 49.7777C67.234 48.8867 70.3214 49.1878 74.4213 50.8896C76.7392 51.8524 78.9867 53.7367 80.6526 55.6126L82.4732 58.2399C82.7454 58.7413 83.0051 59.1502 83.2344 59.7027C84.8962 63.7046 85.2553 66.9053 84.3602 71.1364C83.7234 74.1423 82.2066 76.8276 80.1594 79.0419C79.944 79.2753 79.8666 79.4218 79.6263 79.6622L75.8855 82.5106C74.384 83.3269 72.9239 84.0217 71.1696 84.3836C66.4853 85.3506 62.4807 84.8948 58.2579 82.5396C57.7827 82.2757 57.3089 81.9994 56.8903 81.6831C55.6899 80.7741 56.114 81.1513 55.0821 80.1968C53.937 79.1373 52.8622 77.999 52.0514 76.6397C51.0236 74.9186 50.1672 73.265 49.7418 71.2068C49.489 69.9802 49.2541 68.7563 49.2541 67.2464V67.2451ZM66.1317 45.9955H67.6608C69.469 46.0646 71.2952 46.3739 73.2208 46.9016C73.5565 46.9942 73.8121 47.0784 74.1588 47.2C76.2612 47.9335 78.1759 49.0718 79.9385 50.3979C81.4967 51.5707 83.2496 53.3844 84.3229 54.991L84.8506 55.7811C85.3106 56.4994 85.8784 57.4429 86.2002 58.2206C86.4641 58.8574 86.7169 59.3547 86.9462 60.0274C87.6686 62.152 88.0526 64.1619 88.13 66.1676V67.6967C88.0609 69.5036 87.7515 71.3311 87.2238 73.2567C86.6837 75.2307 85.8245 76.7834 84.7884 78.4811C84.3146 79.2574 83.7372 79.9619 83.1764 80.6581C82.9305 80.9634 82.8076 81.0684 82.5493 81.3475C82.3213 81.5933 82.2301 81.7522 81.9746 82.0078C81.708 82.2744 81.5243 82.3794 81.2715 82.6239C80.2769 83.5839 78.8168 84.6545 77.5832 85.359C76.5417 85.9543 75.2501 86.5884 74.098 86.9807C73.4819 87.1907 72.7291 87.442 72.131 87.5663C69.5741 88.0981 69.1431 88.1631 66.4674 88.1631C61.4668 88.1631 56.4289 85.9668 52.7766 82.5825C52.5307 82.3545 52.3719 82.2633 52.1163 82.0078C51.0195 80.911 49.5677 79.0199 48.7652 77.6178C47.859 76.0347 46.9306 73.9641 46.5577 72.1655C46.0258 69.6086 45.9609 69.1776 45.9609 66.5033C45.9609 64.7697 46.2579 63.3787 46.5715 61.9255C47.0508 59.7029 48.1338 57.5948 49.3025 55.6788C49.4959 55.3611 49.6022 55.2382 49.7998 54.9398C50.0166 54.6097 50.1354 54.4868 50.362 54.1856C50.5719 53.9066 50.7128 53.7505 50.9145 53.5018L52.1163 52.1508C54.1898 50.0774 57.2219 48.12 59.9929 47.1779C62.116 46.4554 64.1273 46.0715 66.1331 45.9941L66.1317 45.9955Z" fill="white"/>
<path d="M59.5356 58.0944V63.8457C59.5356 64.345 59.5132 64.7693 59.4682 65.1188C59.4283 65.4683 59.3334 65.8227 59.1837 66.1822C58.934 66.7863 58.5222 67.2581 57.948 67.5976C57.3739 67.9321 56.6749 68.0993 55.8512 68.0993C55.1073 68.0993 54.4857 67.982 53.9865 67.7474C53.4922 67.5127 53.0928 67.1333 52.7883 66.6091C52.6285 66.3295 52.4987 66.0075 52.3989 65.643C52.299 65.2786 52.2491 64.9316 52.2491 64.6021C52.2491 64.2526 52.3464 63.9855 52.5412 63.8008C52.7359 63.6161 52.9855 63.5237 53.29 63.5237C53.5846 63.5237 53.8068 63.6086 53.9565 63.7783C54.1063 63.9481 54.2211 64.2127 54.301 64.5721C54.3859 64.9565 54.4708 65.2636 54.5556 65.4932C54.6405 65.7229 54.7828 65.9201 54.9825 66.0849C55.1822 66.2496 55.4668 66.332 55.8362 66.332C56.8197 66.332 57.3115 65.6106 57.3115 64.1677V58.0944C57.3115 57.645 57.4088 57.308 57.6035 57.0834C57.8032 56.8587 58.0728 56.7464 58.4123 56.7464C58.7568 56.7464 59.0289 56.8587 59.2286 57.0834C59.4333 57.308 59.5356 57.645 59.5356 58.0944ZM64.95 61.2846C65.4093 61.2846 65.8037 61.1498 66.1332 60.8802C66.4677 60.6106 66.635 60.2237 66.635 59.7194C66.635 59.335 66.5027 59.0055 66.2381 58.7309C65.9735 58.4513 65.6165 58.3115 65.1672 58.3115C64.8626 58.3115 64.6105 58.354 64.4108 58.4388C64.2161 58.5237 64.0613 58.636 63.9465 58.7758C63.8317 58.9156 63.7219 59.0954 63.617 59.315C63.5172 59.5347 63.4248 59.7419 63.3399 59.9366C63.29 60.0414 63.2001 60.1238 63.0703 60.1837C62.9405 60.2436 62.7908 60.2736 62.621 60.2736C62.4213 60.2736 62.2366 60.1937 62.0668 60.0339C61.9021 59.8692 61.8197 59.652 61.8197 59.3824C61.8197 59.1228 61.8971 58.8507 62.0519 58.5661C62.2116 58.2766 62.4413 58.002 62.7408 57.7424C63.0454 57.4828 63.4223 57.2756 63.8716 57.1208C64.321 56.9611 64.8227 56.8812 65.3769 56.8812C65.8611 56.8812 66.303 56.9486 66.7024 57.0834C67.1018 57.2132 67.4488 57.4029 67.7433 57.6525C68.0379 57.9021 68.26 58.1917 68.4098 58.5212C68.5596 58.8507 68.6345 59.2052 68.6345 59.5846C68.6345 60.0839 68.5246 60.5132 68.305 60.8727C68.0903 61.2272 67.7808 61.5741 67.3764 61.9136C67.7658 62.1233 68.0928 62.3629 68.3574 62.6325C68.627 62.9021 68.8292 63.2017 68.964 63.5312C69.0988 63.8557 69.1662 64.2077 69.1662 64.5871C69.1662 65.0414 69.0738 65.4808 68.8891 65.9051C68.7094 66.3295 68.4423 66.7089 68.0878 67.0434C67.7333 67.3729 67.3115 67.6325 66.8222 67.8222C66.3379 68.007 65.8012 68.0993 65.2121 68.0993C64.613 68.0993 64.0763 67.992 63.602 67.7773C63.1278 67.5626 62.7358 67.2955 62.4263 66.976C62.1218 66.6515 61.8896 66.317 61.7299 65.9725C61.5751 65.628 61.4977 65.3435 61.4977 65.1188C61.4977 64.8292 61.5901 64.5971 61.7748 64.4224C61.9645 64.2426 62.1991 64.1528 62.4787 64.1528C62.6185 64.1528 62.7533 64.1952 62.8831 64.2801C63.0129 64.3599 63.0978 64.4573 63.1377 64.5721C63.3973 65.2661 63.6744 65.7828 63.969 66.1223C64.2685 66.4568 64.6879 66.624 65.2271 66.624C65.5366 66.624 65.8337 66.5492 66.1183 66.3994C66.4078 66.2446 66.645 66.0175 66.8297 65.7179C67.0194 65.4184 67.1143 65.0714 67.1143 64.677C67.1143 64.0928 66.9545 63.636 66.635 63.3065C66.3155 62.972 65.8711 62.8048 65.302 62.8048C65.2021 62.8048 65.0474 62.8148 64.8377 62.8347C64.628 62.8547 64.4932 62.8647 64.4333 62.8647C64.1587 62.8647 63.9465 62.7973 63.7967 62.6625C63.647 62.5227 63.5721 62.3305 63.5721 62.0859C63.5721 61.8462 63.6619 61.654 63.8417 61.5092C64.0214 61.3595 64.2885 61.2846 64.643 61.2846H64.95Z" fill="white"/>
</svg>
