<svg xmlns="http://www.w3.org/2000/svg" xml:space="preserve" version="1.1" style="shape-rendering:geometricPrecision; text-rendering:geometricPrecision; image-rendering:optimizeQuality; fill-rule:evenodd; clip-rule:evenodd" xmlns:xlink="http://www.w3.org/1999/xlink" xmlns:xodm="http://www.corel.com/coreldraw/odm/2003" viewBox="3194.36 4575.87 1625.54 2114.4">  <defs>   <style type="text/css">         .str0 {stroke:#99E6FF;stroke-width:6.94;stroke-miterlimit:2.61313}     .fil0 {fill:#99E6FF}       </style>  </defs>  <g id="Layer_x0020_1">   <metadata id="CorelCorpID_0Corel-Layer"></metadata>   <path class="fil0 str0" d="M4422.16 5381.95c195.46,-428.04 -53.95,-414.78 -300.64,-449.53 -156.17,-22 -486.22,-18.6 -573.86,91.37 -96.24,120.77 25.75,315.43 93.11,376.58 35.69,-4.44 17.03,-1.3 42.76,-12.46 392.96,-170.41 662.36,-7.1 738.63,-5.96zm-1019.11 274.08c-40.72,-66.19 -96.89,-133.81 -129.23,-206.23l-48.49 -130.76c-26.8,-97.88 -26.7,-131.23 -27.48,-234.01 -1.7,-226 135,-356.96 338.83,-431.78 136.89,-50.26 266.48,-74.13 446.55,-73.91 337.37,0.42 626.99,76.44 761.09,275.84 71.54,106.37 90.52,281.09 53.96,429.45 -35.66,144.72 -89.42,241.02 -145.9,357.14 14.73,62.02 44.33,108.09 63.25,171.08 23.32,77.65 18.88,63.06 27.76,137.74 18.33,154.2 -20.78,300.61 -83.13,412.84l-98.52 128.03c-29.55,30.54 -28.9,30.07 -61.67,54.56l-143.47 82.97c-325.78,126.84 -697.07,43.56 -911.59,-236.05 -210.91,-274.91 -45.79,-650.85 -41.97,-736.9z"></path>  </g> </svg>