<svg width="15" height="16" viewBox="0 0 15 16" fill="none" xmlns="http://www.w3.org/2000/svg">
<path d="M14.5214 13.3551L13.1976 5.44687C13.0731 4.70122 12.4273 4.15627 11.6715 4.15627H9.68255C9.91578 3.74994 10.0491 3.27923 10.0491 2.77796C10.0491 1.24626 8.80321 0 7.27117 0C5.73947 0 4.49321 1.24626 4.49321 2.77796C4.49321 3.27923 4.62657 3.74994 4.85979 4.15627H2.87084C2.11468 4.15627 1.46921 4.70188 1.34472 5.44753L0.0212683 13.3567C-0.0539538 13.8051 0.0725114 14.2666 0.366502 14.6135C0.660821 14.9607 1.09245 15.164 1.54772 15.164H12.9959C13.4512 15.164 13.8828 14.9607 14.1772 14.6135C14.4708 14.2659 14.597 13.8038 14.5214 13.3551ZM7.2715 1.61843C7.91073 1.61843 8.43104 2.13874 8.43104 2.77829C8.43104 3.41785 7.91073 3.93783 7.2715 3.93783C6.63195 3.93783 6.11164 3.41752 6.11164 2.77796C6.11164 2.13841 6.63195 1.61843 7.2715 1.61843Z" fill="#99E6FF"/>
</svg>
