<svg width="100" height="100" viewBox="0 0 100 100" fill="none" xmlns="http://www.w3.org/2000/svg">
<path fill-rule="evenodd" clip-rule="evenodd" d="M50 0C77.6135 0 100 22.3864 100 50C100 77.6149 77.6135 100 50 100C22.3864 100 0 77.6149 0 50C0 22.3864 22.3864 0 50 0Z" fill="#99E6FF"/>
<path fill-rule="evenodd" clip-rule="evenodd" d="M50.0005 25.7145C51.9938 25.7145 55.0881 26.0281 56.899 26.3665C58.9669 26.7519 60.9271 27.2437 62.6884 27.8888C64.3433 28.4952 66.2592 29.3006 67.6019 30.1004C71.4379 32.3838 70.6423 31.986 73.6481 34.4572C74.2394 34.9435 74.814 35.6369 75.3307 36.1715C78.7758 39.7451 80.9114 45.37 80.9114 50.0004C80.9114 55.5355 78.3489 61.0389 73.9216 65.3087L71.3592 67.4553C70.4309 68.1861 69.5662 68.7428 68.5011 69.3713L65.3199 71.0317C61.1495 72.9173 58.1395 73.5389 53.3572 74.1122C52.5933 74.2047 51.6139 74.184 50.9633 74.2558C49.8748 74.3746 49.3154 74.1895 48.4313 74.1716C44.848 74.0983 42.3325 73.5375 39.5712 72.8123C37.8044 72.3495 35.7406 71.5332 34.1244 70.7955C31.9722 69.812 31.6766 70.2927 29.302 70.8411C28.2398 71.0869 27.4966 71.279 26.4772 71.5456L20.8066 72.9366C20.8895 72.1589 24.2407 64.9841 24.2407 64.0544C24.2407 63.0944 23.3028 62.2545 22.619 61.1687C20.7887 58.2651 19.2692 54.8918 19.2374 51.3458C19.2319 50.6413 19.0067 50.2615 19.0965 49.4451C19.5648 45.1808 20.2914 41.8613 23.1785 38.035L24.1427 36.7683C25.8777 34.5014 29.1722 32.0025 31.9087 30.3891C33.6962 29.3365 34.8151 28.8751 36.93 28.038C40.5795 26.5931 45.9779 25.7159 50.0018 25.7159L50.0005 25.7145ZM48.4243 21.2168H52.0311C56.6504 21.3964 61.2379 22.2666 65.5049 23.8759C69.5551 25.4037 72.9464 27.2713 75.937 29.6211C78.878 31.9307 81.4307 34.7321 83.2956 37.8941C85.7337 42.0257 86.6343 45.5855 86.6343 50.7864C86.6343 61.6025 77.6569 71.6961 65.4083 76.1593C59.9339 78.154 55.4679 78.7826 48.7117 78.7826C43.9252 78.7826 37.9729 77.5034 33.8288 75.8596C32.0896 75.1703 32.1007 74.8926 31.2042 75.133L24.2587 76.8846C22.898 77.2244 17.2911 78.7826 16.2288 78.7826C14.6085 78.7826 13.3666 77.806 13.3666 76.5337C13.3666 75.7229 17.0576 66.9788 17.7483 65.3598C18.1392 64.444 18.3243 64.4412 17.9513 63.9467C16.5824 62.1246 15.6776 60.2722 14.8143 58.0814C13.5531 54.878 13.3652 52.6416 13.3652 49.213C13.3652 45.0634 15.0104 40.6637 16.7496 37.8181C18.6946 34.6354 21.0705 31.9708 24.0611 29.6224C30.6047 24.481 39.4344 21.5621 48.423 21.2182L48.4243 21.2168Z" fill="#00004D"/>
<path fill-rule="evenodd" clip-rule="evenodd" d="M32.1133 49.7045C32.1133 54.8777 39.2688 54.8777 39.2688 49.7045C39.2688 47.9294 37.7161 46.4141 35.4051 46.4141C33.7737 46.4141 32.1133 48.0744 32.1133 49.7045Z" fill="white"/>
<path fill-rule="evenodd" clip-rule="evenodd" d="M60.7344 49.7045C60.7344 54.8777 67.8899 54.8777 67.8899 49.7045C67.8899 47.9294 66.3372 46.4141 64.0262 46.4141C62.3948 46.4141 60.7344 48.0744 60.7344 49.7045Z" fill="white"/>
<path fill-rule="evenodd" clip-rule="evenodd" d="M46.4219 49.7045C46.4219 54.8777 53.5773 54.8777 53.5773 49.7045C53.5773 47.9294 52.0246 46.4141 49.7136 46.4141C48.0822 46.4141 46.4219 48.0744 46.4219 49.7045Z" fill="white"/>
</svg>
