<svg width="9" height="12" viewBox="0 0 9 12" fill="none" xmlns="http://www.w3.org/2000/svg">
<path d="M4.50013 3.72683C5.1164 3.72683 5.61599 3.22724 5.61599 2.61097C5.61599 1.9947 5.1164 1.49512 4.50013 1.49512C3.88386 1.49512 3.38428 1.9947 3.38428 2.61097C3.38428 3.22724 3.88386 3.72683 4.50013 3.72683Z" fill="#00004D"/>
<path d="M2.74609 7.31445V7.8009C2.74609 7.97888 2.89038 8.12317 3.06836 8.12317H3.46187V10.8221C3.46187 11.0001 3.60616 11.1444 3.78413 11.1444H5.21566C5.39363 11.1444 5.53792 11.0001 5.53792 10.8221V8.12317H5.93143C6.10941 8.12317 6.2537 7.97888 6.2537 7.8009V7.31445H2.74609Z" fill="#00004D"/>
<path d="M6.2537 5.3811V5.20815C6.2537 4.58829 5.74939 4.08398 5.12953 4.08398H3.87026C3.25037 4.08398 2.74609 4.58829 2.74609 5.20815V5.3811H6.2537Z" fill="#00004D"/>
<path d="M7.08887 1.49219H7.63178C7.86849 1.49219 8.06104 1.68475 8.06104 1.92147V2.46436C8.06104 2.64233 8.20532 2.78662 8.3833 2.78662C8.56128 2.78662 8.70557 2.64233 8.70557 2.46436V1.92147C8.70557 1.32936 8.22387 0.847656 7.63178 0.847656H7.08887C6.91089 0.847656 6.7666 0.991945 6.7666 1.16992C6.7666 1.3479 6.91089 1.49219 7.08887 1.49219Z" fill="#00004D"/>
<path d="M8.3833 9.9082C8.20532 9.9082 8.06104 10.0525 8.06104 10.2305V10.7734C8.06104 11.0101 7.86847 11.2026 7.63178 11.2026H7.08887C6.91089 11.2026 6.7666 11.3469 6.7666 11.5249C6.7666 11.7029 6.91089 11.8472 7.08887 11.8472H7.63178C8.22389 11.8472 8.70557 11.3655 8.70557 10.7734V10.2305C8.70557 10.0525 8.56128 9.9082 8.3833 9.9082Z" fill="#00004D"/>
<path d="M8.3833 6.02539H0.616699C0.438723 6.02539 0.294434 6.16968 0.294434 6.34766C0.294434 6.52563 0.438723 6.66992 0.616699 6.66992H8.3833C8.56128 6.66992 8.70557 6.52563 8.70557 6.34766C8.70557 6.16968 8.56128 6.02539 8.3833 6.02539Z" fill="#00004D"/>
</svg>
