<svg width="95" height="100" viewBox="0 0 95 100" fill="none" xmlns="http://www.w3.org/2000/svg">
<path fill-rule="evenodd" clip-rule="evenodd" d="M47.2755 0C73.3852 0 94.5511 21.1659 94.5511 47.2755C94.5511 73.3852 73.3852 94.5511 47.2755 94.5511C21.1659 94.5511 0 73.3852 0 47.2755C0 21.1659 21.1659 0 47.2755 0Z" fill="#FDBA14"/>
<path fill-rule="evenodd" clip-rule="evenodd" d="M46.6696 21.5095C50.4677 20.9587 55.0169 22.1895 57.9537 23.338C66.6516 26.7394 74.0952 36.1501 74.309 46.2556C74.4985 55.2359 71.5518 60.8341 67.3089 65.602C63.8488 69.4897 57.0288 73.7769 49.468 73.9619C40.5596 74.1802 34.7862 71.206 30.0928 66.9705C26.2051 63.4626 21.9544 56.7138 21.7678 49.1057C21.4903 37.7974 27.2197 28.5466 36.2826 24.1775C37.749 23.4704 39.2392 22.7991 41.0056 22.3527C44.7852 21.3973 43.8442 21.9198 46.6705 21.5099L46.6696 21.5095ZM27.7019 22.8616C27.1827 22.9385 27.542 22.7744 27.0651 23.1859L23.3118 26.9655C23.0763 27.2652 23.1828 27.0942 23.0829 27.3409C23.561 28.3554 23.808 28.5153 22.7934 29.9517C22.2512 30.7192 21.8455 31.3243 21.348 32.1856C14.3689 44.2647 16.3142 60.0485 26.2228 69.5012C31.3051 74.3496 38.2858 78.2714 45.9433 78.5065C52.7776 78.7162 58.0409 77.5672 63.4315 74.4339C66.6582 72.5585 66.421 71.7416 68.3831 72.6559C69.0725 72.3385 72.1804 69.1727 72.7719 68.3974C73.0634 68.0151 72.8928 68.2954 72.9803 68.0225C72.1039 66.9651 72.5397 66.4792 73.2147 65.5054C79.5759 56.3306 80.8055 44.6157 75.7815 34.3076C68.9714 20.3338 52.1635 13.0632 37.3161 18.7425C35.4871 19.4421 34.0389 20.1422 32.4533 21.0635C29.5584 22.7461 29.3976 23.7985 27.7015 22.8612L27.7019 22.8616Z" fill="white"/>
<path fill-rule="evenodd" clip-rule="evenodd" d="M45.8693 28.7279C51.4174 27.6562 57.5817 30.6723 60.4219 33.1109C68.5069 40.0526 69.4277 52.1095 62.6406 60.0954C55.8399 68.0973 43.4348 69.1324 35.5998 62.298C27.3677 55.1167 26.7338 43.0532 33.4486 35.2683C36.4491 31.7893 39.5056 30.1626 43.8545 29.0411C44.5916 28.8508 45.064 28.8837 45.8693 28.7279ZM45.5272 24.2087C42.1205 24.848 39.8912 25.0276 36.5548 27.0029C28.804 31.5915 23.4031 39.866 24.4526 50.0795C25.6904 62.1229 36.4524 72.6526 50.6178 71.2643C69.6296 69.4013 80.1112 44.4377 63.3411 29.7058C59.0678 25.9517 51.5337 23.0819 45.5272 24.2087Z" fill="white"/>
<path fill-rule="evenodd" clip-rule="evenodd" d="M13.9827 78.7875L25.1336 78.8134L25.1451 81.0781L13.912 81.0962L13.9827 78.7871V78.7875ZM21.3939 99.9966H19.4975H16.9331C16.1426 99.8868 15.6164 99.5242 15.498 98.4718L14.1406 83.5903C12.3835 83.5903 11.4557 82.9375 11.4508 81.2578C11.4409 77.8169 11.0475 76.2244 14.6429 76.2244V54.4607C14.6429 50.5661 14.3621 47.7439 14.7802 44.0511C15.352 39.0029 16.7872 34.7456 19.3207 30.511C20.9935 27.7155 21.2422 26.9817 23.0822 27.3402C23.5603 28.3548 23.8074 28.5147 22.7928 29.9511C22.2506 30.7186 21.8448 31.3237 21.3474 32.1849C14.3683 44.264 16.3136 60.0479 26.2221 69.5005C31.3045 74.349 38.2852 78.2708 45.9426 78.5059C52.777 78.7156 58.0402 77.5666 63.4309 74.4332C66.6575 72.5578 66.4203 71.741 68.3824 72.6553C68.7035 74.2466 68.2698 74.4164 67.1447 75.1547C62.8459 77.9768 58.5191 80.0405 53.1782 80.7756L47.8205 81.2282C47.2647 81.1825 46.9555 81.0695 46.119 81.0769C40.1281 81.1316 30.9258 77.4909 26.5707 73.3368L24.5198 71.5371V76.2248C27.1738 76.2248 27.714 77.0979 27.7021 79.7396C27.6959 81.0978 27.9524 82.7019 26.366 83.4283C25.8332 83.6725 25.5993 83.5911 24.8548 83.5911L23.7794 96.2437C23.3017 99.5735 23.8255 99.9616 21.3939 99.9978V99.9966ZM17.197 60.8684L18.8714 64.2682C21.7145 69.4919 21.9159 66.8876 21.9151 71.2016C21.9151 72.5286 21.666 75.0577 22.045 76.1787L17.1871 76.2009L17.197 60.868V60.8684Z" fill="#00004D"/>
<path fill-rule="evenodd" clip-rule="evenodd" d="M45.5258 24.2109C51.5322 23.0841 59.0663 25.9539 63.3396 29.708C80.1093 44.4403 69.6277 69.4035 50.6163 71.2665C36.4509 72.6548 25.689 62.1247 24.4512 50.0817C23.4016 39.8686 28.8026 31.5937 36.5533 27.0051C39.8901 25.0298 42.1191 24.8502 45.5258 24.2109ZM46.6682 21.5092C43.8419 21.9191 44.7833 21.3966 41.0034 22.352C39.2365 22.7984 37.7467 23.4701 36.2803 24.1768C27.2174 28.5459 21.488 37.7967 21.7655 49.105C21.9521 56.7131 26.2028 63.462 30.0905 66.9698C34.784 71.2053 40.5573 74.1795 49.4657 73.9612C57.0265 73.7762 63.8469 69.4894 67.3066 65.6013C71.5499 60.8334 74.4962 55.2352 74.3067 46.2549C74.0934 36.1494 66.6493 26.7387 57.9514 23.3374C55.0146 22.1888 50.4659 20.9575 46.6674 21.5088L46.6682 21.5092Z" fill="black"/>
<path fill-rule="evenodd" clip-rule="evenodd" d="M37.1897 42.6929C40.4629 35.6768 49.2084 33.7833 54.914 37.9518C57.998 40.2049 57.8652 41.3367 58.971 42.7743C61.7948 42.9169 62.1381 44.5226 62.1348 47.2634C62.1315 50.1135 62.0106 51.764 59.1379 52.0822C56.6262 59.0223 47.7441 62.0635 40.9188 57.3306C39.5823 56.404 38.4115 55.0063 37.607 53.5749C37.3159 53.0565 37.1301 52.5003 36.8136 52.0678C33.3765 51.9622 33.4866 49.4968 33.4838 47.2634C33.4817 45.7263 33.4061 44.8745 34.1818 43.8748C34.8358 43.0316 35.7394 42.7081 37.1893 42.6933L37.1897 42.6929ZM31.522 49.2724C32.2332 54.1521 34.4067 57.5896 37.1388 60.0833C39.7352 62.4532 44.3962 64.6674 49.416 64.1995C63.5728 62.8803 69.9735 45.3399 58.8872 35.3294C52.4079 29.4792 41.9617 29.6974 35.5894 36.9039C32.9164 39.9266 30.9115 45.083 31.5224 49.2728L31.522 49.2724Z" fill="white"/>
<path fill-rule="evenodd" clip-rule="evenodd" d="M31.5216 49.2707C30.9107 45.0805 32.9156 39.9246 35.5885 36.9018C41.9608 29.6954 52.4071 29.4771 58.8863 35.3273C69.973 45.3378 63.5723 62.8783 49.4151 64.1975C44.3953 64.6653 39.7343 62.4512 37.1379 60.0812C34.4058 57.5879 32.2328 54.1504 31.5212 49.2703L31.5216 49.2707ZM45.8678 28.7285C45.0625 28.8839 44.5902 28.8514 43.8531 29.0417C39.5041 30.1636 36.4477 31.7899 33.4471 35.2689C26.7328 43.0538 27.3662 55.1173 35.5984 62.2986C43.4334 69.133 55.8385 68.0979 62.6391 60.096C69.4263 52.1101 68.5054 40.0532 60.4205 33.1115C57.5802 30.6729 51.4155 27.6568 45.8678 28.7285Z" fill="black"/>
<path fill-rule="evenodd" clip-rule="evenodd" d="M39.7539 52.1181H56.1601C55.8876 53.2885 54.0771 54.976 53.0794 55.5668C49.8852 57.4586 46.1151 57.6629 42.999 55.5693C40.9399 54.1855 40.9399 53.8899 39.7535 52.1181H39.7539ZM36.2144 49.2894C35.9258 48.7406 35.8678 46.0883 36.2382 45.4383C36.9034 45.1 58.5342 45.0765 59.4883 45.4346C59.684 46.0188 59.6894 48.1026 59.6199 48.7628C59.4974 49.9315 58.1214 49.5554 56.9971 49.5542H42.9345C41.5409 49.5542 36.9416 49.9044 36.214 49.2894H36.2144ZM47.6222 38.3906C49.7204 38.3906 51.343 38.7248 52.9487 39.7603C53.8761 40.3585 55.5316 41.6431 55.8255 42.7432H40.0889C41.6988 40.3391 44.4185 38.3906 47.6226 38.3906H47.6222ZM37.1891 42.693C35.7396 42.7082 34.836 43.0318 34.1815 43.8745C33.4058 44.8743 33.481 45.7261 33.4835 47.2631C33.4864 49.4962 33.3762 51.9615 36.8133 52.0676C37.1299 52.5 37.3157 53.0563 37.6067 53.5746C38.4112 55.0061 39.5824 56.4038 40.9185 57.3304C47.7439 62.0633 56.6259 59.022 59.1377 52.082C62.01 51.7638 62.1312 50.1132 62.1345 47.2631C62.1374 44.5224 61.7946 42.9167 58.9708 42.774C57.8649 41.3369 57.9977 40.2047 54.9137 37.9515C49.2082 33.7826 40.4626 35.6765 37.1895 42.6926L37.1891 42.693Z" fill="black"/>
<path fill-rule="evenodd" clip-rule="evenodd" d="M27.7002 22.861C29.3959 23.7983 29.5571 22.7459 32.452 21.0633C34.0376 20.1417 35.4858 19.4416 37.3148 18.7423C52.1622 13.0631 68.9705 20.3337 75.7802 34.3075C80.8042 44.6156 79.5746 56.3305 73.2134 65.5052C72.5379 66.4791 72.1022 66.9646 72.9791 68.0223C74.7977 68.6891 75.5755 66.8828 76.928 64.5153C80.3545 58.5179 81.6773 53.341 81.4455 45.4164C81.3197 41.1287 79.1413 34.3901 76.7849 30.657C75.9459 29.3279 74.5708 27.1578 73.532 26.0417L71.6105 23.9455C71.1978 23.5504 71.0038 23.4917 70.598 23.1163C67.4762 20.228 63.8294 17.7721 59.7382 16.3979C58.5937 16.0135 57.9787 15.7393 56.6969 15.4211C54.912 14.978 52.5063 14.358 50.2588 14.2832H47.9728C40.0206 14.4411 34.9448 16.2367 28.6712 20.4434C27.546 21.1982 27.102 21.4407 27.7006 22.8619L27.7002 22.861Z" fill="black"/>
<path fill-rule="evenodd" clip-rule="evenodd" d="M36.2157 49.29C36.9434 49.905 41.5427 49.5547 42.9363 49.5547H56.9989C58.1228 49.556 59.4987 49.9321 59.6216 48.7634C59.6911 48.1032 59.6858 46.0193 59.4901 45.4352C58.536 45.0771 36.9051 45.1005 36.24 45.4389C35.8692 46.0888 35.9271 48.7412 36.2161 49.29H36.2157Z" fill="#00004D"/>
<path fill-rule="evenodd" clip-rule="evenodd" d="M17.1875 76.2016L22.0454 76.1794C21.6664 75.058 21.9151 72.5294 21.9155 71.2024C21.9163 66.8888 21.7149 69.4926 18.8717 64.2689L17.1974 60.8691L17.1875 76.202V76.2016Z" fill="white"/>
<path fill-rule="evenodd" clip-rule="evenodd" d="M13.9121 81.0982L25.1452 81.0801L25.1341 78.815L13.9828 78.7891L13.9121 81.0982Z" fill="white"/>
</svg>
