<svg width="100" height="100" viewBox="0 0 100 100" fill="none" xmlns="http://www.w3.org/2000/svg">
<path fill-rule="evenodd" clip-rule="evenodd" d="M50 0C77.6143 0 100 22.3857 100 50C100 77.6144 77.6143 100 50 100C22.3856 100 0 77.6144 0 50C0 22.3857 22.3856 0 50 0Z" fill="#ADCD6A"/>
<path fill-rule="evenodd" clip-rule="evenodd" d="M45.1426 33.6421C44.2739 32.3447 41.7865 29.8469 40.5195 28.9756C39.7073 28.4169 39.6621 28.5373 39.5834 29.6056C39.5387 30.2121 39.4299 31.1017 39.3269 31.7047C38.5843 36.0613 37.8395 36.9086 36.3147 40.3265C33.3587 46.9543 32.7913 55.9495 37.8374 61.5843C39.3743 63.3008 40.7091 64.5074 42.9086 65.5156C43.1639 65.6326 43.3665 65.7282 43.6643 65.8682C48.6343 68.2043 55.596 67.7134 60.2691 64.5582C61.5526 63.6917 62.8604 62.5121 63.8213 61.3239L64.7908 60.0774C68.9052 54.483 68.9591 46.943 67.4417 40.4291C66.7108 40.4899 66.5382 41.5404 64.9834 43.0952C64.1491 43.93 63.1456 44.7678 62.1787 45.4152C62.1787 44.3265 62.4556 43.0656 62.4556 41.5369C62.4556 33.3326 60.9491 27.9617 55.7665 21.7717L52.1291 18.3456C49.6069 16.463 50.7547 17.3369 50.2104 21.2586C49.79 24.2852 49.3756 26.876 48.0991 29.5356C47.5047 30.7739 46.146 32.9704 45.1426 33.6426V33.6421Z" fill="#00004D"/>
<path fill-rule="evenodd" clip-rule="evenodd" d="M56.2221 54.6957C56.6364 54.9731 56.5029 55.1114 57.0529 55.1114C57.9203 55.1114 58.8012 53.8553 59.4073 53.4492C59.4073 55.4305 59.9995 56.4301 58.8712 59.5614C58.4077 60.847 58.0238 61.3796 57.2521 62.374C55.2843 64.9088 51.5482 65.8544 48.1334 64.7235C45.4529 63.8353 43.4556 61.6944 42.9777 58.6605C42.1256 53.2466 45.6142 50.4531 45.6955 46.8014C46.1329 47.094 46.379 47.4035 46.7238 47.8509C47.7321 49.1592 48.2334 49.3783 49.4942 47.5527C50.749 45.7353 51.5129 43.2705 51.5129 40.8457C54.2995 42.7114 56.3608 47.2022 56.3608 50.8179L56.2221 54.6961V54.6957Z" fill="white"/>
<path fill-rule="evenodd" clip-rule="evenodd" d="M51.2356 68.8219C43.9325 68.8219 39.9121 65.3593 39.7395 65.3593C39.1099 65.3593 28.0773 68.9306 26.166 69.3762C26.5908 69.9558 27.0252 69.6419 28.5412 71.5714C30.5325 74.1054 31.3756 78.3862 29.7669 81.4258L35.9821 79.608C41.9738 77.6932 48.5456 75.8836 54.5756 73.9632L66.9151 70.2366C69.0408 69.6488 70.9699 68.9632 73.0891 68.3775C76.5625 67.418 76.8582 65.6793 76.8582 62.451C76.8582 59.8336 74.2721 55.8027 71.5952 55.8027C71.116 55.8027 68.5469 56.5066 68.3278 56.6906C68.0899 56.8906 67.8121 57.734 67.6604 58.1006C67.4456 58.6197 67.2043 58.9514 66.9286 59.4467C65.9082 61.281 64.6812 62.6671 63.253 64.081C60.3391 66.9649 55.4034 68.8219 51.2351 68.8219H51.2356Z" fill="#00004D"/>
<path fill-rule="evenodd" clip-rule="evenodd" d="M21.457 63.283C21.457 65.9365 23.1257 68.7525 25.7483 67.9964C26.6096 67.7482 27.401 67.4773 28.3023 67.2195L38.2162 64.2525L35.9783 61.643C35.3453 60.7804 34.5949 59.5347 34.1631 58.4717C33.6801 57.2812 33.6857 57.783 30.9288 56.8582C27.7209 55.7825 25.3983 54.7786 23.0049 58.3212C22.1901 59.5278 21.457 61.313 21.457 63.283Z" fill="#00004D"/>
<path fill-rule="evenodd" clip-rule="evenodd" d="M52.0664 76.4401C52.8108 76.6136 53.6294 76.914 54.3121 77.1031L68.1508 81.2701C68.9203 81.5062 69.6938 81.7953 70.4877 81.9801C70.3703 81.5392 70.3399 81.6775 70.1186 81.2414C69.9495 80.9084 69.8942 80.6949 69.7751 80.3384C68.779 77.3562 69.6195 73.9592 71.4755 71.4718C71.8942 70.911 72.369 70.5688 72.7038 70.0684L52.6921 76.0953C52.0299 76.2997 52.4147 75.9649 52.0669 76.4397L52.0664 76.4401Z" fill="#00004D"/>
<path fill-rule="evenodd" clip-rule="evenodd" d="M29.0759 78.5173C29.0759 76.2773 28.902 74.5703 27.5563 72.6959C24.8667 68.9499 20.592 69.7673 20.2037 74.3603C19.8415 78.6455 22.8311 83.0299 25.9315 82.5768C27.7576 82.3103 29.0759 80.4946 29.0759 78.5168V78.5173Z" fill="#00004D"/>
<path fill-rule="evenodd" clip-rule="evenodd" d="M70.9026 76.8549C70.9026 78.5862 70.7817 79.6906 71.8413 81.1793C73.2978 83.2266 75.6956 82.8088 77.3778 81.114C78.2669 80.2184 78.5339 79.8627 79.0739 78.6553C79.9613 76.6723 80.1765 73.9245 79.0709 72.0106C77.7913 69.7966 75.6448 69.8053 73.6691 71.3114C72.253 72.391 70.9026 75.0275 70.9026 76.8549Z" fill="#00004D"/>
</svg>
